<?xml version="1.0" encoding="utf-8"?>
<!-- Generator: Adobe Illustrator 17.0.0, SVG Export Plug-In . SVG Version: 6.00 Build 0)  -->
<!DOCTYPE svg PUBLIC "-//W3C//DTD SVG 1.1//EN" "http://www.w3.org/Graphics/SVG/1.1/DTD/svg11.dtd">
<svg version="1.1" id="Layer_1" xmlns="http://www.w3.org/2000/svg" xmlns:xlink="http://www.w3.org/1999/xlink" x="0px" y="0px"
	 width="977.951px" height="800px" viewBox="0 0 977.951 800" enable-background="new 0 0 977.951 800" xml:space="preserve">
<g>
	
		<linearGradient id="SVGID_1_" gradientUnits="userSpaceOnUse" x1="445.5496" y1="250.525" x2="1081.4677" y2="250.525" gradientTransform="matrix(1 0 0 -1 -263.055 629.36)">
		<stop  offset="0" style="stop-color:#D6BC9C"/>
		<stop  offset="0.028" style="stop-color:#CDB99A"/>
		<stop  offset="0.1134" style="stop-color:#B7B394"/>
		<stop  offset="0.2142" style="stop-color:#A6AF8F"/>
		<stop  offset="0.339" style="stop-color:#9BAB8C"/>
		<stop  offset="0.514" style="stop-color:#94AA8A"/>
		<stop  offset="1" style="stop-color:#92A98A"/>
	</linearGradient>
	<path fill="url(#SVGID_1_)" d="M818.409,631.622c0,3.841,0,7.681,0,11.521c-4.095-2.629-8.464-4.768-13.385-4.82
		c-14.021-0.145-28.044-0.051-42.558-0.051c-0.494,1.723,5.092,2.388,3.081,5.884c-2.433,1.194-4.537-0.198-6.046-1.574
		c-7.035-6.419-15.452-6.953-24.28-6.422c-5.105,0.306-10.303,0.853-15.33,0.233c-6.424-0.793-10.062,0.376-7.653,8.273
		c-16.339-7.856-30.868-8.005-43.716-1.051c-0.697,0.378-2.056,0.375-2.673-0.063c-14.031-9.963-29.359,1.829-43.728-2.581
		c-0.947-0.291-2.381,0.777-3.514,1.356c-3.142,1.61-5.889,0.916-9.089-0.427c-6.508-2.733-13.316-4.879-19.302,1.463
		c-1.714,1.817-3.437,0.81-5.182-0.065c-11.522-5.783-23.074-5.792-34.51,0.144c-2.14,1.111-3.481,0.228-5.229-0.647
		c-9.381-4.695-18.961-4.379-28.293-0.128c-2.361,1.076-3.71,0.918-6.017,0.122c-9.665-3.337-19.538-5.72-29.099,0.337
		c-2.716,1.721-3.877-0.75-5.806-1.293c-8.733-2.458-19.259-7.71-26.31-1.836c-8.574,7.142-8.158-5.661-13.222-3.702
		c-0.156,0.06-0.035-2.961,1.133-2.8c8.297,1.142,8.791-7.368,14.371-12.432c-1.792,13.886,7.609,11.652,14.409,12.687
		c4.326,0.658,10.097,3.589,10.873-4.49c1.171-12.182-1.781-17.694-9.741-17.998c-7.671-0.292-15.372-0.537-23.033-0.203
		c-8.364,0.365-9.316-3.537-6.512-9.999c4.292-9.89,11.237-17.281,21.869-19.908c10.858-2.682,21.926-4.195,33.244-4.054
		c10.178,0.127,19.352,2.983,25.966,10.396c7.241,8.115,13.742,12.337,23.269,3.538c1.866-1.724,5.364-1.866,8.176-2.348
		c12.079-2.074,24.185-1.883,36.33-0.376c18.753,2.328,20.738,4.49,20.719,23.544c-0.006,5.919-0.001,11.838-0.001,17.756
		c0.928-0.042,1.857-0.085,2.785-0.128c1.792-13.896,3.774-27.772,5.329-41.695c1.903-17.053,1.746-17.319-15.448-17.138
		c-52.186,0.55-104.187-1.896-155.892-9.256c-5.127-0.73-7.743,0.313-8.291,5.983c-1.78,18.382-3.913,36.729-5.876,54.782
		c3.067,1.536,5.186-3.966,7.215-0.025c1.418,2.752-0.6,4.911-3.074,6.114c-3.152,1.533-8.35,1.975-9.345,4.304
		c-5.084,11.913-13.815,6.125-21.746,5.696c-7.925-0.429-15.869,0.463-23.858,0.338c-10.687-0.167-22.413-4.538-31.754,4.725
		c-3.35-1.223,0.234-7.105-4.965-6.888c-10.832,0.452-21.758-0.949-32.48,1.602c-3.794,0.903-9.485,9.644-10.096-2.576
		c-0.023-0.468-3.452-1.151-5.268-1.081c-11.648,0.451-23.927-1.428-33.145,8.586c-1.061,1.153-2.728,1.822-4.345,0.901
		c-1.377-0.785-1.308-2.279-0.703-3.395c4.291-7.91-1.665-6.415-5.929-6.593c-3.514-0.147-7.117,0.013-10.513-0.73
		c-7.874-1.722-14.332-0.232-19.898,6.023c-2.171,2.441-4.871,5.886-9.188,4.53c-1.039-5.026,4.812-6.247,4.828-11.085
		c-8.826-0.751-17.33-1.623-25.855-2.153c-7.083-0.441-8.728-3.277-4.388-8.99c3.765-4.957,7.751-9.745,12.359-15.507
		c-3.227-0.569-4.783-0.756-6.294-1.128c-2.883-0.709-7.751,0.331-7.517-3.876c0.238-4.295,5.131-3.372,7.841-2.791
		c16.16,3.462,21.377-9.804,29.219-18.858c2.652-3.061,0.153-4.853-2.908-4.772c-11.178,0.294-22.735-5.723-34.529,3.554
		c1.599-7.634-1.795-15.093,9.424-15.918c4.572-0.337,10.415-5.76,10.32-11.239c-0.099-5.726-6.328-8.158-11.325-10.389
		c-0.286-0.128-0.626-0.128-0.931-0.22c-10.87-3.248-11.559-6.384-3.215-14.545c1.097-1.073,2.124-2.216,3.162-3.303
		c-1.424-3.322-6.068-1.448-6.854-5.605c2.151-2.551,5.451-2.277,8.475-2.36c5.556-0.152,10.479-0.768,10.162-8.184
		c-0.331-7.727-5.713-6.032-10.445-5.8c-2.784,0.136-8.195-0.67-7.634-1.443c4.973-6.858-5.441-13.239-0.064-19.885
		c2.031-2.509,2.193-6.439,0.79-9.258c-5.576-11.202,1.456-11.498,9.372-11.499c4.122-0.001,8.634,0.409,9.915-5.199
		c2.363-10.342,7.963-20.511,0.977-31.277c-1.038-1.6-0.74-4.439-0.314-6.555c3.227-16,6.812-31.848,14.748-46.428
		c5.534-10.166,13.732-17.832,10.152-33.174c-3.632-15.565,6.318-30.853,20.161-41.22c1.532-1.147,3.499-2.386,2.752-4.543
		c-0.896-2.586-3.252-0.973-4.976-1.002c-5.436-0.092-8.23-3.005-8.773-8.208c-0.564-5.403-1.352-10.821-1.364-16.233
		c-0.028-12.447,7.747-21.813,19.548-25.027c6.558-1.786,12.924-1.325,21.846,1.669c-14.029-10.624-12.248-33.219-1.925-43.157
		c9.301-8.954,32.333-8.361,37.641,0.674c1.59,2.707-0.164,10.067,5.774,7.031c4.766-2.436-0.925-6.451-2.05-9.706
		c-0.723-2.09-1.631-4.427-3.185-5.867c-9.293-8.613-6.068-17.542-1.235-26.761c3.341-6.373,8.825-9.554,15.554-9.264
		c8.757,0.378,18.319-0.302,23.971,8.854c0.655,1.061,1.253,2.337,1.328,3.546c0.29,4.707,0.107,8.453-6.686,5.694
		c-5.573-2.264-11.589-3.6-17.525-4.74c-3.413-0.655-7.374-0.885-9.575,2.879c2.46,3.166,6.602-0.073,8.864,3.288
		c-14.625,5.735-15.188,6.895-8.062,17.861c-0.731-4.889-4.175-11.079,2.273-11.403c5.284-0.266,2.586,5.89,3.082,9.337
		c0.103,0.72,1.043,1.319,1.64,2.025c4.128-2.395,2.991-5.949,3.166-9.419c0.427-8.467,5.793-11.532,12.625-6.899
		c5.313,3.602,11.699,3.284,17.205,6.673c-6.608-12.449,0.034-20.923,7.888-28.438c7.995-7.649,17.969-8.357,27.747-4.096
		c10.342,4.507,15.58,12.856,15.031,24.456c-0.474,10.019-3.508,18.696-11.834,25.084c-6.443,4.943,0.795,6.654,2.822,8.983
		c1.53,1.758,5.016,7.199,6.944,1.972c3.747-10.157,8.729-18.679,21.11-23.156c-15.347-5.282-17.337-9.235-12.852-22.213
		c1.696-4.908,2.585-9.794,2.895-14.965c0.423-7.061-1.948-10.673-9.484-11.232c-9.865-0.732-19.683-2.228-29.482-3.661
		c-3.732-0.546-8.636-1.203-8.901-5.755c-0.318-5.466,5.191-6.304,9.009-6.574c11.487-0.813,22.953-0.535,34.242,2.635
		c9.198,2.582,18.1,8.513,28.362,2.992c1.528-0.822,4.347,0.429,6.461,1.072c13.945,4.246,24.082,18.298,24.403,32.913
		c0.249,11.277-2.415,21.125-12.393,27.962c13.464,8.185,16.567,6.609,17.482-7.965c0.201-3.192,0.316-6.392,0.555-9.581
		c0.817-10.872,2.219-21.006,10.208-30.039c13.989-15.818,37.219-13.183,44.954,6.365c3.284,8.3,6.177,16.867,8.088,25.568
		c2.008,9.148,7.545,15.429,13.146,21.666c8.362-11.332,7.777-21.065-3.651-29.222c-2.414-1.723-2.865-4.349-1.007-6.76
		c9.413-12.215,19.109-24.117,35.401-27.493c-0.922,7.761,6.204,9.621,10.541,11.602c4.382,2.001,2.757-5.024,5.075-7.161
		c2.32-2.139,4.897-4.023,7.064-6.3c3.69-3.878,9.433-5.665,12.936-12.288c-13.405,3.861-22.726,13.459-35.491,14.033
		c9.538-8.185,20.917-13.265,32.145-18.424c6.236-2.865,10.834,2.058,15.294,5.629c4.496,3.6,0.445,6.989-0.657,10.273
		c-2.845,8.474-5.992,16.847-9.018,25.26c6.606-5.597,13.595-9.544,20.728-13.077c7.122-3.527,14.593-11.044,22.675-3.983
		c7.637,6.673,3.01,15.492,0.536,23.304c-1.8,5.685-3.841,11.21-1.598,18.092c10.495-22.374,36.914-25.745,49.976-7.276
		c7.892,11.158,5.34,22.057-6.702,29.964c-3.187,2.093-8.86,3.459-6.822,8.811c1.768,4.643,5.04,7.599,11.347,8.457
		c8.809,1.198,14.326-3.648,20.882-7.084c2.499-1.31,5.169-3.453,7.756-0.524c2.358,2.67,0.71,5.336-0.707,7.925
		c-7.348,13.41-6.573,14.784,8.635,15.75c0.474,0.03,0.9,0.786,1.96,1.773c-4.522,5.546-10.907,8.527-16.344,12.703
		c-3.908,3.002-8.556,6.504-6.942,12.434c1.42,5.217,6.159,5.464,10.865,5.907c15.574,1.461,25.234,11.32,24.64,27.371
		c-0.359,9.685,1.17,13.456,11.483,11.051c6.953-1.622,12.606,1.864,16.144,7.87c3.706,6.291,2.487,13.008-2.175,17.825
		c-9.673,9.994-7.776,24.067-8.7,34.871c-0.929,10.87,0.067,24.331,5.574,36.66c11.591,25.951,13.185,54.459,14.421,82.638
		c0.56,12.758,0.495,12.948,13.065,12.64c0,36.485,0,72.97,0,109.455c-11.009,1.317-22.3-3.634-35.047,1.375
		C796.394,617.137,804.832,628.33,818.409,631.622z M691.695,531.736c3.289-10.83-0.586-21.525-0.953-32.261
		c-0.367-10.776-2.799-21.515-4.776-32.188c-1.152-6.222-5.898-10.117-11.525-11.82c-5.057-1.53-6.406,4.21-9.378,6.769
		c-1.999,1.72-2.801,5.288-8.092,4.092c2.122-3.46,3.984-6.559,5.912-9.618c1.544-2.45,3.233-4.854,2.488-7.98
		c-1.852-7.765-3.24-15.69-5.751-23.238c-3.339-10.037-12.833-15.019-21.849-12.367c-5.333,1.569-8.159,4.125-6.143,10.486
		c2.9,9.151,4.564,18.567,3.268,28.328c-0.863,6.494,1.781,7.957,7.809,5.213c5.829-2.653,10.87-7.444,17.975-7.926
		c0.143,4.903-3.309,5.786-5.961,7.232c-3.927,2.141-8.033,3.954-11.945,6.118c-1.86,1.029-4.502,2.054-3.752,4.836
		c0.59,2.191,2.977,2.095,4.885,2.134c9.126,0.183,18.422,2.73,27.094-2.818c1.929-1.234,5.146-3.084,8.377,1.234
		c-6.923,3.565-13.268,8.852-20.859,8.187c-8.993-0.787-13.342,0.311-7.615,12.684c-6.724-6.797-11.261-11.384-15.799-15.97
		c2.234,8.295,8.554,13.339,13.039,19.727c1.125,1.602,3.884,5.102,1.467,5.268c-8.629,0.591-1.641,4.68-1.096,5.399
		c2.923,3.856,2.63,7.901,1.148,11.839c-1.901,5.049-4.583,9.8-6.595,14.813c-1.236,3.08-3.628,6.697,0.959,9.201
		c5.542,3.024,12.066,9.143,16.564,7.939c5.507-1.473,2.917-10.627,4.175-16.379c0.068-0.31,0.071-0.635,0.104-0.953
		c3.611-3.268,6.344-1.098,9.034,1.443C679.659,536.596,685.588,536.967,691.695,531.736z M653.619,317.064
		c-2.157-2.234-4.313-4.467-6.47-6.702c0.153-4.153,9.059-3.43,5.497-9.36c-2.458-4.093-5.991-8.381-10.561-9.129
		c-4.754-0.778-0.451,6.655-5.424,7.892c-1.787-5.443-6.805-3.507-11.681-4.334c5.795-1.956-0.98-9.167,5.661-10.757
		c2.444-0.585,7.206-1.326,5.127-5.034c-1.898-3.384-4.995,0.642-7.351,1.61c-12.178,5.006-29.245,1.518-32.953-8.679
		c-4.103-11.28-8.832-7.498-13.795-2.095c-7.701,8.384-16.859,8.944-26.126,4.833c-6.955-3.085-12.878-3.25-18.806,1.09
		c-5.059,3.704-8.274,1.788-10.727-2.943c-1.276-2.461-2.156-5.129-3.325-7.97c-15.263,15.214-33.813,10.157-51.503,9.566
		c-2.316-0.077-6.557-1.878-3.771-4.402c3.896-3.53,9.345-5.851,14.519-7.306c4.24-1.192,1.97,3.573,3.054,5.441
		c0.991,1.708,2.787,2.568,3.728,1.018c2.792-4.596,6.551-9.197,6.433-14.674c-0.079-3.651-3.48-6.754-7.39-7.49
		c-7.242-1.363-5.413-4.824-2.149-8.4c5.58-6.114,11.381-12.051,20.67-12.426c-7.274-2.695-13.259,0.893-19.529,2.918
		c-2.001,0.646-4.658,1.995-5.524-1.188c-0.613-2.255,1.759-3.572,3.489-3.809c6.306-0.864,11.979-4.641,18.626-3.855
		c6.088,0.72,12.085-3.989,18.772,0.598c1.317,0.904,6.874-8.085,13.294-8.744c1.682-0.173,2.14-4.554,5.061-2.747
		c2.214,1.37,1.592,3.917,1.163,6.16c-0.396,2.071-2.138,4.075-0.222,6.607c6.191-2.207,11.794-0.908,17.586,3.195
		c-3.24,2.305-5.825,1.253-8.283,1.287c-15.552,0.216-20.133,5.438-17.601,20.266c0.861,5.041,2.234,10.003,2.915,15.063
		c0.93,6.912,3.325,5.043,7.131,1.907c4.555-3.755,3.833-11.261,10.842-13.395c7.255-2.209,9.37-8.397,10.486-15.638
		c1.841-11.944-3.485-21.062-9.806-30.083c-1.411-2.015-3.381-3.085-5.783-2.541c-10.148,2.296-21.179,1.905-29.57,9.626
		c-3.928,3.615-8.974,4.318-11.722-0.052c-5.436-8.647-13.03-3.898-19.79-4.705c-8.185-0.976-2.119,12.982-11.375,10.508
		c-0.553,13.253-10.293,17.793-20.921,21.756c1.497,0.529,2.719,0.265,3.864,0.46c2.627,0.445,6.894-0.146,5.925,4.095
		c-0.799,3.497-4.279,1.084-6.6,0.95c-1.266-0.073-2.594-0.676-3.769-0.435c-6.504,1.338-11.713,4.652-14.573,10.829
		c-0.513,1.107,16.948,15.841,18.358,15.839c2.32-1.337,1.989-5.671,5.956-5.142c-2.723,20.394-0.298,22.595,20.385,20.684
		c14.884-1.376,29.845-1.897,44.762-2.94c4.17-0.292,6.947,0.908,7.425,5.364c0.409,3.806-1.223,6.015-5.215,6.498
		c-9.507,1.151-18.967,3.065-28.501,3.532c-16.997,0.831-32.953-2.218-46.608-13.809c-3.064-2.601-7.657-9.249-12.824-2.869
		c-9.403,11.608-22.947,6.76-34.541,9.478c-2.903,0.681-5.507-1.532-6.085-4.901c-1.21-7.051-7.045-9.167-12.3-12.293
		c-7.726-4.594-15.726-0.189-23.301-1.563c-6.815-1.237-11.726,2.13-16.413,5.116c-2.476,1.578-8.111,5.475-5.818,8.563
		c4.461,6.009-0.748,9.458-1.598,14l0.128-0.13c-4.559,7-21.752,6.07-13.345,21.24c0.096,0.173-0.132,0.687-0.351,0.85
		c-6.334,4.702-2.07,9.186-0.033,14.053c7.043,16.829,0.89,27.554-17.057,30.328c-1.86,0.288-3.693,0.745-7.016,1.426
		c11.947,2.069,24.268-3.344,32.244,9.419c-8.843,0-17.248,0-25.653,0c5.346,1.604,10.698,2.12,16.052,2.614
		c4.93,0.455,10.28-0.525,16.262,4.102c-10.96,2.32-19.721-0.838-28.464,0.443c9.833,3.117,20.671-0.329,31.026,3.734
		c-2.54,3.39-5.273,1.972-7.173,3.043c3.608,1.31,8.198-1.321,11.423,2.875c-2.897,3.389-6.602,0.611-9.409,2.302
		c3.234,2.657,8.177-0.905,11.182,3.06c-2.658,2.599-6.77-0.29-9.433,3.79c8.831,0.23,3.299,7.432,5.663,11.254
		c10.788-12.062,23.756-14.648,35.043-7.298c6.723,4.378,8.702,18.233,4.787,29.649c-2.015,5.875-2.85,12.058,3.641,16.27
		c1.624,1.053,3.526,2.128,5.233,0.515c1.964-1.855,0.363-3.45-0.947-4.872c-4.807-5.213-4.633-10.961-1.621-16.853
		c3.344-6.541,7.02-12.913,10.311-19.48c1.946-3.883,4.613-6.85,8.478-8.795c11.255-5.664,21.257-0.412,27.284,14.399
		c2.107,5.179,2.589,11.167,7.022,15.127c3.321-1.154,3.473-4.17,5.081-6.046c1.463-1.708,2.946-3.999,5.365-3.399
		c2.821,0.699,3.503,3.28,3.355,6.097c-0.501,9.569,6.936,9.18,12.57,8.597c6.033-0.625,16.262-1.738,15.716-7.834
		c-0.96-10.729,6.405-9.941,11.623-12.287c12.71-5.714,24.612-3.595,34.105,6.391c3.416,3.593,4.909,3.618,7.948-0.136
		c4.005-4.945,8.658-9.382,13.196-13.872c3.869-3.827,8.738-6.114,13.944-3.964c5.129,2.119,8.075-0.132,10.543-3.682
		c5.427-7.806,12.15-7.9,20.173-4.575c4.631,1.919,9.656,7.847,14.727,0.244c0.223-0.334,2.926,0.16,3.309,0.885
		c4.852,9.172,12.242,6.484,20.231,5.645c12.102-1.272,18.827,7.299,24.414,18.592c0.123-9.254-5.653-14.399-7.651-21.016
		c-2.415-7.999-0.1-12.547,7.196-13.104c16.273-1.24,32.862,9.802,38.695,22.204c4.985,10.6,11.916,12.816,22.122,12.35
		c-0.428-6.348-1.665-12.602,0.607-18.259c6.729-16.758-0.28-32.082-7.813-45.251c-5.543-9.691-8.969-14.546,2.283-20.795
		c3.105-1.725,3.421-5.917,3.422-9.526c-10.948,1.501-7.929-10.337-13.409-14.121c-1.278-0.883-2.343-2.937-3.915-1.797
		c-5.83,4.232-9.06,1.092-12.284-3.577c-1.525-2.209-4.301-3.389-6.812-2.014c-2.978,1.63-0.39,3.917,0.165,5.815
		c1.355,4.629,1.229,8.945-2.526,12.402c-4.001,3.684-8.67,3.372-13.519,1.899C664.477,327.999,659.432,322.012,653.619,317.064z
		 M746.54,533.766c-1.583-4.495-3.401-6.632-8.021-4.902c-6.604,2.474-7.272-1.861-6.232-6.576
		c2.324-10.538,11.971-17.077,23.14-16.463c3.857,0.212,7.255,1.363,10.866,2.565c4.756,1.583,8.922,1.175,11.576-5.161
		c5.189-12.389,5.816-25.514,7.288-38.401c0.703-6.152-5.452-10.644-10.459-13.89c-3.978-2.578-14.971,4.073-14.704,8.213
		c0.883,13.73,0.888,13.747-12.392,17.435c-3.694,1.025-7.501,1.688-11.117,2.926c-3.233,1.107-6.272,2.777-9.397,4.199
		c17.429-3.689,31.971,0.821,46.931,10.528c-2.315,1.043-2.916,1.569-3.434,1.498c-1.563-0.215-3.262-0.347-4.611-1.067
		c-17.619-9.387-34.443-5.437-51.259,2.528c-6.433,3.047-10.08,6.801-6.843,14.102c2.438,5.499,2.102,11.038,1.48,16.861
		c-1.035,9.69-5.275,18.958-3.346,29.089c0.687,3.608-2.279,6.491-4.827,8.986c-2.646,2.593-5.372,5.103-8.27,7.846
		c3.54,2.046,6.222,0.242,8.968-0.075c2.205-0.255,4.969-1.311,6.396,0.527c2.275,2.929-1.387,3.285-2.764,4.67
		c-1.793,1.804-0.449,2.978,1.249,3.39c5.438,1.319,7.814-1.252,7.47-6.532c-0.633-9.702,4.789-17.581,7.73-26.201
		c1.151-3.372,3.933-2.522,6.45-2.068c12.348,2.226,17.74,11.454,21.543,21.936c1.857,5.118,7.249,11.03-3.476,15.474
		c10.856-0.934,18.306-10.868,19.919-24.209c-3.833-1.078-7.472,4.822-11.396,0.379c-10.83-12.264-24.32-21.642-35.909-33.074
		c-1.608-1.587-4.593-3.884-1.779-6.351c1.98-1.735,4.09,0.519,5.669,2.094C729.259,530.314,736.15,535.138,746.54,533.766z
		 M293.532,432.016c0.048,9.221-0.777,14.938-9.3,11.938c-1.711-0.603-3.222,0.319-4.148,1.708
		c-5.351,8.026-10.635,16.241-9.967,26.377c0.288,4.369,1.151,9.287,7.54,11.843c-0.853-9.74,0.229-18.113,4.342-25.916
		c1.948-3.696,3.931-8.789,8.571-6.995c3.846,1.487,2.294,6.791,1.593,10.444c-1.703,8.866-3.714,17.673-5.773,27.313
		c14.803-10.005,12.522-25.926,16.162-40.896c4.424,13.505-1.968,46.283-9.645,54.573c-1.863,2.012-3.414,2.831-5.393,0.288
		c-1.303-1.674-1.542-5.964-5.16-2.652c-3.085,2.823-0.675,5.196,1.284,7.333c6.328,6.903,11.07,2.33,16.215-2.001
		c8.366-7.043,11.943-6.357,16.522,2.958c-1.856-0.599-3.391-0.988-4.84-1.584c-2.644-1.088-5.393-1.31-6.639,1.561
		c-1.458,3.358,1.954,4.195,3.96,5.454c5.805,3.645,18.838-2.062,20.969-9.018c0.568-1.853,0.097-3.206-1.477-4.042
		c-2.224-1.18-2.667,0.488-2.998,2.144c-0.374,1.87-0.619,4.38-3.174,3.757c-2.423-0.591-3.121-2.935-2.7-5.44
		c1.974-11.758,0.474-23.633,1.185-35.431c0.314-5.211-0.203-10.668,3.839-17.615c2.337,13.922-1.389,25.944,2.458,37.532
		c1.761-12.711,3.858-24.825,11.213-35.997c3.849-5.847-3.114-8.844-7.951-7.171C316.512,447.225,304.486,446.369,293.532,432.016z
		 M425.675,621.122c1.608-16.039,3.48-31.217,4.555-46.451c0.98-13.894,0.589-14.397-13.044-16.981
		c-37.903-7.182-75.839-14.195-113.842-20.822c-5.843-1.019-11.831-7.602-16.881-3.47c-4.75,3.888-3.155,11.95-4.457,18.139
		c-2.716,12.921-4.952,25.943-7.659,40.382c7.5-3.451,5.363-8.966,5.968-13.164c1.86-12.891,3.683-25.575,18.02-31.289
		c18.493-7.371,39.567-1.751,51.222,14.396c3.144,4.357,5.626,5.262,10.072,2.287c9.144-6.121,19.369-7.36,30.217-6.909
		c20.982,0.87,32.247,12.905,30.954,33.813c-0.433,7.002-0.719,14.017-0.883,21.029
		C419.837,615.578,419.861,619.249,425.675,621.122z M601.81,544.217c-3.117,0.983-4.236-2.2-6.426-3.142
		c-2.241-0.963-4.844-1.377-5.972,0.932c-1.588,3.252,2.003,3.344,3.698,4.231c9.73,5.093,17.103,0.324,17.326-11.486
		c0.264-14.041,0.006-28.091,0.16-42.135c0.099-9.089,3.278-17.108,8.44-24.44c1.333,4.772,1.7,9.143,1.941,13.413
		c0.242,4.302-1.043,8.762,0.094,13.142c0.884,3.407-1.691,10.821-4.732,13.944c-1.753,1.801-0.754,4.235-0.689,6.387
		c0.054,1.782,0.967,2.893,2.977,2.988c5.423,0.259,15.451-8.848,14.58-13.941c-2.04-11.937-4.519-23.801-6.971-35.663
		c-0.881-4.261-3.337-7.585-8.068-5.354c-11.856,5.591-22.632,3.329-33.497-3.711c6.838,12.598,6.915,26.392,9.343,40.034
		c2.681-4.885-0.449-10.973,5.412-16.482c0.431,10.7-1.003,19.394-2.546,28.095c-1.794,10.116-6.241,20.659,4.66,28.827
		C602.568,540.628,603.226,542.62,601.81,544.217z M376.447,524.485c8.121-2.357,10.257-7.215,14.155-9.88
		c1.624-1.11,3.267-2.284,5.143-0.67c1.501,1.291,1.247,2.803,0.005,4.174c-1.324,1.463-1.69,2.803,0.516,3.673
		c2.152,0.85,3.999,0.2,4.504-2.074c0.968-4.359,1.296-8.872,2.422-13.181c2.013-7.709-0.063-16.396,5.73-23.28
		c-0.378,15.159-0.859,30.253-4.122,46.032c11.622-5.589,18.907-11.745,18.221-25.613c-0.577-11.673,2.199-23.49,12.755-31.642
		c3.133-2.419,6.27-6.066,3.096-10.768c-2.809-4.161-6.508-2.923-10.27-1.502c-7.814,2.951-15.499,2.634-23.805-2.216
		c1.911,6.242,2.017,11.312,0.055,16.592c-2.608,7.018-8.607,12.087-10.396,19.531C391.795,504.739,384.812,513.593,376.447,524.485
		z M542.442,551.207c-7.8-5.754-4.625-10.535-0.541-15.986c3.747-5,10.052-8.452,10.642-15.486
		c1.076-12.809-0.932-25.519-1.661-38.269c-0.122-2.143-0.059-4.744-3.786-3.819c-5.698,1.415-13.006,12.24-13.234,18.459
		c-0.359,9.767-0.805,19.629-2.514,29.219c-1.421,7.971-13.191,13.505-25.091,12.961c-1.477-0.067-3.148-1.529-4.044,0.533
		c-0.738,1.698,0.43,3.058,1.929,3.861c7.01,3.755,25.613-1.938,29.354-9.075c1.925-3.673,3.471-7.542,5.272-11.282
		c1.582-3.284,4.635-3.949,7.231-2.244c3.898,2.559-0.31,3.866-1.467,5.668c-2.067,3.219-4.363,6.365-5.898,9.836
		c-3.272,7.395-6.785,13.968-16.729,11.967c-7.692-1.549-15.119,3.582-23.399-0.554c-11.156-5.571-22.439-14.221-36.291-6.159
		c-1.329,0.773-3.709-0.231-5.596-0.453c-3.27-0.384-6.321-0.17-8.613,2.944C478.72,553.542,510.514,549.252,542.442,551.207z
		 M269.229,585.94c2.31-1.513,2.554-3.835,2.911-5.951c2.383-14.149,4.339-28.379,7.116-42.448c1.305-6.615-0.63-10.064-6.709-12.58
		c-13.595-5.628-26.196-12.987-38.208-21.627c-9.47-6.813-17.158-15.235-25.121-25.83c-2.1,22.44,1.757,42.499-0.35,62.544
		c-0.308,2.935,0.881,5.52,4.127,5.718c0-9.182-0.098-18.054,0.036-26.922c0.082-5.387-0.501-11.778,5.366-14.302
		c5.608-2.413,10.32,1.742,14.633,5.062c2.013,1.549,3.871,3.346,5.588,5.223c2.691,2.942,5.71,4.504,9.861,5.053
		c10.802,1.43,16.99,8.396,17.435,19.32c0.441,10.847,0.163,21.697-1.399,32.484C263.723,577.158,263.807,582.453,269.229,585.94z
		 M616.301,629.787c-0.429,1.843-1.09,4.08,1.048,5.084c2.556,1.201,4.265-0.807,5.583-2.552c1.997-2.641,2.13-5.914,2.558-9.101
		c1.188-8.856,2.777-17.662,3.797-26.535c0.898-7.812,5.393-11.841,12.572-13.804c12.007-3.284,23.944-6.824,35.968-10.042
		c6.06-1.622,10.291-4.883,12.043-11.066c0.517-1.826,1.686-3.812,0.12-5.38c-1.712-1.714-3.635-0.134-5.251,0.644
		c-16.479,7.93-34.403,9.596-52.148,11.56c-7.25,0.802-10.112,4.034-10.803,10.693C620.041,596.129,618.141,612.955,616.301,629.787
		z M533.367,434.994c-9.002,14.74-5.347,28.763-5.974,42.312c-0.128,2.78,1.079,5.567,4.478,4.603
		c5.379-1.527,9.921-5.158,12.715-9.672c2.721-4.396-1.878-7.477-4.586-10.473c-1.898-2.1-3.292-4.891-6.277-5.718
		c-6.122-1.694-4.025-4.367-0.157-5.366c7.642-1.974,6.478-6.528,4.47-11.729c-1.035-2.681-1.976-5.43-3.323-7.954
		c-3.61-6.763-15.714-11.083-24.373-9.56c-9.316,1.638-5.541,9.302-7.233,14.442c-0.712,2.163-1.323,4.841,1.391,5.792
		c2.852,0.999,2.296-2.042,3.171-3.512c1.509-2.534,3.541-1.041,4.655,0.32c3.632,4.438,7.05,9.08,7.135,15.218
		c0.153,10.975-4.403,21.711-1.21,32.947c0.771,2.714,0.484,6.872-1.94,9.318c-2.462,2.484-0.183,3.36,1.035,4.149
		c2.077,1.346,3.82,0.246,4.313-1.974c0.48-2.157,0.502-4.438,0.542-6.668c0.255-14.067,0.386-28.137,0.717-42.201
		C523.053,443.414,524.206,437.963,533.367,434.994z M799.004,489.122c-0.242-4.259-0.417-11.293-1.149-18.269
		c-0.287-2.734-1.382-6.247-5.124-5.76c-3.315,0.432-2.668,3.86-2.978,6.267c-1.832,14.242-3.475,28.509-5.446,42.732
		c-1.379,9.951-5.012,12.257-13.748,9.034c-5.206-1.921-10.55-2.395-16.012-2.386c-3.035,0.005-5.028,0.839-4.324,4.468
		c1.107,5.712,19.214,16.376,24.736,14.253c7.878-3.029,13.916-7.773,18.878-15.243C800.77,513.781,799.097,502.916,799.004,489.122
		z M706.057,444.232c6.264-0.228,9.043,2.878,11.897,5.824c2.458,2.537,4.886,5.159,8.583,5.794
		c14.34,2.465,27.146-1.069,38.596-9.923c1.659-1.283,2.764-2.226,1.318-4.639c-4.813-8.031-23.2-12.671-31.26-7.663
		c0.701,1.919,2.463,1.59,3.949,1.918c2.398,0.528,6.909-1.297,5.984,3.396c-0.664,3.37-4.572,2.654-7.417,2.232
		c-4.954-0.734-8.819-4.131-13.194-6.515c-1.276,4.017,2.478,8.542-2.944,10.618c-4.152-10.598-9.319-17.146-13.418-15.839
		c-7.141,2.278-6.886,10.12-9.724,15.515c-2.192,4.167,2.068,5.225,5.151,6.101c2.243,0.638,4.407,2.693,7.287,0.554
		C709.469,449.464,708.137,447.421,706.057,444.232z M397.529,236.784c-4.087-20.196-5.291-21.349-22.307-23.027
		c-6.351-0.627-17.378,7.801-18.512,14.148c-2.917,16.325,10.936,36.436,27.496,39.949c3.252,0.69,6.295,1.462,7.565-3.115
		c1.04-3.751,0.054-6.145-3.438-7.749c-5.739-2.636-11.508-5.061-19.82-3.303c11.669-11.977,0.789-24.17,3.231-36.578
		c5.088,3.501,2.926,11.323,5.763,11.294c10.084-0.105,9.299,9.808,14.631,14.662c0.289-9.331-6.514-15.48-6.42-24.191
		C389.311,224.323,392.904,229.772,397.529,236.784z M728.143,610.454c18.61,25.752,45.963,17.363,71.991,20.837
		C779.99,605.221,754.915,604.862,728.143,610.454z M575.635,502.863c2.038,7.241-0.994,11.124-3.544,15.076
		c-3.279,5.082-6.854,9.975-10.045,15.108c-1.098,1.766-3.363,3.742-1.891,6.013c1.671,2.576,4.818,1.733,7.051,1.13
		c7.787-2.105,11.401-8.645,12.029-15.597c0.969-10.74,1.274-21.78-0.098-32.441c-2.877-22.358-7.938-26.335-27.739-23.764
		c13.425,1.209,11.415,11.202,12.015,19.521c0.366,5.076,0.279,10.205,0.074,15.298c-0.23,5.718-0.825,11.422-1.346,18.246
		C568.552,515.957,571.309,509.808,575.635,502.863z M311.206,293.845c2.359-3.526,0.858-7.254,0.449-11.003
		c-0.391-3.586-2.173-7.866,2.869-10.665c1.182,5.493-0.091,10.711,3.585,15.761c1.979-8.322-1.01-15.656-0.253-23.669
		c4.238,3.729,3.552,8.28,4.944,12.054c0.891,2.418,0.327,6.637,4.881,5.199c3.676-1.162,3.009-4.433,2.26-7.272
		c-2.977-11.284-8.9-21.088-15.613-30.455c-1.342-1.872-3.79-3.485-5.801-2.534c-7.282,3.44-15.374,2.513-24.405,4.36
		c4.322,3.473,7.251,8.833,9.7,9.192c8.582,1.26,8.508,0.515,11.165,8.122C308.483,272.936,308.308,283.57,311.206,293.845z
		 M569.433,214.184c4.375,3.964,11.403,2.739,8.31,9.048c-2.053,4.187,1.041,8.145-0.198,12.144
		c-0.552,1.781,0.214,4.17,1.604,3.336c6.184-3.71,16.051,1.048,19.445-9.792c2.331-7.444,6.625-14.901,17.861-18.497
		c-10.135,13.496,3.251,15.049,7.532,20.257c-0.948,4.224-6.566,0.013-6.354,4.756c0.095,2.138,1.653,2.588,3.436,2.053
		c3.34-1.002,5.81-2.954,5.519-6.789c-0.613-8.06-3.044-15.643-6.71-22.808c-1.791-3.5-4.823-4.51-7.902-1.987
		C600.063,215.666,586.628,218.697,569.433,214.184z M459.977,216.229c1.609-5.643,1.671-5.55,10.012-11.116
		c1.663-1.11,1.726-3.393,0.648-5.254c-1.526-2.637-4.285-3.714-6.787-5.12c-7.796-4.385-15.978,1.617-23.496-0.603
		c-8.707-2.571-10.267,10.012-18.319,7.424c-1.062,3.52-0.896,7.013,0.865,10.214c1.104,2.006,3.346,4.013,5.38,3.224
		c2.957-1.146,1.14-4.522,1.622-6.886c0.253-1.242,0.118-2.559,0.32-3.815c0.268-1.657,0.98-3.217,2.955-3.047
		c2.319,0.2,1.905,2.134,1.822,3.671c-0.206,3.825-0.518,7.644-0.715,11.469c-0.135,2.623-1.88,6.618,2.838,6.328
		c3.182-0.195,4.322-3.327,3.698-6.665c-0.293-1.565-2.472-3.328,0.676-5.059c2.204,3.15,4.407,6.301,7.426,10.617
		c-1.085-4.154-1.763-6.753-2.442-9.353c0.545-0.211,1.09-0.423,1.635-0.633c2.218,4.615,4.437,9.231,7.366,15.326
		c0.832-11.042-4.214-19.48-3.994-30.242C457.325,202.707,456.881,209.61,459.977,216.229z M461.301,484.523
		c-0.793,5.605-1.555,11.214-2.387,16.813c-1.235,8.323-1.035,16.574,1.088,24.744c0.568,2.187,1.093,4.654,3.692,5.099
		c3.087,0.529,5.058-1.866,5.61-4.22c1.013-4.323,3.776-9.158-2.476-12.493c-5.305-2.83-5.612-7.968-4.763-13.378
		c1.115-7.106,4.695-13.195,7.584-19.588c0.984-2.175,2.714-4.546-1.492-5.993c-8.046-2.768-14.611-0.141-17.756,8.013
		c-3.274,8.488-6.275,17.083-9.3,25.664c-0.648,1.839-1.019,4.412,1.631,4.576c3.876,0.24,5.464,4.269,9.593,4.902
		C454.03,506.922,451.861,494.387,461.301,484.523z M685.27,298.412c-3.225-3.553-1.488-11.033-8.45-9.151
		c-4.957,1.34-3.616,6.167-3.438,9.839c0.193,3.978,2.92,5.138,6.599,5.332c7.65,0.404,14.561-0.785,20.191-6.687
		c2.447-2.566,4.711-6.524,9.581-3.879c3.211,1.744,2.766-1.692,3.272-2.925c2.742-6.683,7.059-12.119,12.463-16.779
		c3.176-2.739,5.268-5.65,1.802-9.677c-5.434,6.272-18.101,11.751-25.547,11.57c-3.206-0.078-6.001,1.37-6.954,4.41
		c1.911,3.469,6.828,1.759,7.612,5.911C691.802,286.675,691.802,286.675,685.27,298.412z M289.198,281.872
		c-1.089-0.634-1.866-1.076-2.634-1.534c-1.934-1.153-5.631,1.866-6.151-2.36c-0.346-2.811,0.479-5.186,4.229-4.672
		c0.351,0.048,1.211-0.812,1.147-0.963c-2.885-6.924-5.442-13.933-6.772-21.364c-0.108-0.606-2.599-1.577-3.133-1.193
		c-6.048,4.338-15.297,6.727-15.668,15.228c-0.241,5.534-2.222,8.575-6.701,11.767c2.138,0.946,3.336,1.993,4.355,1.841
		c6.242-0.926,10.381-1.126,3.998,6.269c-2.627,3.044-0.5,5.573,2.994,5.971c3.866,0.441,7.95,1.027,11.944-1.198
		c-2.652-2.738-7.017,1.302-8.631-3.829C275.047,284.077,282.805,287.037,289.198,281.872z M320.109,422.072
		c9.593,0.164,17.376-6.021,17.358-13.792c-0.018-7.749-9.13-14.185-20.499-14.479c-9.091-0.235-14.599,4.459-14.584,12.428
		C302.401,415.517,309.532,421.891,320.109,422.072z M488.404,176.16c2.504-14.133,16.831-19.877,22.751-34.703
		c8.426,9.125,16.539,17.195,23.804,25.966c8.328,10.055,6.821,16.718-4.223,23.307c-3.79,2.261-7.79,4.326-8.902,9.255
		c6.697-3.336,12.545-7.628,18.405-11.904c2.658-1.939,3.554-4.754,2.746-7.657c-3.337-11.982-5.68-24.434-12.518-35.058
		c-6.772-10.521-21.681-11.098-28.219-0.593c-3.854,6.193-8.94,11.523-12.095,18.183
		C488.206,167.065,486.312,170.985,488.404,176.16z M738.302,628.735c-15.164-21.545-36.708-19.77-57.447-18.907
		c3.739,4.349,7.386,9.097,11.575,13.308c3.542,3.562,7.145,7.757,12.842,7.52C716.054,630.208,726.822,629.423,738.302,628.735z
		 M333.966,630.94c10.453,3.018,18.36-2.438,23.001-14.209c1.787-4.532,0.772-6.828-4.03-7.025
		c-6.697-0.274-13.406-0.441-20.106-0.369c-6.661,0.072-18.403,11.601-16.742,17.75c2.122,7.853,9.706,2.231,14.577,3.841
		C330.955,631.022,331.301,630.94,333.966,630.94z M265.003,605.719c-14.661-3.115-21.105,7.753-28.701,16.601
		c-1.413,1.646-1.641,3.239,0.599,4.685c7.257,4.685,30.555,0.581,35.397-6.578c2.601-3.844,8.282-7.971,6.531-11.861
		C276.635,603.695,269.764,606.076,265.003,605.719z M509.589,190.673c3.48-3.166-3.357-5.747,0.48-7.873
		c1.961-1.086,5.292-1.238,7.33-0.319c3.933,1.774-2.443,4.954,0.451,7.354c10.975-2.569,13.834-8.051,10.678-22.113
		c-3.26,5.48-7.669,5.274-11.425,2.158c-3.619-3.002-0.577-5.53,1.908-7.727c1.415-1.252,1.442-2.762,0.13-4.165
		c-1.377-1.472-2.909-2.304-5.084-1.606c-6.873,2.206-14.559,3.033-15.832,12.592C496.985,178.283,500.945,186.37,509.589,190.673z
		 M694.766,166.3c-0.105,5.824,9.759,1.028,7.001,8.023c-1.635,4.148-5.766,4.487-9.835,3.745c-4.56-0.832-8.839-7.776-10.647-6.316
		c-5.634,4.549,5.837,6.641,3.247,11.386c-3.37,6.175-0.112,12.438-1.023,18.28c-1.029,6.592,1.616,5.868,5.679,5.347
		c3.078-0.395,5.4-1.624,6.272-4.917c1.188-4.485,2.832-6.813,6.341-1.334c1.512,2.359,3.491,0.697,4.838-0.436
		c1.765-1.483,0.622-2.924-0.852-3.786c-2.963-1.734-6.77-2.683-4.328-7.646c1.692-3.44,2.926-6.94,6.717-8.881
		c7.165-3.669,7.278-6.368,0.279-10.395C704.39,167.03,700.017,164.94,694.766,166.3z M234.998,598.833
		c7.985,1.598,16.206-1.16,20.872-11.022c1.89-3.995,2.582-8.223-2.468-10.628c-7.424-3.535-22.344-0.214-27.97,6.438
		c-3.416,4.038-10.445,8.546-8.453,12.769C219.362,601.442,227.174,598.989,234.998,598.833z M347.245,602.65
		c0-0.021,0-0.042,0-0.062c3.493,0,6.993,0.154,10.475-0.035c5.799-0.316,15.282-10.037,14.678-16.281
		c-0.767-7.933-8.046-3.542-12.223-4.878c-3.795-1.213-8.197-0.998-12.283-0.718c-5.585,0.383-17.53,12.946-16.07,18.126
		c2.177,7.725,9.61,2.335,14.475,3.836C346.586,602.727,346.928,602.65,347.245,602.65z M225.973,605.545
		c-5.758,0-9.912-0.3-14.004,0.077c-5.071,0.466-19.523,12.301-18.188,15.149c3.425,7.309,11.023,3.165,16.67,4.635
		c1.803,0.47,3.792,0.232,5.696,0.306c5.973,0.232,11.613-0.613,14.902-6.353c2.468-4.306,9.453-7.896,7.417-12.283
		C236.283,602.372,229.145,606.54,225.973,605.545z M291.519,629.158c15.819,0.338,21.187-2.918,24.891-14.678
		c0.764-2.425,1.827-4.905-1.366-6.635c-6.471-3.505-25.618,0.267-29.803,6.263c-2.851,4.085-8.99,8.298-7.045,12.719
		C280.359,631.742,287.49,628,291.519,629.158z M370.445,633.071c5.097,0,8.606,0.118,12.103-0.026
		c6.828-0.28,7.429-6.082,9.047-10.737c1.101-3.166,3.552-6.653,0.768-9.895c-3.891-4.531-26.972-1.225-29.552,4.436
		c-2.038,4.469-7.482,8.821-4.901,13.761C360.706,635.965,367.254,632.303,370.445,633.071z M590.374,168.279
		c-5.941-1.174-10.273-2.235-14.669-2.826c-2.994-0.403-6.65-1.987-8.728,1.569c-1.676,2.868,0.22,5.622,1.855,7.921
		c2.036,2.862,4.314,5.79,8.645,4.069c5.794-2.302,10.156-2.896,7.032,5.78c-0.252,0.699,0.466,1.789,0.822,2.661
		c4.619,11.315,4.371,11.72-7.584,10.909c-1.829-0.124-3.243,0.228-3.97,1.808c-0.892,1.941,0.745,2.803,2.049,3.696
		c8.115,5.555,24.241,0.748,28.335-8.283c1.117-2.461-0.079-3.909-1.741-4.644c-7.463-3.299-9.032-12.041-15.741-16.328
		C581.349,171.206,587.381,170.61,590.374,168.279z M690.844,630.237c-17.555-19.732-22.81-22.382-39.244-21.199
		c-5.739,0.413-6.493,2.073-3.552,6.984C658.296,633.142,667.123,636.308,690.844,630.237z M753.799,410.132
		c0.003-0.071,0.007-0.14,0.01-0.211c0.319,0.016,0.638,0.044,0.957,0.048c10.366,0.132,10.358,0.134,7.876-9.185
		c-0.154-0.578-0.263-1.63,0.008-1.792c6.426-3.839,0.699-8.508-0.914-9.806c-4.273-3.439-5.612-7.438-5.949-12.336
		c-0.19-2.763-1.893-4.661-3.684-6.519c-1.701-1.764-3.744-3.182-5.712-0.877c-2.742,3.211,1.221,3.041,2.427,4.476
		c2.891,3.436,7.736,10.461,3.239,11.398c-8.121,1.693-5.929,6.209-6.446,10.612c-0.254,2.162,0.143,4.794-2.99,5.133
		c-2.425,0.263-5.82-0.73-5.498,3.231c0.268,3.29,3.527,4.631,6.232,5.208C746.729,410.228,750.309,409.969,753.799,410.132z
		 M461.31,170.734c3.385-1.644,8.29-2.05,5.321-7.591c-2.04-3.806,1.834-6.783,3.092-11.286c-5.716,1.751-10.369,2.572-15.151,2.472
		c-3.556-0.074-6.247,1.461-6.984,5.2c-1.469,7.452-2.767,14.938-4.222,22.393c-0.524,2.685-0.628,5.226,2.156,6.627
		c0.986,0.496,3.096,0.646,3.499,0.089c1.815-2.502-3.885-3.352-2.067-5.707c4.554-2.429,15.355,8.907,12.741-6.717
		c-0.042-0.255,2.672-1.052,4.138-1.458c2.226-0.617,4.609,2.797,6.957-0.248C468.484,171.435,464.392,174.558,461.31,170.734z
		 M308.59,601.981c12.308,0.142,20.767-6.258,24.036-17.475c0.682-2.339,0.373-3.311-2.005-4.128
		c-9.906-3.403-21.44-0.304-27.622,8.24c-2.496,3.449-8.046,6.744-6.134,10.999C298.861,604.056,304.908,601.308,308.59,601.981z
		 M253.974,362.855c2.417-0.412,2.623,2.258,3.947,3.335c9.485,7.716,11.87,7.597,20.21-2.036c1.036-1.197,2.047-2.433,2.914-3.753
		c1.794-2.734,0.997-5.031-1.843-6.186c-8.547-3.477-17.251-6.828-26.691-5.781c-5.268,0.584-8.748,3.184-4.324,8.809
		c2.412,3.067,2.107,6.496,2.352,9.941c0.058,0.814,0.529,1.598,0.86,2.536C254.282,367.908,251.177,364.439,253.974,362.855z
		 M254.282,483.167c8.404-3.116,10.503-2.711,10.003,0.953c-0.253,1.853-4.593,2.711-1.536,5.344
		c1.372,1.181,3.102,0.122,4.39-0.791c2.335-1.655,1.43-3.79,0.816-6.007c-4.994-18.069,3.216-40.795,18.8-52.114
		c1.268-0.92,3.1-1.413,2.552-3.44c-0.464-1.716-1.913-2.578-3.663-2.373c-6.529,0.768-13.003,0.57-16.233,8.762
		C263.207,449.232,259.9,465.711,254.282,483.167z M752.398,322.479c5.149,8.33,8.207,18.213,21.696,16.123
		c8.016-1.241,11.484-6.164,15.384-11.398c2.464-3.309,2.453-7.37-0.263-10.733c-4.508-5.581-10.434-5.52-16.602-3.45
		c-2.22,0.746-5.309-0.435-6.669,3.016c3.474,5.069,10.348,7.026,13.489,13.413C768.153,333.829,761.318,324.713,752.398,322.479z
		 M336.203,223.373c8.969,2.31,8.652,8.858,9.288,14.82c0.237,2.221-0.09,4.811,3.081,4.931c3.274,0.123,4.539-2.124,4.387-4.999
		c-0.151-2.841-0.821-5.651-1.189-8.484c-0.738-5.673-1.587-11.296,0.084-17.028c1.014-3.476,7.747-6.238,4.209-9.092
		c-3.645-2.941-5.808,4.334-9.626,5.766c-2.371,0.889-4.259,2.459-3.968,6.389c0.319,4.314-3.397,5.027-6.648,2.39
		c-6.062-4.918-7.032-4.412-9.674,2.856c-2.32,6.383-0.29,11.513,2.438,17.892c1.475-4.457-2.382-8.447,1.968-11.894
		c4.279,4.483,0.347,12.545,7.185,16.547C336.009,236.524,335.201,230.345,336.203,223.373z M524.934,611.743
		c-4.833,0.266-11.573-2.337-13.377,3.759c-1.626,5.493-0.712,12.291,4.398,16.633c3.833,3.257,20.539,3.144,23.034,0.31
		c0.759-0.863,1.225-2.224,1.315-3.397C541.097,618.769,534.919,611.873,524.934,611.743z M560.217,632.875
		c3.924,0,6.175-0.173,8.39,0.032c6.967,0.642,7.374-1.947,4.639-7.664c-5.971-12.479-9.497-14.747-22.796-14.185
		c-6.574,0.278-7.802,2.752-6.717,9.135C545.603,631.187,551.574,634.771,560.217,632.875z M559.763,416.893
		c2.876,12.04-6.279,23.679-18.412,20.388c8.214,7.816,16.829,13.558,25.478,11.671c6.484-1.414,5.887-11.671,7.135-18.443
		c0.343-1.86,0.445-3.837,0.226-5.71c-0.384-3.284,1.09-7.933-3.274-9.046c-4.252-1.084-4.259,4.531-6.722,6.355
		C561.562,421.114,563.946,416.349,559.763,416.893z M244.012,548.967c-9.173-0.114-18.214-2.99-24.989,5.603
		c-1.234,1.565-3.418,1.577-5.351,1.187c-3.95-0.797-6.682,1.386-9.313,3.749c-1.821,1.635-4.595,3.042-3.333,6.118
		c1.025,2.5,3.796,1.735,5.878,2.243C223.978,572.034,236.813,567.324,244.012,548.967z M785.985,419.789
		c-1.413,4.396-3.744,6.542-6.22,8.418c-3.698,2.801-6.035,4.621,0.33,7.577c4.122,1.914,7.067,6.253,10.778,9.205
		c1.643,1.307-0.231,6.732,4.102,4.209c2.934-1.708,2.005-6.373,0.095-7.663c-7.783-5.256-5.227-13.601-7.061-20.573
		c-1.645-6.253-2.901-12.607-4.759-20.817c-6.782,13.154-16.749,16.476-31.573,14.951
		C774.357,421.568,777.077,421.952,785.985,419.789z M407.455,176.082c-0.771,0.891-1.626,1.447-1.817,2.177
		c-0.883,3.372-2.556,6.971-6.31,5.192c-4.002-1.896,1.289-3.86,1.209-6.085c-0.197-5.471,0.413-11.638-8.616-9.417
		c3.264,5.64,4.242,10.373-4.258,10.923c-8.048,0.521-10.258,6.469-12.171,12.688c-0.643,2.089-1.44,4.601,0.605,6.298
		c2.222,1.843,4.897,1.639,7.024-0.261c2.972-2.654,6.591-2.09,10.017-2.415C403.729,194.177,408.652,187.858,407.455,176.082z
		 M385.667,605.553c11.63,0.703,15.413-3.663,16.431-17.221c0.453-6.037-3.468-5.702-7.348-5.945
		c-11.077-0.697-21.361,7.077-21.16,17.899C373.747,608.736,382.379,603.005,385.667,605.553z M805.575,594.888
		c1.104-1.183,2.199-1.803,2.232-2.475c0.699-14.32,1.302-28.644,1.866-42.97c0.173-4.404-2.189-4.749-5.524-3.187
		c-8.373,3.92-16.777,7.775-25.076,11.845c-2.226,1.092-4.664,2.524-4.242,5.706c0.23,1.739,1.434,2.881,3.139,3.18
		c3.01,0.528,4.488-1.491,6.132-3.606c2.875-3.703,5.542-8.599,11.435-6.541c5.2,1.817,6.411,6.846,7.149,11.617
		c0.63,4.073,0.551,8.251,0.879,12.375C803.919,585.348,802.359,590.209,805.575,594.888z M490.791,498.788
		c-2.664-3.454-3.614-4.606-4.476-5.82c-1.201-1.691-2.742-3.108-4.736-1.761c-4.535,3.063-5.146,8.539-7.181,13.057
		c-0.836,1.857,1.246,3.292,3.391,3.684c2.396,0.438,5.802-0.48,6.641,2.564c1.192,4.327-5.546,0.866-5.751,5.141
		c7.323,0.22,12.5-2.23,16.5-8.185c3.707-5.518,5.094-12.379,10.578-16.925c2.412-1.999,0.617-3.712-2.098-4.569
		C494.747,483.165,490.838,486.991,490.791,498.788z M496.807,634.155c2.085-2.709,9.72,3.711,9.661-5.209
		c-0.094-14.17-3.353-18.007-14.932-17.704c-4.796,0.126-9.83-0.321-9.517,7.17C482.54,630.893,485.342,634.347,496.807,634.155z
		 M479.335,526.133c-0.572,3.05-2.099,6.871,3.062,8.62c4.685,1.587,9.017,4.919,14.25,0.584c6.834-5.66,13.067-12.086,21.657-15.57
		c4.468-1.813,5.677-11.767,2.303-12.165c-5.046-0.595-7.063-4.881-11.689-8.056c0.897,11.292-5.979,18.104-9.704,26.541
		c-3.085-2.19-1.512-5.122-2.517-6.838c-1.974,3.996,3.385,11.012-3.785,12.743C487.943,533.191,481.196,533.459,479.335,526.133z
		 M727.951,317.412c-1.888-1.736-3.071-2.366-3.539-3.341c-1.411-2.939-3.694-3.947-6.073-1.938c-3.031,2.56,0.367,4.449,1.57,6.327
		c2.93,4.574,7.358,6.654,12.308,4.304c7.036-3.34,10.768-9.865,11.733-17.245c0.392-2.998,1.047-10.031-6.819-6.296
		c-1.137,0.539-3.45-1.153-5.11-2.022c-2.261-1.184-4.965-5.442-6.584-1.474c-0.643,1.576-3.933,6.566,0.54,9.58
		C729.815,307.894,728.895,311.885,727.951,317.412z M756.024,601.543c-10.142-11.902-22.868-12.129-35.75-11.83
		c-2.72,0.063-5.059,0.881-6.037,3.737c-0.926,2.704,0.16,5.049,1.708,7.129c2.633,3.535,6.494,3.611,10.398,3.309
		C735.846,603.154,745.346,602.389,756.024,601.543z M350.69,480.529c1.039-10.204,15.197-9.002,15.151-20.135
		c-6.644,1.443-12.512,0.115-16.598-5.959c-1.409-2.095-3.603-2.555-5.937-1.411c-1.423,0.697-3.458,1.73-2.327,3.437
		c2.979,4.5-1.126,7.856-1.35,11.763c-0.318,5.565-2.565,11.568,2.397,16.776c2.865-3.274,1.141-7.732,4.519-9.938
		C349.593,475.581,347.249,479.369,350.69,480.529z M752.278,333.038c-2.301,4.54-5.452,6.934-9.949,7.054
		c-7.08,0.189-7.072,6.945-8.989,11.004c-1.541,3.264,3.751,5.313,6.116,7.427c4.115,3.679,20.01-1.162,18.614-4.942
		C755.746,347.284,758.419,339.884,752.278,333.038z M327.67,350.041c-2.344-5.233,0.477-13.637-8.308-15.093
		c-5.004-0.83-12.772,9.62-12.105,16.32c0.598,6.015,2.958,11.492,10.556,10.859C324.881,361.539,327.183,356.574,327.67,350.041z
		 M600.526,622.677c-0.011-10.275-0.01-10.061-10.396-9.993c-20.149,0.131-15.082,0.361-8.246,15.142
		c2.99,6.467,8.857,5.36,14.046,4.658C601.82,631.688,600.45,626.656,600.526,622.677z M315.521,213.006
		c-4.971,7.315-12.416,4.605-17.842,4.721c-9.353,0.2-8.637,5.041-8.162,10.924c0.803,9.934,9.047,5.448,13.882,6.388
		c4.255,0.827,10.762,2.025,11.59-8.39c-2.678,4.84-5.765,7.454-8.326,3.561c-2.733-4.156,2.091-4.479,4.265-5.232
		C316.473,223.058,317.187,219.33,315.521,213.006z M674.319,259.006c3.648-13.013,5.837-26.405,14.744-38.771
		c2.369,7.129-3.327,11.206-3.047,16.604c8.844-2.232,10.562-11.206,16.594-15.777c1.725-1.307,0.822-3.563-0.997-4.85
		c-3.435-2.433-17.575,0.969-19.729,4.938C675.49,232.93,674.383,245.855,674.319,259.006z M416.029,412.97
		c5.239,0.445,8.028,0.867,10.816,0.858c2.165-0.007,4.279-1.323,2.429-3.505c-2.802-3.304-6.766-3.406-10.506-1.405
		c-4.171,2.232-9.395,4.458-8.408,10.185c1.085,6.297,19.469,12.829,24.843,9.374c3.313-2.13,3.091-5.389,2.309-8.578
		c-0.857-3.497-3.497-3-6.157-2.406C426.415,418.593,421.451,419.578,416.029,412.97z M670.725,441.515
		c0.222,5.759,4.529,7.331,7.587,9.785c3.456,2.773,8.831,4.551,10.354,8.068c4.008,9.26,10.242,6.273,16.62,4.714
		c1.86-0.455,4.119-0.844,4.197-3.118c0.079-2.285-2.323-2.67-3.982-3.503c-4.711-2.365-11.264-1.358-14.227-6.763
		C686.689,442.334,679.116,441.976,670.725,441.515z M667.304,597.291c4.15,6.939,10.38,6.027,16.412,5.859
		c3.767-0.104,9.16,3.256,10.197-3.112c0.979-6.014-0.909-11.556-8.193-12.978c-5.268-1.028-10.548-1.989-16.527-3.113
		c3.884,4.037,10.58,1.284,13.413,7.683c-8.359,0.861-14.927-3.594-24.644-3.692c4.537,1.74,6.92,2.432,9.087,3.544
		c2.283,1.172,6,0.331,6.598,4.629C671.55,596.501,669.563,596.871,667.304,597.291z M291.095,362.513
		c0.34-14.176,0.345-14.174,8.426-30.818c4.384-9.028-6.107-6.419-8.651-10.363c-2.365-3.665-3.909,1.741-5.321,3.69
		c-4.749,6.558,1.553,12.858,0.771,18.616C285.36,350.704,288.346,355.144,291.095,362.513z M247.176,310.581
		c7.303-6.315,11.984-0.904,16.254,2.886c4.293,3.81,7.56,1.555,11.139-0.331c1.933-1.019,4.463-2.488,2.691-5.091
		c-3.803-5.585-8.407-10.954-15.831-10.497C254.228,297.991,248.131,301.014,247.176,310.581z M298.141,308.573
		c5.112-0.519,8.678,1.835,10.738-2.001c0.402-0.748-0.333-2.448-1.004-3.374c-3.948-5.45-22.026-10.273-28.442-7.962
		c-3.321,1.197-4.003,2.522-1.723,5.421C283.613,308.163,289.799,314.51,298.141,308.573z M514.022,248.69
		c-1.649,5.2-9.798,8.019-6.367,11.26c3.974,3.755,10.688,0.975,15.18-3.223c1.617-1.511,3.326-2.99,4.631-4.752
		c2.658-3.588,1.602-7.362-0.48-10.673c-2.266-3.604-5.649-1.978-8.539-0.841c-7.473,2.94-12.235,8.805-17.896,16.62
		C506.019,253.836,508.257,249.449,514.022,248.69z M404.249,633.222c5.54-0.291,12.76,0.597,12.154-7.083
		c-0.389-4.924-0.085-13.038-9.208-13.092c-6.171-0.037-10.927,6.621-10.993,15.257C396.151,634.906,401.24,632.35,404.249,633.222z
		 M806.647,526.337c-0.828,0.532-1.877,1.231-2.949,1.892c-9.99,6.163-18.214,15.306-30.364,17.849
		c-2.59,0.542-2.523,2.613-1.567,4.545c1.197,2.419,3.305,3.076,5.644,1.918c9.448-4.677,18.913-9.328,28.206-14.299
		c3.12-1.669,3.047-5.444,3.682-8.529C809.638,528.05,809.141,526.546,806.647,526.337z M633.807,605.563
		c-1.09,8.639-1.884,14.571-2.57,20.517c-0.423,3.664,0.902,6.625,4.808,6.951c5.285,0.44,10.781,1.597,15.711-1.484
		c0.328-0.205-0.138-2.447-0.791-3.329C645.876,621.335,640.649,614.554,633.807,605.563z M375.684,506.916
		c0.537-4.077,0.756-8.229,1.7-12.209c0.952-4.016,2.61-7.866,3.983-11.78c1.864-5.313,1.845-10.679,0.263-16.017
		c-0.528-1.782-1.219-3.839-3.974-2.666c-5.485,2.335-10.786,15.482-7.556,20.282C374.805,491.518,376.932,498.711,375.684,506.916z
		 M704.279,267.967c6.393-0.515,11.334,1.243,14.545-6.347c1.989-4.7,10.196-6.891,3.78-14.044c-0.48-0.535,0.869-2.909,1.605-4.302
		c5.583-10.57,4.107-12.953-8.588-13.74C728.873,246.624,713.146,255.834,704.279,267.967z M244.312,373.045
		c-8.523,16.896-28.196,28.123-28.237,49.494c9.947-14.395,17.386-30.395,30.457-42.559
		C250.884,375.929,245.2,374.326,244.312,373.045z M492.835,457.985c1.329,0.769,2.727,1.44,3.973,2.325
		c2.67,1.897,7.511,2.641,5.906,7.315c-1.44,4.193-5.317,6.399-9.775,6.557c-2.426,0.086-5.244,0.066-6.779-2.605
		c-1.656-2.882-2.987-1.335-4.209,0.324c-1.189,1.614-2.335,3.819,0.042,4.893c7.146,3.229,15.028,4.527,22.415,2.528
		c6.467-1.749,4.333-8.661,4.106-13.344C508.04,456.16,499.398,458.397,492.835,457.985z M620.286,410.091
		c-6.377,18.807-19.924,26.127-39.005,28.94c14.68,5.681,32.569-4.796,38.41-12.383
		C622.973,422.383,625.381,417.441,620.286,410.091z M627.008,138.705c-11.2,8.332-20.141,38.375-15.249,50.982
		C616.929,172.404,621.8,156.118,627.008,138.705z M629.374,272.539c-4.254,5.116-9.828,4.805-15.388,3.925
		c-9.085-1.439-11.027-3.302-10.909-10.697c4.691,4.411,9.796,6.645,15.822,6.109c1.983-0.177,4.023-0.454,4.368-2.809
		c0.156-1.069-0.304-3.029-0.988-3.295c-6.233-2.427-12.706-5.087-19.414-3.428c-4.742,1.173-5.105,5.274-2.803,9.247
		C605.497,280.971,622.398,281.697,629.374,272.539z M704.899,244.227c-0.238-0.18-0.475-0.361-0.713-0.541
		c-0.238,0.44-0.523,0.865-0.674,1.333c-0.032,0.097,0.431,0.355,0.666,0.539C704.42,245.116,704.661,244.673,704.899,244.227z"/>
	
		<linearGradient id="SVGID_2_" gradientUnits="userSpaceOnUse" x1="826.1853" y1="291.6674" x2="922.7855" y2="291.6674" gradientTransform="matrix(1 0 0 -1 -263.055 629.36)">
		<stop  offset="0" style="stop-color:#D6BC9C"/>
		<stop  offset="0.028" style="stop-color:#CDB99A"/>
		<stop  offset="0.1134" style="stop-color:#B7B394"/>
		<stop  offset="0.2142" style="stop-color:#A6AF8F"/>
		<stop  offset="0.339" style="stop-color:#9BAB8C"/>
		<stop  offset="0.514" style="stop-color:#94AA8A"/>
		<stop  offset="1" style="stop-color:#92A98A"/>
	</linearGradient>
	<path fill="url(#SVGID_2_)" d="M653.619,317.064c1.879,4.724,4.482,9.298,5.502,14.201c3.065,14.746-5.707,29.429-20.211,34.895
		c-14.512,5.469-29.334,8.303-45.002,7.062c-14.283-1.131-25.592-9.188-29.113-22.077c-4.521-16.549,0.297-32.243,12.758-39.846
		c19.415-11.845,39.833-11.661,60.673-4.241c2.988,1.064,5.95,2.202,8.922,3.305C649.306,312.596,651.463,314.83,653.619,317.064z
		 M610.657,307.601c-15.251-1.219-28.329,3.217-37.882,15.844c-5.876,7.768-6.209,17.381-0.826,24.995
		c5.967,8.439,13.947,13.849,24.301,15.606c12.165,2.064,24.255,1.049,36.148-1.44c13.343-2.792,20.83-11.564,22.041-24.377
		c0.999-10.572-6.754-21.756-18.361-26.56C627.959,308.308,619.502,307.063,610.657,307.601z"/>
	
		<linearGradient id="SVGID_3_" gradientUnits="userSpaceOnUse" x1="911.3109" y1="121.4447" x2="954.7493" y2="121.4447" gradientTransform="matrix(1 0 0 -1 -263.055 629.36)">
		<stop  offset="0" style="stop-color:#D6BC9C"/>
		<stop  offset="0.028" style="stop-color:#CDB99A"/>
		<stop  offset="0.1134" style="stop-color:#B7B394"/>
		<stop  offset="0.2142" style="stop-color:#A6AF8F"/>
		<stop  offset="0.339" style="stop-color:#9BAB8C"/>
		<stop  offset="0.514" style="stop-color:#94AA8A"/>
		<stop  offset="1" style="stop-color:#92A98A"/>
	</linearGradient>
	<path fill="url(#SVGID_3_)" d="M664.869,529.715c-4.773,1.815-8.897,9.258-14.189,4.802c-5.896-4.967,0.539-10.52,2.724-15.329
		c3.767-8.296,4.525-17.245,6.766-25.861c0.596-2.29-0.275-5.326,3.673-6.373c3.227,4.606-0.136,10.739,4.671,17.22
		c-2.803-9.152,1.579-14.823,3.484-21.136c0.816-2.705,3.093-3.014,5.347-3.121c3.243-0.154,3.143,2.451,3.578,4.609
		c1.794,8.903,1.486,17.822-0.062,26.691c-1.289,7.377-2.05,14.209,7.898,16.035c2.207,0.405,2.667,2.513,2.935,4.48
		c-6.106,5.231-12.035,4.86-17.791-0.577C671.213,528.618,668.48,526.447,664.869,529.715z"/>
	
		<linearGradient id="SVGID_4_" gradientUnits="userSpaceOnUse" x1="650.2212" y1="284.7502" x2="761.7853" y2="284.7502" gradientTransform="matrix(1 0 0 -1 -263.055 629.36)">
		<stop  offset="0" style="stop-color:#D6BC9C"/>
		<stop  offset="0.028" style="stop-color:#CDB99A"/>
		<stop  offset="0.1134" style="stop-color:#B7B394"/>
		<stop  offset="0.2142" style="stop-color:#A6AF8F"/>
		<stop  offset="0.339" style="stop-color:#9BAB8C"/>
		<stop  offset="0.514" style="stop-color:#94AA8A"/>
		<stop  offset="1" style="stop-color:#92A98A"/>
	</linearGradient>
	<path fill="url(#SVGID_4_)" d="M394.151,384.002c9.661-4.005,19.462-4.508,31.479-4.557c-11.486-8.803-24.343-4.031-36.25-8.685
		c7.665-4.829,14.626,1.611,21.693-2.223c-7.29-1.171-13.771-2.49-20.318-3.17c-4.596-0.477-3.211-3.546-3.521-6.128
		c-0.623-5.206,3.219-2.067,4.923-2.55c3.451-0.979,8.95,4.115,10.158-0.345c1.635-6.033-5.55-5.992-9.32-6.949
		c-8.06-2.046-5.228-7.35-2.365-9.972c5.118-4.688,6.89-7.567-2.023-9.738c4.029-3.367,7.139-1.823,10.062-1.041
		c3.507,0.937,6.4,0.387,8.468-2.627c14.737-21.469,37.027-21.798,59.329-20.325c17.922,1.184,28.198,10.27,31.124,24.716
		c3.928,19.393-2.335,34.678-18.313,43.267c-12.545,6.743-25.969,10.512-40.394,10.361
		C423.976,383.88,409.064,384.002,394.151,384.002z M432.811,313.045c7.479,6.77,7.509,6.805,13.945,1.293
		c2.778-2.379,5.935-3.432,8.491-0.511c4.249,4.858,9.953,5.2,15.569,6.337c10.467,2.118,15.859,9.049,15.547,19.799
		c-0.306,10.549-5.297,18.47-14.595,23.133c-16.394,8.223-32.83,7.503-48.604-1.712c-8.987-5.25-11.424-13.677-8.868-23.929
		c1.556-6.24,5.846-9.663,10.522-13.083c2.244-1.641,3.753-3.738,2.243-6.529c-0.935-1.729-2.698-1.192-4.276-0.659
		c-7.899,2.667-17.015,17.674-16.458,26.074c1.207,18.198,12.711,26.509,28.485,31.905c19.697,6.738,46.833-3.32,56.35-21.709
		c9.239-17.853-3.135-41.511-22.946-43.509C456.739,308.789,445.42,310.254,432.811,313.045z M434.61,322.674
		c3.143,5.943,6.557,11.004-3.093,13.118c-2.376,0.521-3.283,3.843-0.106,5.947c3.182,2.107,6.259,4.384,9.523,6.351
		c13.724,8.269,16.741,7.53,20.884-4.908c3.262-9.792,1.581-13.878-8.478-12.962C445.09,330.97,440.72,327.331,434.61,322.674z"/>
	
		<linearGradient id="SVGID_5_" gradientUnits="userSpaceOnUse" x1="601.0438" y1="290.4677" x2="644.5729" y2="290.4677" gradientTransform="matrix(1 0 0 -1 -263.055 629.36)">
		<stop  offset="0" style="stop-color:#D6BC9C"/>
		<stop  offset="0.028" style="stop-color:#CDB99A"/>
		<stop  offset="0.1134" style="stop-color:#B7B394"/>
		<stop  offset="0.2142" style="stop-color:#A6AF8F"/>
		<stop  offset="0.339" style="stop-color:#9BAB8C"/>
		<stop  offset="0.514" style="stop-color:#94AA8A"/>
		<stop  offset="1" style="stop-color:#92A98A"/>
	</linearGradient>
	<path fill="url(#SVGID_5_)" d="M344.043,301.406c10.021,0.977,20.415-0.432,29.821,4.494c4.772,2.5,8.157,5.04,2.779,10.759
		c-5.286,5.621-5.014,12.116-0.151,18.233c5.84,7.346,7.319,14.727,0.501,22.409c-3.741,4.216-1.299,7.565,1.825,10.772
		c4.544,4.663,2.792,7.758-2.938,8.099c-11.154,0.664-22.421,1.006-32.414-5.56c-2.483-1.632-6.848-2.083-5.057-6.607
		c1.696-4.283,5.03-4.19,8.704-2.304c1.067,0.548,2.392,0.592,4.562,1.087c-3.303-20.861-14.694-40.177-7.503-61.512
		L344.043,301.406z M371.351,314.978c-3.231,2.471-10.596-2.326-10.023,5.456c0.558,7.577-1.893,14.893-0.55,22.612
		c1.121,6.444,0.278,13.278-0.136,19.912c-0.127,2.032-2.53,4.267,0.141,5.889c2.812,1.708,6.365,1.68,9.255,0.674
		c3.52-1.226,0.319-3.698-0.012-5.515c-0.556-3.05-0.206-5.973,1.805-8.091c6.482-6.822,4.023-13.446-0.207-19.921
		C367.179,329.193,365.832,322.602,371.351,314.978z"/>
	
		<linearGradient id="SVGID_6_" gradientUnits="userSpaceOnUse" x1="789.5747" y1="303.2777" x2="824.3575" y2="303.2777" gradientTransform="matrix(1 0 0 -1 -263.055 629.36)">
		<stop  offset="0" style="stop-color:#D6BC9C"/>
		<stop  offset="0.028" style="stop-color:#CDB99A"/>
		<stop  offset="0.1134" style="stop-color:#B7B394"/>
		<stop  offset="0.2142" style="stop-color:#A6AF8F"/>
		<stop  offset="0.339" style="stop-color:#9BAB8C"/>
		<stop  offset="0.514" style="stop-color:#94AA8A"/>
		<stop  offset="1" style="stop-color:#92A98A"/>
	</linearGradient>
	<path fill="url(#SVGID_6_)" d="M548.882,337.708c0.638-0.009,1.298-0.119,1.909,0.009c3.575,0.745,9.659-3.352,10.179,3.03
		c0.482,5.916-1.798,12.142-8.968,14.087c-1.808,0.49-3.794,0.392-5.702,0.432c-17.865,0.379-21.296-3.39-19.259-21.323
		c0.505-4.443,0.901-8.804,0.359-13.323c-1.077-8.989-0.146-17.505,9.504-21.76c6.914-3.049,13.759-2.955,19.431,2.876
		c5.593,5.75,6.508,17.083,2.516,25.193c-1.164,2.364-2.564,2.433-4.535,1.474c-2-0.973-3.891-2.361-5.999-2.883
		c-4.443-1.1-8.963-1.329-12.424,2.524c-1.505,1.675-2.9,3.884-1.857,6.091c2.304,4.874,7.16,2.931,11.026,3.552
		C546.303,337.886,547.606,337.718,548.882,337.708z"/>
	
		<linearGradient id="SVGID_7_" gradientUnits="userSpaceOnUse" x1="767.1927" y1="236.8566" x2="825.9269" y2="236.8566" gradientTransform="matrix(1 0 0 -1 -263.055 629.36)">
		<stop  offset="0" style="stop-color:#D6BC9C"/>
		<stop  offset="0.028" style="stop-color:#CDB99A"/>
		<stop  offset="0.1134" style="stop-color:#B7B394"/>
		<stop  offset="0.2142" style="stop-color:#A6AF8F"/>
		<stop  offset="0.339" style="stop-color:#9BAB8C"/>
		<stop  offset="0.514" style="stop-color:#94AA8A"/>
		<stop  offset="1" style="stop-color:#92A98A"/>
	</linearGradient>
	<path fill="url(#SVGID_7_)" d="M532.724,375.859c5.868,0.263,12.588,0.896,18.911,3.254c6.875,2.564,11.109,7.707,11.235,15.182
		c0.126,7.454-5.439,10.075-11.497,12.209c-12.678,4.464-25.281,2.548-37.77-0.427c-4.651-1.108-9.176-3.523-9.433-9.453
		c-0.245-5.662,0.891-10.863,5.952-14.343C516.662,377.785,524.019,375.998,532.724,375.859z M542.688,398.308
		c-10.016-1.309-19.552,1.077-28.913-3.26c8.175-1.15,16.389-1.59,20.235-10.418c0.374-0.859,2.919-1.027,4.47-1.074
		c7.722-0.228,14.302,1.547,16.238,12.797c1.412-7.866-0.943-11.618-5.806-12.799c-9.286-2.256-18.714-4.182-28.31-1.205
		c-4.776,1.482-8.746,3.982-11.057,8.493c-2.392,4.671,1.635,12.032,5.631,10.186C523.924,396.987,532.846,400.423,542.688,398.308z
		"/>
	
		<linearGradient id="SVGID_8_" gradientUnits="userSpaceOnUse" x1="925.518" y1="272.5589" x2="962.736" y2="272.5589" gradientTransform="matrix(1 0 0 -1 -263.055 629.36)">
		<stop  offset="0" style="stop-color:#D6BC9C"/>
		<stop  offset="0.028" style="stop-color:#CDB99A"/>
		<stop  offset="0.1134" style="stop-color:#B7B394"/>
		<stop  offset="0.2142" style="stop-color:#A6AF8F"/>
		<stop  offset="0.339" style="stop-color:#9BAB8C"/>
		<stop  offset="0.514" style="stop-color:#94AA8A"/>
		<stop  offset="1" style="stop-color:#92A98A"/>
	</linearGradient>
	<path fill="url(#SVGID_8_)" d="M662.464,358.954c0.137-9.575,12.666-20.18,24.415-20.667c4.498-0.186,13.053,11.378,12.796,17.298
		c-0.48,11.042-7.507,19.92-15.617,19.729C672.274,375.036,662.342,367.512,662.464,358.954z"/>
	
		<linearGradient id="SVGID_9_" gradientUnits="userSpaceOnUse" x1="927.8542" y1="242.92" x2="989.5771" y2="242.92" gradientTransform="matrix(1 0 0 -1 -263.055 629.36)">
		<stop  offset="0" style="stop-color:#D6BC9C"/>
		<stop  offset="0.028" style="stop-color:#CDB99A"/>
		<stop  offset="0.1134" style="stop-color:#B7B394"/>
		<stop  offset="0.2142" style="stop-color:#A6AF8F"/>
		<stop  offset="0.339" style="stop-color:#9BAB8C"/>
		<stop  offset="0.514" style="stop-color:#94AA8A"/>
		<stop  offset="1" style="stop-color:#92A98A"/>
	</linearGradient>
	<path fill="url(#SVGID_9_)" d="M664.821,371.344c18.733,7.585,37.935,11.846,56.514,18.183c3.662,1.249,6.015,3.804,4.914,8.055
		c-1.084,4.183-4.421,4.633-7.575,3.253c-15.79-6.912-35.348-4.352-48.022-19.071C668.286,379.016,664.473,377.195,664.821,371.344z
		"/>
	
		<linearGradient id="SVGID_10_" gradientUnits="userSpaceOnUse" x1="837.1201" y1="293.0449" x2="909.1864" y2="293.0449" gradientTransform="matrix(1 0 0 -1 -263.055 629.36)">
		<stop  offset="0" style="stop-color:#D6BC9C"/>
		<stop  offset="0.028" style="stop-color:#CDB99A"/>
		<stop  offset="0.1134" style="stop-color:#B7B394"/>
		<stop  offset="0.2142" style="stop-color:#A6AF8F"/>
		<stop  offset="0.339" style="stop-color:#9BAB8C"/>
		<stop  offset="0.514" style="stop-color:#94AA8A"/>
		<stop  offset="1" style="stop-color:#92A98A"/>
	</linearGradient>
	<path fill="url(#SVGID_10_)" d="M613.743,313.871c4.769,0.273,9.597,0.17,14.295,0.898c10.494,1.627,17.066,8.906,18.013,19.322
		c0.861,9.465-5.344,18.714-15.118,21.611c-14.051,4.165-28.369,4.203-42.41,0.334c-15.795-4.353-19.214-20.335-7.448-31.799
		C590.327,315.223,601.519,313.177,613.743,313.871z M583.364,331.886c6.51,0.87,11.216,3.612,13.435,9.538
		c2.626,7.014,7.524,7.75,13.851,5.726c3.325-1.064,6.78-1.74,10.198-2.491c1.796-0.395,4.268-1.119,3.698,2.089
		c-0.337,1.896-0.672,3.288,1.681,2.994c0.874-0.109,1.761-1.561,2.305-2.58c1.448-2.711-0.099-7.32,3.247-8.332
		c2.638-0.798,4.926,0.037,3.651-3.992c-1.063-3.358-2.632-5.895-6.507-5.789c-6.994,0.191-13.984,0.556-20.977,0.796
		c-2.423,0.083-5.005,1.467-7.147-0.98C593.848,320.923,588.764,326.561,583.364,331.886z"/>
</g>
</svg>
