<?xml version="1.0" encoding="utf-8"?>
<!-- Generator: Adobe Illustrator 17.0.0, SVG Export Plug-In . SVG Version: 6.00 Build 0)  -->
<!DOCTYPE svg PUBLIC "-//W3C//DTD SVG 1.1//EN" "http://www.w3.org/Graphics/SVG/1.1/DTD/svg11.dtd">
<svg version="1.1" id="Calque_1" xmlns="http://www.w3.org/2000/svg" xmlns:xlink="http://www.w3.org/1999/xlink" x="0px" y="0px"
	 width="259.761px" height="98px" viewBox="0 0 259.761 98" enable-background="new 0 0 259.761 98" xml:space="preserve">
<g id="O0Ha6G_1_">
	<g>
		<path fill="#562704" d="M18.097,35.872c-1.047,0.06-2.312,0.211-3.573,0.187c-2.15-0.04-4.214,0.42-6.251,1.001
			c-1.879,0.535-3.509,1.558-4.756,3.111C2.602,41.309,1.994,42.635,2,44.114c0.013,3.307,1.556,5.41,4.559,6.829
			c1.837,0.868,3.851,1.068,5.867,1.13c1.731,0.053,3.462,0.115,5.194,0.165c2.383,0.068,4.767,0.116,7.15,0.197
			c1.294,0.044,2.587,0.124,3.878,0.212c2.318,0.158,4.635,0.343,6.953,0.5c1.35,0.091,2.703,0.143,4.054,0.227
			c1.644,0.102,3.287,0.218,4.93,0.327c0.264,0.017,0.53,0.02,0.794,0.042c1.876,0.156,3.75,0.341,5.628,0.468
			c2.172,0.147,4.347,0.244,6.52,0.363c2.144,0.118,4.288,0.264,6.434,0.349c2.442,0.096,4.885,0.156,7.328,0.198
			c1.913,0.032,3.827-0.007,5.74,0.021c1.705,0.025,3.408,0.121,5.113,0.145c1.939,0.028,3.879-0.002,5.819,0.015
			c10.868,0.091,21.739-0.193,32.606,0.182c2.97,0.102,5.94,0.225,8.909,0.346c2.881,0.117,5.762,0.246,8.644,0.366
			c1.5,0.063,2.999,0.129,4.499,0.174c2.381,0.071,4.763,0.157,7.145,0.18c3.33,0.033,6.66,0.009,9.99,0.018
			c2.028,0.006,4.057-0.01,6.084,0.054c1.821,0.057,3.642,0.177,5.457,0.331c1.231,0.105,2.455,0.292,3.599,0.839
			c1.181,0.564,1.352,1.193,0.546,2.223c-0.128,0.163-0.265,0.328-0.428,0.451c-0.662,0.499-1.304,1.036-2.011,1.46
			c-3.81,2.282-7.808,4.185-11.848,6.001c-4.441,1.996-8.885,3.985-13.317,6.003c-1.583,0.721-3.145,1.493-4.695,2.285
			c-1.814,0.926-3.635,1.843-5.396,2.866c-1.641,0.953-3.123,2.128-4.29,3.687c-1.369,1.829-1.925,3.875-1.429,6.086
			c0.634,2.825,2.924,4.925,5.838,5.25c2.477,0.276,4.876-0.201,7.179-1.131c1.777-0.717,3.534-1.489,5.285-2.271
			c1.833-0.82,3.648-1.679,5.469-2.526c2.062-0.958,4.112-1.941,6.184-2.877c2.341-1.057,4.713-2.046,7.048-3.116
			c2.683-1.229,5.331-2.534,8.011-3.769c3.219-1.482,6.45-2.937,9.687-4.378c1.618-0.72,3.26-1.384,4.892-2.072
			c1.74-0.733,3.476-1.478,5.224-2.193c2.512-1.027,5.029-2.042,7.552-3.043c1.507-0.598,3.001-1.247,4.547-1.718
			c3.835-1.169,7.693-2.263,11.55-3.357c1.956-0.555,3.95-0.982,5.892-1.579c4.001-1.231,7.897-2.797,11.971-3.801
			c2.458-0.606,4.889-1.328,7.331-2.003c2.189-0.605,4.363-1.248,6.354-2.399c2.889-1.67,5.032-3.917,5.638-7.387
			c0.347-1.984,0.084-3.885-0.818-5.669c-1.198-2.37-3.195-3.896-5.49-5.005c-1.215-0.587-2.543-0.94-3.831-1.365
			c-4.284-1.416-8.577-2.802-12.856-4.232c-1.761-0.588-3.496-1.255-5.242-1.892c-1.163-0.424-2.312-0.889-3.485-1.281
			c-3.328-1.111-6.663-2.204-10-3.286c-3.001-0.973-6.008-1.923-9.013-2.881c-4.273-1.363-8.657-2.289-13.002-3.363
			c-2.689-0.664-5.397-1.249-8.089-1.899c-2.865-0.692-5.723-1.413-8.581-2.133c-1.572-0.396-3.139-0.814-4.708-1.226
			c-3.308-0.869-6.61-1.757-9.923-2.605c-2.54-0.65-5.051-1.448-7.678-1.686c-2.205-0.2-4.289,0.177-6.149,1.471
			c-2.116,1.472-3.152,4.236-2.659,6.788c0.459,2.38,1.917,4.023,3.764,5.332c2.215,1.57,4.726,2.544,7.293,3.354
			c1.462,0.462,2.931,0.898,4.404,1.324c0.849,0.245,1.71,0.445,2.565,0.668c1.653,0.43,3.303,0.87,4.959,1.289
			c1.601,0.405,3.209,0.775,4.809,1.182c2.141,0.545,4.272,1.128,6.416,1.662c2.86,0.712,5.732,1.371,8.59,2.091
			c2.857,0.72,5.695,1.518,8.556,2.223c2.557,0.63,4.997,1.591,7.414,2.614c0.668,0.283,1.287,0.736,1.851,1.207
			c0.663,0.553,0.584,1.202-0.128,1.701c-0.216,0.151-0.459,0.289-0.71,0.354c-0.598,0.155-1.203,0.322-1.815,0.379
			c-2.194,0.206-4.388,0.444-6.588,0.53c-3.675,0.144-7.354,0.204-11.031,0.253c-2.945,0.039-5.891,0.009-8.836,0.009
			c-4.947,0-9.895,0.017-14.842-0.009c-2.674-0.014-5.348-0.14-8.022-0.148c-5.211-0.014-10.42-0.055-15.626-0.353
			c-2.879-0.165-5.762-0.248-8.643-0.367c-2.91-0.12-5.819-0.276-8.73-0.349c-3.91-0.098-7.822-0.157-11.733-0.184
			c-4.537-0.032-9.075,0.013-13.612-0.019C87.62,38.9,78.78,39.127,69.944,38.787c-2.236-0.086-4.472-0.136-6.709-0.204
			c-0.088-0.003-0.176-0.012-0.265-0.017c-1.732-0.108-3.464-0.223-5.197-0.323c-1.585-0.091-3.172-0.158-4.757-0.251
			c-2.584-0.152-5.167-0.317-7.751-0.475c-1.204-0.074-2.409-0.136-3.612-0.221c-2.259-0.159-4.518-0.33-6.776-0.496
			c-0.352-0.026-0.704-0.051-1.057-0.078c-1.173-0.091-2.346-0.195-3.52-0.271c-0.968-0.063-1.937-0.094-2.906-0.139
			C24.369,36.169,21.343,36.026,18.097,35.872z"/>
		<path fill="#562704" d="M18.097,35.872c3.246,0.154,6.272,0.297,9.298,0.44c0.969,0.046,1.938,0.076,2.906,0.139
			c1.174,0.076,2.346,0.18,3.52,0.271c0.352,0.027,0.704,0.052,1.057,0.078c2.259,0.166,4.517,0.337,6.776,0.496
			c1.203,0.085,2.408,0.147,3.612,0.221c2.584,0.159,5.167,0.324,7.751,0.475c1.585,0.093,3.172,0.159,4.757,0.251
			c1.733,0.1,3.464,0.214,5.197,0.323c0.088,0.006,0.176,0.015,0.265,0.017c2.236,0.067,4.473,0.118,6.709,0.204
			c8.836,0.34,17.676,0.113,26.514,0.174c4.537,0.032,9.075-0.013,13.612,0.019c3.911,0.027,7.823,0.087,11.733,0.184
			c2.911,0.073,5.82,0.229,8.73,0.349c2.881,0.119,5.765,0.202,8.643,0.367c5.205,0.298,10.414,0.339,15.626,0.353
			c2.674,0.007,5.348,0.134,8.022,0.148c4.947,0.026,9.895,0.009,14.842,0.009c2.945,0,5.891,0.03,8.836-0.009
			c3.678-0.049,7.356-0.109,11.031-0.253c2.2-0.086,4.394-0.324,6.588-0.53c0.612-0.057,1.217-0.224,1.815-0.379
			c0.251-0.065,0.494-0.203,0.71-0.354c0.713-0.498,0.791-1.147,0.128-1.701c-0.564-0.471-1.183-0.924-1.851-1.207
			c-2.417-1.023-4.857-1.984-7.414-2.614c-2.86-0.705-5.699-1.503-8.556-2.223c-2.858-0.72-5.73-1.379-8.59-2.091
			c-2.143-0.534-4.275-1.117-6.416-1.662c-1.6-0.407-3.209-0.778-4.809-1.182c-1.656-0.419-3.306-0.859-4.959-1.289
			c-0.855-0.222-1.716-0.423-2.565-0.668c-1.472-0.426-2.942-0.862-4.404-1.324c-2.567-0.81-5.078-1.784-7.293-3.354
			c-1.847-1.309-3.304-2.953-3.764-5.332c-0.493-2.553,0.543-5.317,2.659-6.788c1.86-1.294,3.944-1.671,6.149-1.471
			c2.626,0.238,5.138,1.036,7.678,1.686c3.313,0.848,6.615,1.736,9.923,2.605c1.568,0.412,3.136,0.83,4.708,1.226
			c2.858,0.72,5.716,1.441,8.581,2.133c2.692,0.65,5.4,1.234,8.089,1.899c4.346,1.074,8.729,2,13.002,3.363
			c3.005,0.958,6.013,1.909,9.013,2.881c3.338,1.082,6.672,2.175,10,3.286c1.173,0.392,2.322,0.857,3.485,1.281
			c1.745,0.637,3.481,1.304,5.242,1.892c4.279,1.43,8.572,2.816,12.856,4.232c1.288,0.426,2.615,0.778,3.831,1.365
			c2.295,1.109,4.292,2.635,5.49,5.005c0.902,1.785,1.165,3.685,0.818,5.669c-0.606,3.469-2.75,5.716-5.638,7.387
			c-1.992,1.152-4.165,1.795-6.354,2.399c-2.442,0.675-4.873,1.397-7.331,2.003c-4.074,1.005-7.97,2.57-11.971,3.801
			c-1.943,0.598-3.936,1.024-5.892,1.579c-3.857,1.094-7.714,2.189-11.55,3.357c-1.546,0.471-3.041,1.121-4.547,1.718
			c-2.522,1.001-5.04,2.016-7.552,3.043c-1.748,0.715-3.483,1.46-5.224,2.193c-1.632,0.688-3.274,1.352-4.892,2.072
			c-3.237,1.441-6.468,2.896-9.687,4.378c-2.68,1.234-5.329,2.54-8.011,3.769c-2.336,1.07-4.707,2.058-7.048,3.116
			c-2.072,0.936-4.122,1.919-6.184,2.877c-1.821,0.846-3.637,1.706-5.469,2.526c-1.751,0.783-3.508,1.554-5.285,2.271
			c-2.302,0.929-4.702,1.407-7.179,1.131c-2.914-0.325-5.204-2.425-5.838-5.25c-0.496-2.211,0.06-4.257,1.429-6.086
			c1.167-1.56,2.649-2.734,4.29-3.687c1.761-1.023,3.582-1.94,5.396-2.866c1.55-0.791,3.112-1.564,4.695-2.285
			c4.431-2.018,8.876-4.007,13.317-6.003c4.04-1.816,8.038-3.719,11.848-6.001c0.707-0.424,1.349-0.962,2.011-1.46
			c0.163-0.123,0.301-0.288,0.428-0.451c0.806-1.03,0.634-1.659-0.546-2.223c-1.144-0.547-2.367-0.734-3.599-0.839
			c-1.816-0.154-3.636-0.274-5.457-0.331c-2.027-0.064-4.056-0.048-6.084-0.054c-3.33-0.009-6.66,0.014-9.99-0.018
			c-2.382-0.023-4.764-0.109-7.145-0.18c-1.5-0.045-3-0.112-4.499-0.174c-2.881-0.12-5.762-0.249-8.644-0.366
			c-2.969-0.121-5.939-0.243-8.909-0.346c-10.867-0.375-21.737-0.09-32.606-0.182c-1.94-0.016-3.88,0.013-5.819-0.015
			c-1.705-0.024-3.408-0.12-5.113-0.145c-1.913-0.028-3.827,0.011-5.74-0.021c-2.443-0.041-4.887-0.101-7.328-0.198
			c-2.146-0.085-4.289-0.231-6.434-0.349c-2.173-0.12-4.348-0.216-6.52-0.363c-1.878-0.127-3.752-0.312-5.628-0.468
			c-0.264-0.022-0.529-0.025-0.794-0.042c-1.643-0.109-3.287-0.225-4.93-0.327c-1.351-0.084-2.703-0.136-4.054-0.227
			c-2.318-0.157-4.635-0.342-6.953-0.5c-1.292-0.088-2.585-0.168-3.878-0.212c-2.383-0.081-4.767-0.129-7.15-0.197
			c-1.731-0.05-3.462-0.112-5.194-0.165c-2.015-0.062-4.029-0.262-5.867-1.13C3.556,49.525,2.013,47.421,2,44.114
			c-0.006-1.48,0.602-2.805,1.517-3.943c1.248-1.553,2.878-2.575,4.756-3.111c2.037-0.58,4.101-1.041,6.251-1.001
			C15.785,36.083,17.05,35.932,18.097,35.872z"/>
	</g>
</g>
</svg>
