<?xml version="1.0" encoding="utf-8"?>
<!-- Generator: Adobe Illustrator 17.0.0, SVG Export Plug-In . SVG Version: 6.00 Build 0)  -->
<!DOCTYPE svg PUBLIC "-//W3C//DTD SVG 1.1//EN" "http://www.w3.org/Graphics/SVG/1.1/DTD/svg11.dtd">
<svg version="1.1" id="Calque_1" xmlns="http://www.w3.org/2000/svg" xmlns:xlink="http://www.w3.org/1999/xlink" x="0px" y="0px"
	 width="433.713px" height="163.627px" viewBox="0 -65.627 433.713 163.627" enable-background="new 0 -65.627 433.713 163.627"
	 xml:space="preserve">
<g>
	<path fill="#FFFFFF" d="M11.383-460.956c-0.587-1.586-2.047-1.967-3.762-2.231c-0.421,0.495-0.87,0.974-1.346,1.438
		C7.591-460.581,8.918-460.482,11.383-460.956z"/>
	<path fill="#FFFFFF" d="M-13.9-437.925c-0.562,0.719,2.274,0.753,0.452,1.438c-1.955,0.734-4.674,1.945-6.137,1.454
		c-3.224-1.091-5.572,0.615-8.476,0.608c1.165,0.575,1.125,1.577,1.641,2.428c1.73-1.527,1.73-1.524,4.969-1.494
		c0.393,0.003,0.802-0.157,1.18-0.123c4.038,0.369,7.296-1.672,11.02-2.099c2.631-0.301,2.723-0.937,1.497-2.271
		C-9.791-436.8-11.921-438.408-13.9-437.925z"/>
	<path fill="#FFFFFF" d="M-38.181-464.029c0.022,0.006,0.046,0.009,0.068,0.012c-1.076-0.356-2.084-0.676-3.058-0.974
		C-40.265-464.25-39.155-464.244-38.181-464.029z"/>
	<path fill="#FFFFFF" d="M-104.485-460.341c1.349-0.688,1.119-1.567,0.559-2.385c-0.83,1.152-1.653,2.265-2.471,3.334
		C-105.634-459.456-105.094-460.031-104.485-460.341z"/>
	<path fill="#FFFFFF" d="M-114.359-447.861c-0.602-0.765-1.727,0.114-2.24-0.458c-0.277,0.224-0.55,0.433-0.827,0.642
		C-116.437-446.954-115.453-446.158-114.359-447.861z"/>
	<path fill="#FFFFFF" d="M-32.969-462.228c-1.315-0.476-2.551-0.907-3.749-1.312c0.046,0.086,0.074,0.184,0.065,0.317
		c-0.108,1.183,0.824,1.06,1.905,1.1c0.934,0.034,2.041-0.104,2.781,0.599c-0.839,0.83-2.714-0.068-3.374,1.383
		c2.858,0.642,5.839-0.722,8.869,0.667c-0.061-0.178-0.135-0.341-0.215-0.495c-2.133-0.661-4.324-1.408-6.577-2.24L-32.969-462.228z
		"/>
	<path fill="#FFFFFF" d="M-13.731-456.921c-1.045-0.157-2.108-0.341-3.187-0.553c-0.086,0.157-0.163,0.36-0.224,0.624
		c-0.184,0.781-2.154,0.516-2.333-0.126c-0.16-0.578-0.412-0.959-0.725-1.214c-0.624-0.148-1.251-0.304-1.887-0.47
		c-0.784,0.018-1.623,0.144-2.366,0.037c1.097,0.897,2.606,1.506,0.234,2.594c-1.048,0.482-0.86,1.512-0.304,2.268
		c0.572,0.781,1.515,1.297,2.732,0.722c1.125-0.529,1.389,0.203,1.893,0.575c0.879,0.645,0.209,1.069-0.479,1.444
		c-0.612,0.335-1.106,0.658-0.725,1.3c0.495,0.833,0.022,1.26-1.112,1.435c-0.759,0.117-1.853,0.197-1.374,1.063
		c0.424,0.768,1.604,0.796,2.336,0.39c2.671-1.472,3.534-0.074,4.269,1.408c0.581,1.177,1.026,1.841,2.532,0.464
		c1.49-1.365,2.824-1.146,3.248,0.599c0.559,2.299,2.022,4.278,3.433,6.3c1.386-0.246,2.588-0.993,4.216-0.639
		c0.618,0.135,1.924-0.633,0.781-1.097c-3.642-1.478-4.88-3.537-3.586-6.497c0.028-0.061-0.037-0.148-0.071-0.215
		c-0.977-2.053,0.403-2.293,2.514-1.739c1.392,0.366,2.059-0.114,2.806-1.1c-1.656,0.065-2.397-0.664-2.649-1.942
		c-0.836,1.211-1.383,2.041-3.101,1.272c-1.709-0.762-2.852-0.215-2.578,1.245c0.218,1.171-0.682,0.774-1.364,0.827
		c-2.671,0.206-2.652-2.256-5.335-2.434c2.428-1.03,4.536,0.068,6.693-0.658c-1.119-0.424-1.988-0.645-2.68-1.045
		c-0.645-0.372-0.608-1.291,0.194-1.152c3.175,0.553,5.479-2.741,8.903-1.008c-0.719-0.759-1.515-1.515-2.416-2.028
		c-1.441,0-2.916-0.061-4.435-0.191C-11.386-456.186-12.52-456.506-13.731-456.921z"/>
	<path fill="#FFFFFF" d="M-65.391-434.892c-2.176-2.016-4.886-1.481-7.038-2.111c-0.513-0.151-1.325,0.154-1.395,0.648
		c-0.141,0.983,0.175,1.936,1.045,2.701c0.356,0.313,1.152,0.313,1.321-0.009C-70.314-435.829-67.973-435.107-65.391-434.892z"/>
	<path fill="#FFFFFF" d="M-67.865-428.838c1.205,0.83,3.47,1.125,4.047,0.393c0.971-1.232-1.527-1.048-2.293-1.675
		c-0.065-0.052-0.111-0.12-0.277-0.304c0.519-0.67,1.912-0.51,1.955-1.392c0.022-0.446-0.439-0.738-0.956-0.688
		c-1.534,0.141-3.55-0.418-4.444,0.787C-70.849-430.356-68.984-429.606-67.865-428.838z"/>
	<path fill="#FFFFFF" d="M-61.737-440.055c1.211,0.891,2.554,0.87,4.124,0.255c2.575-1.008,5.12-2.197,8.27-1.81
		c0.704,0.086,1.62,0.034,2.059-0.658c-1.429,0.092-10.062-0.861-11.74-1.352c1.318-0.529,2.182-1.125,3.359-1.435
		c1.958-0.516,1.804-1.884,1.589-3.055c-0.221-1.199-1.709-1.343-2.987-1.494c-2.105-0.243-3.291,1.238-5.055,1.712
		c-0.633,0.169-0.068,1.128,0.922,1.106c1.291-0.028,2.581-0.221,3.869-0.375c0.526-0.061,1.066-0.661,1.546-0.065
		c0.409,0.507,0.101,1.346-0.36,1.42c-1.927,0.307-4.097,1.577-5.707,0.728c-1.371-0.722-4.256-1.389-2.92-3.623
		c0.169-0.283-0.034-0.701-0.489-0.676c-2.308,0.123-4.349-1.082-6.755-0.599c-1.438,0.289-1.653,0.67-0.796,1.527
		c0.716,0.716,1.297,1.435,2.649,1.672c4.465,0.787,5.645,2.455,4.183,5.685C-63.658-441.521-63.695-441.493-61.737-440.055z"/>
	<path fill="#FFFFFF" d="M-83.692-462.289c1.251-0.025,3.872-2.065,3.795-2.916c-0.049-0.538-0.516-0.522-1.026-0.529
		c-1.408-0.015-4.339,1.709-4.161,2.495C-84.961-462.701-84.565-462.271-83.692-462.289z"/>
	<path fill="#FFFFFF" d="M-87.457-453.217c0.526,0.356,1.312,0.522,1.951,0.298c1.822-0.639,3.586-1.377,5.904-2.286
		c-1.091-0.092-1.567-0.108-2.031-0.175c-0.845-0.123-2.296,0.67-2.391-0.55c-0.061-0.793,0.811-1.312,2.111-1.592
		c1.703-0.369,3.334-0.667,5.111-0.652c0.648,0.003,1.404-0.458,1.819,0.181c0.4,0.615-0.129,1.152-0.685,1.613
		c-0.526,0.436-1.635,0.203-1.985,1.057c0.387,0.058,0.765,0.065,1.079,0.175c1.819,0.63,3.719-0.519,5.575,0.157
		c3.826,1.398,7.452,3.098,11.574,4.053c2.738,0.636,5.43,0.707,8.181,0.12c0.584-0.126,1.192-0.353,1.097-0.91
		c-0.074-0.439-0.63-0.63-1.131-0.532c-2.655,0.522-5.341-0.9-7.987,0.184c-0.476,0.197-1.045,0.08-1.285-0.304
		c-0.304-0.489,0.24-0.648,0.728-0.756c0.648-0.144,1.626-0.098,1.497-0.824c-0.132-0.744-1.079-1.119-1.97-1.192
		c-0.971-0.08-2.007,0.003-2.972,0.169c-2.354,0.403-4.299,0.132-5.919-1.325c-0.691-0.621-1.503-1.693-2.895-0.111
		c-0.673,0.765-2.013,0.283-2.047-0.916c-0.031-1.073-0.175-2.517-1.573-2.674c-1.746-0.197-3.347-0.821-5.203-0.771
		c-1.66,0.043-2.483,0.529-3.682,1.398c-2.157,1.567-1.484,3.734-2.953,5.35C-87.702-453.847-87.659-453.356-87.457-453.217z"/>
	<path fill="#FFFFFF" d="M-77.503-446.112c2.133,0.144,2.529-0.489,1.604-1.948c-0.71-1.122-1.653-0.673-2.723-0.67
		c-1.361,0.003-2.809,1.306-3.912,0.307c-1.226-1.109-3.365-0.489-4.573-1.804c-0.572-0.624-2.102,0.313-2.133,1.38
		c-0.006,0.258,0.885,0.639,0.012,0.796c-2.704,0.486-1.251,2.096-2.243,3.749C-86.482-446.395-82.029-446.416-77.503-446.112z"/>
	<path fill="#FFFFFF" d="M-7.041-423.93c-1.414-0.63-2.311-1.881-4.435-2.001c0.095,1.712,1.73,2.486,2.797,3.497
		c0.605,0.575,1.678,0.572,2.409,0.025C-5.175-423.232-6.438-423.66-7.041-423.93z"/>
	<path fill="#FFFFFF" d="M-27.726-438.257c0.787-0.221,1.282-1.048,1.933-1.626c-0.854-1.202-1.893-2.17-2.652-3.27
		c-0.495-0.719-1.776,0.35-2.711,0.283c-1.573-0.117,0.025,1.22-1.088,1.223c-2.631,0-2.588,0.928-1.813,2.437
		c0.323,0.627-0.249,1.644,1.171,1.684c1.377,0.037,0.928-0.934,1.088-1.537c0.163-0.605,0.363-1.245,1.374-1.278
		c0.824-0.028,1.653,0.126,1.62,0.959C-28.83-438.761-28.86-437.938-27.726-438.257z"/>
	<path fill="#FFFFFF" d="M-25.243-428.171c-0.04,0.562,0.615,0.716,1.248,0.741c1.792,0.071,3.586,0.12,6.027,0.2
		c-2.028-1.417-3.912-1.709-5.944-1.653C-24.552-428.869-25.203-428.715-25.243-428.171z"/>
	<path fill="#FFFFFF" d="M-12.717-430.59c-1.893,0.126-3.851,0.095-5.347,1.156C-16.153-429.505-14.137-429.243-12.717-430.59z"/>
	<path fill="#FFFFFF" d="M-33.98-427.495c1.616-0.366,3.377,0.009,4.936-0.664C-30.766-428.331-32.603-429.096-33.98-427.495z"/>
	<path fill="#FFFFFF" d="M-72.841-421.063c-0.301,0.012-0.599,0.034-0.9,0.049c-3.251,0.163-6.524,0.187-9.745,0.522
		c-3.946,0.412,1.457,1.795-0.415,2.695c-0.621,0.298,0.338,0.676,0.94,0.691c0.258,0.006,0.741-0.141,0.759-0.252
		c0.32-1.792,1.948-0.9,3.178-1.205c2.452-0.605,4.416,0.771,6.832,0.092c0.704-0.347,2.711,0.495,2.643-0.827
		C-69.611-420.427-71.086-421.14-72.841-421.063z"/>
	<path fill="#FFFFFF" d="M8.454-450.642c-0.427-0.409-1.272,0.304-1.177,0.873c0.154,0.925,1.331,0.857,2.139,0.842
		c1.248-0.025,1.411-0.891,1.709-1.561C10.43-452.053,9.444-449.696,8.454-450.642z"/>
	<path fill="#FFFFFF" d="M36.976-459.883c-0.009,0.218-0.015,0.436-0.025,0.655c3.162,0.092,6.322,0.184,9.481,0.28
		c0.022-0.237,0.04-0.476,0.061-0.716C43.323-459.825,40.166-460.799,36.976-459.883z"/>
	<path fill="#FFFFFF" d="M53.4-458.681c2.271,0.529,4.61-0.983,6.386,1.543C58.818-459.61,56.356-460.021,53.4-458.681z"/>
	<path fill="#FFFFFF" d="M7.047-448.322c-0.888-0.108-1.761,0.479-2.114,1.088c-0.535,0.919-0.802,1.912-2.821,1.626
		c1.742-1.589,1.03-1.736-1.306-1.979c-2.231-0.234-2.876,1.58-4.822,1.281c2.462,1.899,5.676,1.893,8.703,1.878
		c0.467-0.003,5.206,0.206,2.738-2.631C7.207-447.311,7.963-448.211,7.047-448.322z"/>
	<path fill="#FFFFFF" d="M12.323-454.852c-1.088,0.529-3.104-0.003-3.304,1.033c-0.252,1.309,1.478,0.904,2.569,0.937
		c0.086,0.003,0.178,0.381,0.209,0.587c0.071,0.464,0.452,0.661,1.008,0.59c0.676-0.083,1.008-0.436,0.983-0.953
		c-0.018-0.433-0.052-0.867-0.049-0.817C14.293-455.181,13.405-455.378,12.323-454.852z"/>
	<path fill="#FFFFFF" d="M-139.36-440.298c-2.455-0.086-4.945-2.603-7.416,0.138c-0.249,0.277-1.109,0.049-1.635-0.258
		c-0.94-0.547-2.179-0.541-2.443,0.317c-0.227,0.741,0.996,1.275,2.016,1.361c3.03,0.261,6.242-2.034,8.799,0.375
		c1.168-0.181,1.008-0.725,1.195-1.112C-138.631-439.898-138.702-440.273-139.36-440.298z"/>
	<path fill="#FFFFFF" d="M-46.433-454.576c0.725-0.403,1.177-0.636,2.01-0.04c1.635,1.165,1.392,1.589-1.66,2.769
		c2.572-0.264,4.803,0.888,7.32,0.731c0.974-0.061,1.958,0.184,2.151,0.928c0.418,1.61,1.872,1.119,2.981,0.787
		c1.875-0.562,3.697-1.094,5.756-1.177c1.254-0.049,2.308-0.741,2.711-1.607c0.43-0.922-1.039-1.113-1.592-1.669
		c-1.721-1.736-2.388-0.27-3.122,0.608c-1.242,1.484-3.067,2.6-5.117,1.706c-1.438-0.627-2.778-1.343-4.542-1.521
		c2.419-1.386,4.96-1.862,8.356-1.312c-0.765-0.667-0.913-0.928-1.125-0.959c-2.114-0.313-3.98-0.51-5.006-2.462
		c-0.851-1.62-4.263-1.684-6.405-0.682c-1.739,0.814-2.468,3.039-5.522,2.142c-0.661-0.194-0.836,0.719-0.455,1.214
		C-48.9-454.102-47.763-453.838-46.433-454.576z"/>
	<path fill="#FFFFFF" d="M-44.278-460.316c0.464,0.2,1.192-0.052,1.34-0.688c-0.387-0.91-1.494-1.088-2.578-1.202
		c-0.793-0.083-2.013-0.015-1.908,0.688C-47.235-460.237-45.326-460.762-44.278-460.316z"/>
	<path fill="#FFFFFF" d="M-25.612-444.533c0.141,0.605,0.894,1.076,1.478,0.799c1.325-0.63,3.104-0.504,4.902-1.942
		c-2.247,0.028-3.719-0.009-5.178,0.083C-25.133-445.55-25.772-445.209-25.612-444.533z"/>
	<path fill="#FFFFFF" d="M-103.926-445.135c-0.691-0.295-1.02-0.074-1.364,0.403c-1.315,1.819,1.242,2.059,2.099,3.018
		C-103.293-442.888-101.83-444.238-103.926-445.135z"/>
	<path fill="#FFFFFF" d="M-141.194-436.094c-0.141,0.854-0.221,1.211-0.258,1.57c-0.111,1.1,0.759,1.804,1.789,2.419
		c0.117,0.071,0.661-0.052,0.71-0.16c0.43-0.94-0.181-1.742-0.716-2.52C-139.928-435.159-140.423-435.445-141.194-436.094z"/>
	<path fill="#FFFFFF" d="M4.044-450.461c0.627-1.724-0.676-2.286-2.345-2.83C1.706-451.856,2.105-450.796,4.044-450.461z"/>
	<path fill="#FFFFFF" d="M-56.817-460.332c0.058,0.599,0.695,1.57,1.632,1.543c1.023-0.031,2.025-0.621,2.394-1.58
		c-0.144-0.925-1.3-0.71-2.062-0.864C-55.846-461.432-56.894-461.109-56.817-460.332z"/>
	<path fill="#FFFFFF" d="M-0.851-442.686c-0.111-0.639-0.836-0.799-1.598-0.618c-0.719,0.172-1.829,0.16-1.819,0.919
		c0.009,0.824,1.057,0.688,1.835,0.716C-1.641-441.782-0.707-441.856-0.851-442.686z"/>
	<path fill="#FFFFFF" d="M-57.677-463.125c0.759-0.151,1.475-0.722,1.266-1.377c-0.227-0.713-1.156-0.522-1.758-0.292
		c-1.057,0.403-2.428,0.16-3.442,1.039C-60.367-463.085-59.042-462.852-57.677-463.125z"/>
	<path fill="#FFFFFF" d="M-0.317-433.564c-0.363-0.861-1.343-0.993-2.812-0.658c2.053,0.599,2.121,1.804,1.813,3.039
		c-0.224,0.904,0.267,1.635,0.728,2.351c0.479,0.747,1.663,1.054,2.532,0.716c1.051-0.409,0.781-1.229,0.218-1.942
		C1.272-431.198,0.227-432.274-0.317-433.564z"/>
	<path fill="#FFFFFF" d="M-36.946-445.375c-1.577-0.747-2.566,0.756-3.543,0.058c-1.789-1.281-4.195-0.701-6.229-1.254
		c-0.907-0.246-2.572-0.581-3.049,0.676c-0.455,1.202,1.039,1.199,2.007,1.497c0.356,0.111,0.633,0.357,0.959,0.522
		c3.479,1.77,3.482,1.773,0.025,3.568c-0.744,0.387-2.409,0.418-1.681,1.438c0.765,1.073,1.998,0.277,2.787-0.203
		c2.68-1.62,5.301-3.162,8.918-0.885c-0.264-1.134-0.264-1.746,0.679-2.511C-34.764-443.528-34.933-444.419-36.946-445.375z"/>
	<path fill="#FFFFFF" d="M-97.063-438.294c0.581,0.049,1.152,0.172,1.727,0.261c1.561-1.441,2.44-4.641,5.888-1.291
		c0.135,0.129,0.615,0.028,0.864,0.126c1.764,0.698,4.164,0.393,5.36,2.059c0.366,0.51,1.57,0.51,2.348-0.04
		c-0.043-0.953-2.065-0.304-1.875-1.681c1.143-0.003,2.09-1.257,3.304-0.738c2.591,1.109,2.8-0.507,3.54-1.524
		c0.378-0.519-0.347-1.214,0.332-1.724c0.624-0.467,1.288-1.131,0.163-1.392c-1.235-0.289-3.399-1.214-3.798-0.369
		c-0.848,1.798-1.371,2.91-4.066,1.595c-0.086-0.043-0.464,0.234-0.698,0.369c-1.967,1.137-3.98,1.116-6.174,0.384
		c-1.709-0.572-3.384-1.331-5.403-1.208c-0.482,0.028-1.1-0.114-1.248,0.36c-0.071,0.221,0.175,0.599,0.439,0.753
		c1.951,1.137,2.652,1.958-0.765,1.97c-1.168,0.003-1.543,0.615-1.607,1.358C-98.824-437.993-97.786-438.352-97.063-438.294z"/>
	<path fill="#FFFFFF" d="M-74.955-423.383c-0.759-0.473-1.693-0.307-2.557-0.418c-0.648-0.083-2.084,0.805-1.844-0.532
		c0.132-0.728-1.097-2.185,1.503-2.105c1.06,0.034,2.034-0.572,3.199-0.55c0.728,0.015,1.838-0.018,1.749-0.857
		c-0.083-0.768-1.125-0.762-1.899-0.719c-0.676,0.037-1.503,0.123-1.979,0.433c-3.909,2.542-8.344,1.62-12.649,1.199
		c-0.95-0.092-1.684,0.267-1.653,0.541c0.104,0.934-1.235,1.847-0.731,2.428c0.655,0.75,1.165-0.36,1.752-0.639
		c2.259-1.085,6.051-0.304,7.17,1.469C-80.133-421.441-77.192-421.524-74.955-423.383z"/>
	<path fill="#FFFFFF" d="M-90.167-431.886c0.802,0.876-0.734,0.725-1.26,1.011c-0.43,0.234-0.873,0.529-0.581,0.916
		c0.218,0.289,0.682,0.575,1.109,0.652c1.085,0.194,2.363,0.283,3.122-0.393c1.441-1.278,2.744,0.098,2.714,0.387
		c-0.243,2.311,2.228,1.238,3.457,1.629c0.249,0.08,0.827-0.123,1.033-0.323c0.384-0.372-0.052-0.639-0.375-0.94
		c-2.428-2.271-4.853-4.542-7.191-6.862c-0.393-0.39-0.608-0.744-1.34-0.615c-0.854,0.154-1.454,0.553-1.727,1.162
		c-0.24,0.535,0.286,0.817,0.802,1.069c0.725,0.353,1.447,0.71,2.843,1.395c-2.591,0.212-3.651-1.656-5.529-0.759
		c-0.962,0.458-1.844,1.033-2.695-0.12c-0.283-0.381-0.891-0.191-1.309,0.065c-0.439,0.267-0.489,0.959-0.301,0.934
		c1.586-0.224,1.844,3.439,4.287,0.744C-92.5-432.612-90.834-432.618-90.167-431.886z"/>
	<path fill="#FFFFFF" d="M-36.586-437.922c-2.056,0.648-4.143,1.057-6.401,0.799c-0.645-0.074-1.165,0.32-1.202,0.83
		c-0.046,0.63,0.682,0.636,1.26,0.698c0.596,0.065,1.199,0.089,1.933,0.141c1.534-0.427,3.199-0.857,4.822-1.365
		c0.409-0.129,0.916-0.446,0.624-0.897C-35.744-438.017-36.178-438.051-36.586-437.922z"/>
	<path fill="#FFFFFF" d="M-92.537-420.23c-0.347,0.197-0.326,0.605,0.015,0.765c1.229,0.569,2.382,0.2,4.223-0.47
		C-90.047-420.709-91.252-420.949-92.537-420.23z"/>
	<path fill="#FFFFFF" d="M-44.263-433.804c-0.774-0.04-1.564,0.055-3.175,0.129c1.251,0.658,1.801,0.947,2.351,1.238
		c0.916,0.489,1.875,0.473,2.815,0.055c0.335-0.151,0.605-0.455,0.387-0.774C-42.395-433.896-43.406-433.761-44.263-433.804z"/>
	<path fill="#FFFFFF" d="M-50.265-437.673c-0.59-0.065-1.543,0.197-1.119,0.63c0.639,0.655,1.712,1.325,2.72,1.438
		c0.741,0.083,1.675-0.71,3.125-1.398C-47.518-437.292-48.882-437.52-50.265-437.673z"/>
	<path fill="#FFFFFF" d="M-52.315-434.788c-1.435-0.252-3.079,0.261-4.355-0.507c-2.016-1.217-3.353-0.157-5.252,0.774
		c3.325,0.962,6.5,0.313,9.435,0.876c0.59,0.114,1.46,0.63,1.632-0.264C-50.726-434.56-51.642-434.668-52.315-434.788z"/>
	<path fill="#FFFFFF" d="M-81.882-433.74c2.299,1.933,2.299,1.933,5.993-0.529C-77.893-434.588-78.12-434.569-81.882-433.74z"/>
	<path fill="#FFFFFF" d="M-99.881-433.869c-0.916,0.117-1.512,0.479-1.291,1.202c0.163,0.538,0.329,1.189,1.275,1.214
		c1.208-0.108,1.254-0.652,1.152-1.303C-98.827-433.319-98.551-434.041-99.881-433.869z"/>
	<path fill="#FFFFFF" d="M-92.733-453.875c0.184,0.243,0.821-0.246,0.744-0.473c-0.489-1.417-1.063-2.818-1.663-4.213
		c-0.04-0.092-0.645-0.184-0.768-0.098c-1.318,0.916,0.083,2.191-0.768,3.184c-0.052,0.061-0.065,0.144-0.234,0.544
		C-94.645-454.597-93.333-454.656-92.733-453.875z"/>
	<path fill="#FFFFFF" d="M-94.261-434.901c0.476,0.415,1.42,0.762,1.647,0.068c0.31-0.953,0.393-2.105-0.065-2.975
		c-0.353-0.676-1.699-0.338-2.661-0.169C-95.579-436.834-95.272-435.783-94.261-434.901z"/>
	<path fill="#FFFFFF" d="M-82.957-423.14c-1.137-0.409-2.314-0.172-3.457,0c-0.781,0.117-0.999,0.624-0.347,0.95
		c0.811,0.406,1.838,0.913,2.701,0.839C-82.881-421.444-82.89-422.378-82.957-423.14z"/>
	<path fill="#FFFFFF" d="M-56.427-422.529c-1.051-0.2-2.185-0.141-3.261-0.289c-1.912-0.261-4.106-0.252-5.624-0.993
		c-1.699-0.824-3.211-0.971-5.559-0.661c2.222,1.026,3.98,1.911,6.199,2.505c2.606,0.698,5.36,0.068,7.8,1.005
		c1.011,0.39,2.603,0.925,2.993-0.344C-53.464-422.652-55.406-422.335-56.427-422.529z"/>
	<path fill="#FFFFFF" d="M-82.896-423.137c-0.022-0.012-0.043-0.025-0.065-0.037c0,0.012,0.003,0.025,0.003,0.034
		c0.025,0.009,0.052,0.015,0.077,0.025C-82.884-423.122-82.893-423.131-82.896-423.137z"/>
	<path fill="#FFFFFF" d="M-9.871-456.469c-1.26-0.108-2.545-0.258-3.857-0.455C-12.52-456.506-11.386-456.186-9.871-456.469z"/>
	<path fill="#FFFFFF" d="M-17.142-456.85c0.061-0.261,0.138-0.467,0.224-0.624c-1.076-0.212-2.173-0.452-3.282-0.716
		c0.313,0.255,0.565,0.636,0.725,1.214C-19.3-456.334-17.327-456.069-17.142-456.85z"/>
	<path fill="#FFFFFF" d="M-7.751-437.99c0.009-0.006,0.015-0.009,0.025-0.012c-0.015-0.022-0.028-0.04-0.043-0.061
		c-0.015,0.003-0.028,0.006-0.04,0.009C-7.787-438.033-7.769-438.011-7.751-437.99z"/>
	<path fill="#FFFFFF" d="M-95.339-437.981c0.003-0.018,0.003-0.034,0.009-0.052c-0.003,0-0.003,0-0.006,0
		c-0.022,0.022-0.046,0.043-0.068,0.065C-95.385-437.971-95.361-437.977-95.339-437.981z"/>
	<path fill="#FFFFFF" d="M1.029-462.883c-2.065-0.31-3.964-0.372-6.294-0.052C-1.65-461.914-0.99-461.911,1.029-462.883z"/>
	<path fill="#FFFFFF" d="M-12.164-461.42c-0.836,0.344-1.764,0.824-2.833,0.486c-2.505-0.79-4.862,0.015-7.28,0.559
		c4.806,2.259,9.306,0.203,14.143-0.464C-9.914-462.403-9.883-462.36-12.164-461.42z"/>
	<path fill="#FFFFFF" d="M-14.564-468.107c1.177-0.252,1.703,0.028,1.684,0.956c-0.015,0.744,0.747,0.996,1.549,1.171
		c2.566,0.556,5.188,1.312,7.32-1.457c-1.103,0.003-1.73-1.02-3.018-0.344c-0.704,0.369-1.364,1.199-2.28,0.682
		c-0.796-0.449,0.191-1.082,0.323-1.641c0.126-0.522,0.347-1.257-0.35-1.432c-1.776-0.449-3.5,0.264-5.243,0.501
		c-0.618,0.083-0.947,0.569-0.983,1.045C-15.603-468.11-15.108-467.99-14.564-468.107z"/>
	<path fill="#FFFFFF" d="M-105.293-465.098c0.022-0.393-0.439-0.661-1.039-0.584c-0.581,0.077-0.897,0.436-0.814,0.808
		c0.227,1.005-0.286,2.053,0.63,3.119c-1.733,0.138-1.159-1.183-2.262-1.177c-0.461,1.048,0.323,2.895,1.441,3.371
		c0.35,0.151,0.658,0.191,0.934,0.169c0.817-1.069,1.641-2.182,2.471-3.334c-0.086-0.126-0.178-0.249-0.277-0.372
		C-104.709-463.734-105.333-464.275-105.293-465.098z"/>
	<path fill="#FFFFFF" d="M-117.903-449.158c-0.725,0.384-0.32,0.916,0.24,1.309c0.08,0.055,0.157,0.114,0.237,0.169
		c0.274-0.206,0.547-0.415,0.827-0.642c-0.052-0.055-0.098-0.123-0.135-0.209C-116.925-448.967-117.217-449.52-117.903-449.158z"/>
	<path fill="#FFFFFF" d="M-14.708-457.259c-0.519-0.175-1.62-1.285-2.21-0.215c1.079,0.212,2.142,0.396,3.187,0.553
		C-14.048-457.031-14.37-457.145-14.708-457.259z"/>
	<path fill="#FFFFFF" d="M-22.087-458.663c0.633,0.166,1.263,0.323,1.887,0.47C-20.707-458.605-21.371-458.678-22.087-458.663z"/>
	<path fill="#FFFFFF" d="M-31.012-462.959c1.875-0.793,3.279-0.719,4.889-0.221c1.457,0.452,2.689,1.337,4.398,1.343
		c0.968,0.003,1.875,0.003,1.752-1.039c-0.166-1.42-3.491-3.061-5.338-2.618c-2.087,0.501-4.296,0.698-6.18,1.696
		c-1.1,0.584-2.182,0.289-3.337-0.23c-1.878-0.848-3.884-1.675-6.463-1.051c0.04,0.037,0.08,0.061,0.12,0.095
		c0.974,0.301,1.982,0.618,3.058,0.974c0.526,0.101,1.192,0.098,1.392,0.473c1.199,0.409,2.434,0.839,3.749,1.312l-0.295,0.012
		c2.256,0.833,4.447,1.58,6.577,2.24C-27.514-461.61-29.235-462.102-31.012-462.959z"/>
	<path fill="#FFFFFF" d="M-116.683-464.198c-0.375-0.092-0.953,0.353-0.857,0.741c0.221,0.919,1.082,1.546,2.117,1.961
		c0.602,0.243,0.799-0.209,0.907-0.753C-115.204-462.836-115.392-463.881-116.683-464.198z"/>
	<path fill="#FFFFFF" d="M6.275-461.749c0.476-0.464,0.925-0.943,1.346-1.438c-0.953-0.144-1.982-0.255-2.99-0.513
		C5.224-462.852,5.75-462.219,6.275-461.749z"/>
	<path fill="#FFFFFF" d="M-8.965-456.696c-0.32,0.101-0.621,0.175-0.91,0.227c1.515,0.129,2.993,0.191,4.435,0.191
		C-6.46-456.859-7.618-457.12-8.965-456.696z"/>
	<path fill="#FFFFFF" d="M-38.114-464.017c0.449,0.151,0.925,0.313,1.392,0.473C-36.918-463.918-37.588-463.915-38.114-464.017z"/>
	<g id="SrC3q3_1_">
		<g>
			<path fill="#FFFFFF" d="M65.8-272.77c-1.143,0.633-2.228,0.148-2.972-0.304c-6.288-3.82-12.757-7.452-18.359-11.887
				c-4.607-3.645-8.636-7.548-12.794-11.432c-2.827-2.64-5.774-5.209-8.018-8.113c-5.75-7.44-11.334-14.951-14.484-23.282
				c-0.931-2.462-2.726-4.714-3.122-7.311c-0.157-1.03-0.9-1.116-2.342-0.91c-5.129,0.731-10.292,1.355-15.473,1.825
				c-2.483,0.224-5.031,0.009-7.557-0.006c1.334,1.116,3.251,0.581,4.975,0.734c2.084,0.184,4.767-0.793,5.987,1.352
				c-6.736,1.779-14.552-0.575-16.598-5.258c-2.655-6.085-7.932-9.963-16.494-11.589c-3.912-0.744-6.961-2.797-10.473-4.164
				c-1.451-0.565-1.414-1.712-1.266-2.6c0.418-2.545-1.334-4.158-3.672-5.738c-4.822-3.258-8.424-7.234-11.789-11.312
				c-0.47-0.569-1.795-1.426-0.307-2.022c1.368-0.547,1.819,0.67,2.382,1.248c1.69,1.733,3.175,3.571,4.816,5.332
				c2.548,2.729,5.363,5.283,9.281,7.274c0.897-2.231,1.942-4.121,3.267-5.965c3.448-4.794,8.777-8.399,14.048-12.053
				c3.832-0.615,7.105-1.715,8.599-4.687c0.977-1.939,2.563-3.633,4.515-5.175c0.94-0.744,2.379-2.056,2.05-2.597
				c-1.586-2.591,1.318-1.285,2.772-1.577c-0.756-0.301-1.171-0.439-1.546-0.624c-2.8-1.383-6.647-1.749-7.658-4.828
				c-0.495-1.506-1.534-0.255-2.188,0.31c-5.101,4.388-8.03,9.616-11.119,14.791c-0.79,1.325,0.246,1.638,1.401,2.253
				c1.106,0.584,3.51,0.283,3.052,2.084c-0.836,0.338-1.589,0.264-2.431-0.061c-5.163-2.004-9.705-4.813-15.351-6.183
				c-5.154-1.251-10.268-2.634-15.95-1.699c-5.111,0.842-6.263,1.69-5.842,5.436c1.297,11.472,7.259,21.666,15.566,31.257
				c4.407,5.086,9.997,9.453,15.357,13.937c3.052,2.554,5.028,5.713,8.491,7.926c3.27,2.087,3.743,4.788,4.133,7.585
				c0.166,1.189,0.608,2.28,1.3,3.313c2.213,3.316,4.524,6.598,8.227,9.192c1.939,1.358,3.411,2.597,7.108,1.475
				c3.095-0.937,5.39-2.704,8.473-3.387c1.746-0.384,2.815-1.039,3.436-2.207c0.95-1.792,2.916-2.757,5.353-2.876
				c2.631-0.129,2.84-1.278,2.36-2.548c-0.572-1.512-1.149-3.064-2.784-4.269c-2.701-1.988-5.344-4.026-7.821-6.159
				c-0.584-0.504-2.302-1.033-1.371-1.85c1.097-0.962,2.13,0.049,3.021,0.584c0.652,0.393,1.386,0.756,1.868,1.245
				c2.711,2.747,6.592,4.782,8.752,7.88c-0.289-1.371-0.993-2.581-0.953-3.943c0.08-2.833-1.856-4.511-5.504-5.507
				c-2.766-0.753-5.894-0.824-8.322-2.203c0.396-0.565,0.817-1.272,1.865-1.017c3.78,0.916,7.671,1.626,11.214,2.999
				c1.626,0.63,2.578,1.472,2.578,2.901c0,1.066-0.141,2.339,0.562,3.156c2.569,2.984,0.003,5.535-1.165,8.181
				c-0.55,1.248-1.912,2.188-3.845,2.207c-2.452,0.028-3.454,1.011-4.047,2.572c-0.572,1.5-1.915,2.514-4.213,2.545
				c-1.205,0.015-2.336,0.28-2.864,1.03c-1.927,2.747-5.719,2.465-8.878,2.873c-3.983,0.519-6.232-1.663-8.156-3.715
				c-4.447-4.742-8.393-9.628-9.072-15.636c-0.27-2.385-3.663-3.605-5.338-5.47c-2.111-2.351-4.736-2.213-8.113-2.268
				c-9.238-0.154-18.387-0.977-27.308-2.892c-4.133-0.888-8.421-1.451-12.566-2.704c-0.31,2.234,1.251,3.777,2.677,5.581
				c1.076-1.887,2.268-3.384,5.366-2.203c2.652,1.008,3.841,3.129,2.452,4.899c-1.53,1.948-3.589,1.801-6.297,0.209
				c2.29,4.825,5.129,8.897,8.399,12.821c0.378,0.455,0.885,0.87,1.152,1.355c0.412,0.753-0.077,1.417-0.879,1.887
				c-0.86,0.504-1.423-0.175-1.807-0.489c-4.361-3.54-8.464-7.247-11.125-11.632c-0.897-1.478-2.068-2.714-3.236-3.961
				c-1.589,0.335-0.642,2.72-3.439,1.764c-2.809-0.962-5.301-3.334-4.551-5.132c0.516-1.235,1.715-2.2,3.863-1.604
				c-4.109-5.753-4.109-5.753-19.607-9.465c1.432,2.182,2.477,4.207,4.004,6.011c4.837,5.704,8.442,12.001,14.164,17.25
				c8.832,8.101,16.989,16.638,27.259,23.857c6.063,4.262,11.982,8.669,19.075,12.078c1.011,0.486,1.524,1.1,1.653,1.942
				c-0.974,0.618-2.074,0.215-2.661-0.16c-6.063-3.848-12.437-7.431-18.166-11.561c-7.028-5.068-13.261-10.655-19.696-16.088
				c-4.736-4.001-8.482-8.639-12.459-13.095c-4.244-4.751-8.427-9.542-12.287-14.465c-2.511-3.199-4.438-6.65-6.558-10.012
				c-2.17-3.436-4.14-6.921-5.805-10.532c-2.197-4.766,0.028-8.018,6.909-9.087c4.588-0.713,9.198-0.759,13.826-0.661
				c1.337,0.028,2.689,0.255,4.121-0.252c-3.058-7.972-5.876-15.996-6.365-24.352c-0.083-1.435-1.174-1.506-2.671-1.46
				c-5.639,0.175-10.784,1.693-15.67,3.556c-5.931,2.259-11.005,5.455-15.372,9.137c-5.145,4.339-7.566,9.318-6.011,15.068
				c0.16,0.59,0.814,1.687-0.387,1.89c-1.226,0.206-2.72-0.147-2.652-1.521c0.691-1.171,0.559-2.406,0.722-3.629
				c0.55-4.161,1.878-8.098,5.566-11.577c6.404-6.045,14.619-10.191,24.837-13.113c-4.496-1.143-8.319-2.268-12.428-2.929
				c-2.492-0.4-5.298-0.255-7.394-1.616c2.065-1.288,4.259,0.117,6.036-0.184c-20.366-24.585-28.78-51.55-28.799-80.032
				c-4.711,3.448-9.69,7.474-14.339,11.789c-8.322,7.723-15.351,15.99-21.878,24.53c-3.838,5.022-7.474,10.12-10.75,15.329
				c-3.387,5.381-6.205,10.922-7.182,16.875c-0.473,2.886-0.313,5.894-2.234,8.648c-0.953-4.084,0.206-8.098,0.986-12.096
				c0.774-3.958,3.138-7.649,5.35-11.853c-3.267,0.98-3.94,3.393-7.09,3.55c0.406-2.068,3.433-2.72,4.044-4.687
				c-0.784,0.006-1.374-0.034-1.948,0.022c-6.644,0.636-12.542,2.867-18.574,4.816c-4.18,1.349-8.218,2.821-11.408,5.335
				c-6.368,5.018-7.517,11.005-6.979,17.431c0.661,7.904,1.5,15.808,0.458,23.768c-1.051,8.027-3.009,15.999-0.704,24.115
				c3.691,12.987,10.722,24.137,26.583,31.746c8.421,4.041,16.641,4.641,25.563,1.678c10.393-3.454,16.761-9.327,14.293-18.378
				c-0.842-3.089-1.715-6.146-2.852-9.201c-3.178-8.537-4.112-17.37-4.164-26.233c-0.058-10.249,3.811-18.943,18.015-23.786
				c10.387-3.54,21.082-5.145,32.397-4.582c1.242,0.061,2.13,0.363,2.452,1.288c-0.695,0.148-1.414,0.467-2.077,0.421
				c-10.572-0.75-20.772,0.443-30.391,3.817c-8.497,2.978-15.406,7.142-17.406,14.355c-1.226,4.425-0.639,8.878-0.839,13.322
				c-0.187,4.207,2.216,7.283,5.916,10.301c0.384-0.443,0.698-0.802,1.008-1.165c7.409-8.706,17.505-11.942,30.237-10.025
				c1.561,0.234,3.199,0.406,3.715,1.779c-3.525,0.624-6.746-0.599-10.089-0.913c-9.075-0.851-19.149,5.661-22.367,10.157
				c-0.39,0.547-0.624,1.112-1.171,1.641c-1.168,1.128-1.884,1.223-2.843-0.089c-0.968-1.325-2.185-2.551-3.417-3.964
				c0.015,6.435,3.113,12.164,5.028,18.095c2.305,7.133,2.87,14.232-5.286,19.988c-4.644,3.276-10.181,5.562-16.737,6.272
				c-8.875,0.962-17.41,0.676-25.443-2.542c-5.123-2.053-9.969-4.478-13.331-7.83c-5.771-5.75-11.623-11.571-14.465-18.577
				c-3.334-8.227-3.021-16.586-1.782-25.083c0.762-5.246,1.383-10.409,4.097-15.384c1.232-2.259,0.544-4.548-0.375-6.826
				c-2.333-5.781-4.262-11.657,0.974-17.25c5.713-6.1,11.743-11.862,21.801-14.813c5.765-1.69,11.346-3.743,17.354-4.979
				c1.266-0.261,2.717-0.519,3.937-0.326c3.894,0.608,6.146-0.919,7.554-3.135c5.556-8.746,12.087-17.127,19.201-25.225
				c7.837-8.921,16.912-17.231,27.49-24.585c4.972-3.457,8.802-7.723,14.834-10.467c3.341-1.518,6.242-1.598,9.671-0.652
				c6.438,1.773,10.384,5.384,13.746,9.459c3.943,4.782,6.77,9.969,10.095,14.973c3.279,4.936,6.168,10,9.465,14.93
				c2.689,4.017,4.499,8.427,5.36,12.96c-1.177,0.648-2.572,0.516-3.884,0.565c-13.537,0.529-26.992,1.703-40.434,3.036
				c-2.88,0.286-3.291,1.069-2.526,2.751c3.018,6.623,5.203,13.473,9.127,19.84c1.1,1.785,0.94,4.594,5.012,4.985
				c2.4,0.23,4.748,0.691,7.136,0.996c4.892,0.624,9.899,0.959,14.65,1.924c2.274,0.461,2.474,0.249,3.147-1.214
				c4.398-9.521,10.141-18.574,23.808-22.812c5.968-1.85,8.676-6.023,13.9-8.19c0.642-0.267,0.234-0.817,0.141-1.242
				c4.312-1.829,8.805-3.38,13.448-4.684c7.24-2.034,14.674-2.978,22.357-2.084c1.65,0.191,3.211,0.172,4.65-0.418
				c3.688-1.515,7.849-1.242,11.749-1.537c2.2-0.166,4.041,1.752,5.105,3.353c1.223,1.844,2.581,2.087,4.739,0.685
				c0.894-0.581,2.127-0.894,3.233-1.288c0.615-0.218,1.543-0.114,1.294-0.977c-0.221-0.765-0.959-0.658-1.69-0.648
				c-0.618,0.006-1.242,0.046-1.847-0.009c-0.787-0.071-1.487-0.35-1.288-1.017c0.154-0.516,0.793-0.587,1.481-0.479
				c1.509,0.237,2.904-0.144,5.098-0.765c-2.92,0.132-5.043,0.16-7.142,0.36c-0.762,0.074-1.497,0.372-1.832-0.298
				c-0.32-0.639,0.587-0.836,1.076-1.217c3.488-2.707,7.996-3.261,12.748-3.433c-3.728,0.172-7.548-1.672-11.119,0.538
				c-0.587,0.363-1.199,0.224-1.469-0.277c-0.28-0.519,0.304-0.824,0.793-1.085c5.317-2.827,11.269-4.14,17.658-3.245
				c2.532,0.357,4.17,0.203,6.331-0.854c2.127-1.042,4.616-1.976,7.44-1.939c-3.66-1.238-7.121-0.876-10.556,0.87
				c0.572-2.618,4.788-3.614,11.835-2.717c4.401,0.559,9.622-0.802,13.236,3.236c-0.012-1.62-0.655-2.554,0.191-3.617
				c3.076,2.308,7.769,1.469,11.236,3.147c1.712,0.83,3.808,1.269,4.232,3.374c1.076-1.008-0.645-2.283,1.14-2.437
				c1.334-0.114,1.325,0.953,1.358,1.595c0.098,1.838,0.526,3.049,3.814,2.431c1.094-0.206,3.03-0.347,3.848,0.916
				c-5.692,1.601-9.223,0.839-13.172-2.975c2.91,3.451-2.431,2.21-3.387,3.562c-0.32,0.452-2.231,0.224-3.387-0.249
				c-1.386-0.565-2.348-1.441-3.802-2.913c0.387,0.983,0.556,1.232,0.575,1.49c0.061,0.774,1.447,1.656,0.47,2.207
				c-1.248,0.704-2.136-0.492-2.956-0.98c-2.907-1.724-6.143-2.953-9.779-3.774c0.986,0.876,2.446,1.42,3.021,2.502
				c0.498,0.937,2.419,1.948,1.263,2.757c-1.352,0.947-2.452-0.599-3.651-1.082c-0.16-0.065-0.396-0.031-0.888-0.061
				c0.768,0.836,1.481,1.53,2.065,2.277c0.455,0.581,1.411,1.211,0.618,1.915c-0.993,0.882-1.73-0.132-2.505-0.378
				c-5.67-1.782-11.939-1.758-17.855-2.809c-1.199-0.212-3.534-0.91-5.464,0.476c4.186-0.329,7.302,1.238,10.738,2.059
				c0.814,0.194,1.822,0.599,1.331,1.309c-0.387,0.562-1.38,0.433-2.243,0.151c-1.242-0.406-2.572-0.664-4.057-1.033
				c0.43,0.645,1.441,0.842,1.045,1.512c-0.406,0.695-1.131,0.427-1.878,0.344c-2.388-0.264-4.763-1.03-7.523-0.178
				c1.242,0.108,2.548-0.068,2.704,0.851c0.117,0.688-1.128,0.864-1.801,1.189c-0.704,0.341-1.58,0.498-2.391,0.713
				c-7.164,1.884-13.288,4.77-17.446,9.637c1.57-0.194,2.591-1.829,4.558-0.937c-0.701,2.004-3.998,1.939-5.31,3.494
				c1.235,0.356,2.849-0.584,3.436,0.541c0.436,0.839-1.238,0.974-1.666,1.589c-0.157,0.224-1.165,0.249,0.031,0.796
				c1.718,0.79,1.417,1.152-0.602,1.549c-4.932,0.974-9.137-0.433-13.049-1.979c6.958,6.629,15.661,9.487,27.447,5.003
				c-1.023,2.904-3.574,4.207-6.149,5.636c-2.575,1.429-5.771,1.478-8.636,2.462c3.823,0.95,7.062-0.535,10.483-0.916
				c0.55-0.061,1.076-0.547,1.561,0.012c0.369,0.424,0.329,0.904-0.203,1.22c-1.865,1.112-3.175,2.566-5.811,3.181
				c-3.894,0.907-7.778,0.344-11.663,0.87c7.191,3.672,14.788,4.462,23.728,0.934c-2.944,5.028-7.747,6.555-13.937,6.552
				c2.735,0.541,5.264,0.55,7.711-0.295c0.526-0.181,1.119-0.599,1.487,0.018c0.151,0.255,0.015,0.833-0.258,0.962
				c-3.058,1.447-5.178,3.737-8.974,4.591c-5.507,1.238-10.264,0.074-15.126-1.451c5.221,6.444,13.894,7.615,23.181,8.03
				c4.158,0.187,5.913-2.422,8.755-3.731c0.882,0.731,0.661,1.368,0.292,2.084c-1.57,3.052-4.45,4.791-8.921,5.375
				c-1.515,0.197-3.943-0.363-4.419,1.607c-2.698,0.75-4.73-0.273-6.847-1.211c-1.269-0.562-2.901-1.733-4.186-0.553
				c-2.262,2.081-4.478,4.213-6.177,6.61c-1.168,1.65,1.902,2.084,1.3,3.424c-2.142,0.615-4.564,0.95-6.38,1.899
				c-6.933,3.626-13.587,7.505-16.902,13.537c-1.61,2.932-2.588,5.971-3.092,9.084c-0.163,0.996,0.326,1.872,1.727,2.065
				c1.229,0.169,1.208-0.845,1.297-1.312c1.073-5.759,5.575-10.249,10.403-14.604c3.258-2.938,7.016-5.618,11.386-7.569
				c2.191-0.977,3.777-1.238,1.675-3.049c1.862-0.747,3.193,0.243,4.25,0.928c2.944,1.908,5.639,4.02,8.596,6.168
				c2.077-3.463,5.234-6.401,9.398-9.954c-7.434,1.334-12.843-0.221-17.993-2.52c-0.821-0.366-2.164-0.667-1.552-1.469
				c0.725-0.956,1.736-0.058,2.462,0.255c7.44,3.23,14.023,1.635,19.161-1.235c-3.012,0.79-5.876,1.506-8.344-0.452
				c3.153-1.094,7.124,0.129,9.942-2.004c0.522-0.396,1.469-0.931,2.213-0.264c0.559,0.501,0.252,1.146-0.083,1.776
				c-1.082,2.022-3.719,2.91-6.131,4.312c15.2-1.109,24.711-6.232,28.307-11.22c-4.475,0.077-7.864,2.99-12.477,2.578
				c1.825-0.928,3.42-1.933,5.455-2.621c5.719-1.927,10.132-4.877,13.036-9.124c1.463-2.139,0.569-4.945,3.875-6.574
				c0.655-0.323,1.211-1.063,1.988-0.824c1.008,0.313,0.341,1.036,0.178,1.635c-1.008,3.679-2.969,7.056-6.896,10.433
				c4.441-1.162,6.137-3.448,7.895-5.523c2.36-2.784,4.447-5.676,7.821-7.92c1.039,0.784-0.618,1.558,0.194,2.372
				c2.376-2.741,3.878-5.642,4.192-8.792c0.108-1.082,0.876-1.945,1.976-1.991c1.616-0.065,1.02,1.192,1.082,1.878
				c0.366,4.02-0.983,7.772-3.823,11.266c-0.704,0.864-1.475,1.724-1.444,2.938c6.7-3.095,11.03-13.316,9.389-19.635
				c-0.166-0.645-0.608-1.3,0.384-1.641c1.318-0.452,1.835,0.455,2.038,1.063c0.679,2.034,1.156,4.109,1.712,6.183
				c0.32-2.084,0.547-4.127-0.538-6.177c-0.559-1.057-0.747-2.268-0.765-3.414c-0.009-0.519,0.111-1.331,1.017-1.647
				c1.106-0.387,1.374,0.406,1.976,0.799c1.275,0.836,2.48,1.792,4.444,2.268c-0.436-1.994-2.661-2.48-4.093-3.485
				c-0.436-0.307-0.94-0.618-0.424-1.128c0.353-0.35,0.845-0.436,1.269-0.169c1.65,1.042,4.564,0.187,5.728,1.982
				c0.16,0.246,0.624,0.867,0.934-0.148c0.326-1.063,1.288-0.633,2.225-0.175c3.725,1.816,5.894,4.299,6.617,7.542
				c0.655,2.935-0.673,5.639-1.666,8.399c-0.578,1.61-2.545,0.652-3.679,1.165c-0.476,0.215-0.805,0.667-1.076,1.057
				c-0.673,0.956-1.263,1.945-1.912,2.91c-0.27,0.403-0.612,0.86-1.358,0.707c-1.005-0.206-0.784-0.781-0.522-1.306
				c0.209-0.424,0.449-0.839,0.713-1.248c3.061-4.702,1.57-10.412-4.419-14.493c1.454,3.688,2.348,6.829,0.67,10.037
				c-3.814,7.299-3.774,7.311-6.783,8.66c2.603-4.521,6.103-8.519,3.826-13.316c0.283,5.728-4.558,9.757-8.534,14.011
				c-0.75,0.802-1.546,2.081-3.101,2.197c-4.478,0.335-7.142,3.891-12.677,3.104c-3.408-0.486-12.075,8.387-12.345,11.34
				c-0.04,0.443-0.144,0.971,0.117,1.328c2.397,3.291,0.824,6.248-1.862,8.952c-1.368,1.377-1.011,2.117,0.504,3.095
				c4.281,2.76,9.035,4.929,14.272,6.641c2.004,0.655,4.73,0.492,5.876,2.305c-4.293,0.688-8.353,1.918-12.314,3.251
				c-2.606,0.879-6.245,0.986-7.462,3.107c-1.334,2.323-1.656,4.942-2.446,7.514c3.884-0.148,7.268-0.516,10.713-0.304
				c5.55,0.341,10.738,1.398,15.624,3.285c1.543,0.596,2.658,1.036,4.53-0.47c3.838-3.089,7.24-6.5,12.336-8.805
				c5.489-2.486,10.578-5.479,15.455-8.719c-1.829-1.085-3.181-0.025-4.567,0.31c-1.03,0.252-1.878,0.937-2.91,1.162
				c-8.626,1.859-17.382,2.105-26.171,1.131c-1.008-0.111-2.649-0.092-2.631-1.417c0.59-0.104,1.26-0.39,1.758-0.283
				c6.343,1.404,12.806,0.814,19.192,0.224c5.483-0.507,10.842-1.515,14.585-5c4.014-3.737,8.559-7.188,11.466-11.506
				c2.898-4.299,4.121-8.697,2.074-13.556c-2.379,0.252-2.772-0.372-6.755,0.707c-1.841,0.498,6.872-2.83,5.566-3.961
				c-4.352-3.777,2.83-1.795,4.183-6.331c0.986-3.307-2.963-2.692-0.172-0.338c1.5,1.266-2.64-9.103-4.1-5.993
				c2.323-2.428-0.449,1.865-2.797,0.839c-0.436-0.191,0.104-1.392-1.211-0.645c-0.482,0.273-1.036,1.069-1.684,0.246
				c-0.209-0.267,0.08-0.882,0.393-1.214c2.956-3.119,4.594-6.527,4.18-10.289c-0.695-6.275-3.085-11.952-10.99-15.47
				c-0.79-0.35-1.703-0.747-1.103-1.401c0.695-0.759,1.739-0.602,2.833-0.12c5.489,2.437,8.285,6.368,10.572,10.455
				c1.847,3.301,2.621,6.844,1.592,10.513c5.489-9.997-1.829-18.995-11.352-25.593c-1.789-1.238-4.487-1.81-5.243-3.802
				c2.286-0.504,3.921,0.587,5.237,1.478c5.747,3.9,10.968,8.104,14.321,13.421c2.741,4.345,3.691,8.891,1.927,13.427
				c-1.343,3.445-1.192,6.626-0.077,9.914c1.26,3.719-0.061,7.191-2.185,10.559c-0.347,0.553-1.235,1.005-0.71,1.641
				c0.562,0.679,1.607,0.295,2.369,0.194c5.83-0.762,11.663-1.245,17.566-0.771c0.839,0.068,1.77-0.077,2.182,0.673
				c-0.959,0.965-2.969,0.203-3.937,1.604c-3.792,5.483-4.797,11.291-5.049,17.394c3.765-0.977,5.701-2.428,5.811-5.446
				c0.129-3.454,1.229-6.93,4.176-9.85c1.598-1.586,2.031-2.784-0.839-3.666c3.168-1.199,6.982-0.098,7.861,2.262
				c0.061,0.169,0.28,0.32,0.28,0.482c0.061,5.018,5.612,6.113,10.409,7.821c3.347,1.192,6.93,2.025,9.936,3.768
				c3.218,1.865,4.09,3.983,1.755,6.401c-4.576,4.739-10.347,8.676-16.38,12.403c-8.439,5.215-18.418,8.482-28.322,11.826
				c-2.683,4.057-8.408,0.94-12.287,2.907c-3.002,1.521-7.071,1.918-10.67,2.809c-1.912,0.473-2.554,1.641-2.901,2.892
				c-1.961,7.127-5.652,13.734-11.684,19.819c3.31-0.034,4.49,1.5,4.65,3.377c0.157,1.847-2.01,2.529-4.023,3.076
				c-3.848,1.048-7.692,2.969-11.872,1.361c-3.531-1.361-7.385-1.865-11.097-2.738c-0.848-0.2-1.918-0.378-2.031-0.993
				c-0.612-3.285-4.859-5.556-4.478-9.121c0.329-3.079,2.923-5.461,4.628-8.113c1.721-2.677,3.9-5.151,6.401-7.499
				c1.005-0.943,1.666-2.025-0.704-2.741c-6.958-2.102-13.971-3.86-21.77-3.172c-2.766,0.246-4.653,0.799-5.818,3.006
				c-2.434,4.607-7.369,7.333-14.069,8.15c-2.394,0.292-3.039,0.876-2.505,2.692c2.247,7.665,5.722,14.951,10.046,22.127
				c3.128,5.194,6.838,10.092,11.042,14.751c6.279,6.955,13.5,13.39,21.86,19.174c4.564,3.159,9.17,6.177,14.45,8.66
				C65.532-274.14,66.027-273.587,65.8-272.77z M-71.399-361.744c-2.929,1.149-5.028-0.704-7.548-0.983
				c-9.133-1.02-13.749-4.779-13.786-11.537c-0.006-1.066-0.415-2.124-0.498-3.193c-0.602-7.852,1.534-15.483,4.711-22.935
				c3.288-7.714,8.181-14.911,15.301-21.282c4.167-3.728,8.482-7.339,13.651-10.848c-5.492-0.126-10.295,0.553-14.917,1.789
				c-1.918,0.513-3.808,1.432-4.49,3.039c-1.592,3.749-4.287,7.21-5.347,11.125c-0.384,1.417-0.111,3.313-2.452,4.287
				c-5.218,2.176-9.37,5.277-13.224,8.534c-2.849,2.409-5.904,4.588-5.664,8.497c0.396,6.472,2.612,12.646,4.293,18.875
				c3.623,13.411,13.525,24.506,25.821,34.49c1.223,0.993,2.176,2.597,4.628,2.735c6.34,0.353,12.575,1.374,18.971,1.374
				c0.821,0,1.927,0.261,2.333-0.412c0.384-0.639-0.492-1.103-1.085-1.549c-6.632-4.975-11.866-10.63-16.008-16.896
				c-1.174-1.776-1.988-3.891-4.551-5.068c1.011-0.621,0.547-1.254,0.141-1.933c-0.722-1.217-1.537-2.425-2.001-3.697
				c-1.77-4.843-3.522-9.693-4.044-14.736c-0.32-3.076,1.53-5.427,5.157-6.039c3.067-0.519,6.239-0.959,9.364-0.535
				c2.117,0.286,2.867-0.237,3.144-1.675c0.636-3.288,1.755-6.589,3.875-9.468c4.601-6.254,10.037-12.151,17.145-17.151
				c3.589-2.526,5.255-6.494,10.913-7.357c-3.027-2.311-5.181-4.782-6.718-7.489c-0.873-1.534-1.789-1.42-3.251-0.55
				c-7.059,4.192-13.857,8.464-19.466,13.854c-7.376,7.093-13.341,14.628-17.044,22.994c-4.1,9.256-4.936,18.879-5.218,28.501
				c-0.052,1.733,0.842,2.963,3.623,3.377C-74.141-363.379-71.829-363.493-71.399-361.744z M139.731-386.36
				c-3.018,0.538-6.027,1.103-9.057,1.604c-5.301,0.873-10.04,2.689-14.914,4.395c-5.891,2.062-11.088,4.945-16.973,6.998
				c-4.53,1.58-9.047,3.371-13.006,5.602c-5.049,2.846-10.092,5.704-15.332,8.347c-3.202,1.613-5.802,3.62-8.537,5.559
				c-4.345,3.079-7.462,6.875-10.987,10.393c-3.079,3.07-4.988,6.77-7.25,10.249c-0.867,1.334-0.608,3.101,0.553,3.986
				c1.54,1.171,2.105,0.897,2.047,2.154c-0.08,1.715,1.5,2.769,2.594,4.014c0.418,0.476,1.257,0.685,1.832,0.098
				c1.291-1.309,1.202-1.288,3.03-0.28c3.018,1.663,5.575,4.127,10.615,3.196c-2.087-0.163-1.426-1.475-2.351-2.068
				c-1.088-0.701-4.259-0.873-2.652-2.382c1.211-1.14,2.655,0.977,4.247,1.22c0.347,0.052,0.719,0.163,0.986,0.329
				c1.251,0.771,2.044,2.883,4.183,1.472c2.108-1.392-0.728-2.419-1.444-3.583c-0.464-0.759-1.813-1.444-0.329-2.296
				c4.004-2.302,5.983-5.538,8.012-8.777c2.52-4.026,4.226-8.196,4.954-12.569c0.123-0.744-0.006-1.457,1.601-1.789
				c8.9-1.825,17.643-4.044,26.239-6.534c9.241-2.674,18.159-5.947,25.836-10.593c6.014-3.639,12.139-7.317,16.398-12.25
				c1.856-2.151,1.58-3.755-1.371-4.92c-6.414-2.529-12.96-4.905-19.883-6.65c-4.637-1.171-5.295-0.774-6.586,2.861
				c-0.458,1.294-1.328,3.058-0.243,3.746c1.251,0.796,3.356-0.424,5.101-0.774C131.166-386.431,135.3-387.565,139.731-386.36z
				 M-11.558-441.478c-2.554-4.459-2.947-4.548-8.765-3.706c-3.835,0.556-7.569,1.306-11.128,2.486
				c-2.117,0.704-4.103,1.623-6.208,2.354c-7.059,2.449-13.273,5.778-19.038,9.594c-5.483,3.632-9.739,7.996-14.241,12.237
				c-9.106,8.574-14.336,18.264-16.497,28.78c-1.278,6.223-2.366,12.477-0.781,18.82c1.054,4.223,1.152,4.776,6.893,5.627
				c0.037-1.945,0.043-3.884,0.111-5.824c0.16-4.545,1.26-9.017,2.034-13.522c0.827-4.797,1.832-9.558,4.324-13.992
				c4.226-7.526,9.942-14.441,16.635-21.085c6.217-6.171,14.278-10.501,22.029-15.308c1.865-1.159,3.313-1.62,5.486-2.081
				C-24.389-438.429-18.657-441.149-11.558-441.478z M10.108-372.623c0.132-1.592,1.205-1.872,2.452-2.117
				c0.701-0.138,2.019,0.209,1.865-0.833c-0.052-0.36-0.627-0.753-1.103-0.977c-0.91-0.427-1.423,0.018-2.133,0.516
				c-2.864,2.007-5.28,4.244-7.631,6.574c-3.116,3.085-4.797,6.736-8.799,9.545c-5.363,3.765-9.001,8.513-9.846,14.078
				c-0.092,0.605-0.974,1.343,0.821,1.583c4.287,0.572,8.513,1.377,12.803,1.939c2.603,0.341,3.995-0.317,4.665-2.548
				c1.629-5.424,4.889-10.387,9.49-14.933c4.161-4.112,8.688-7.917,14.435-10.904C21.853-373.395,16.358-374.406,10.108-372.623z
				 M-21.042-407.421c-4.748-2.526-8.178-5.827-11.715-9.084c-1.524-1.404-3.168-0.538-4.438,0.621
				c-4.057,3.694-8.485,7.105-12.038,11.171c-4.017,4.597-6.752,9.299-8.073,14.548c-0.27,1.073-0.492,1.776,1.288,2.305
				c4.149,1.232,8.301,2.517,12.207,4.093c1.746,0.704,2.093,0.255,2.64-0.679c2.978-5.08,5.771-10.24,10.987-14.429
				c1.718-1.38,1.69-2.585,0.184-4.014c-1.364-1.297-2.455-2.757-1.337-4.853c1.749,1.454,3.196,2.692,4.705,3.888
				c0.409,0.326,1.036,0.544,1.623,0.154c0.894-0.596-0.077-0.728-0.409-1.143c-1.079-1.34-2.849-2.133-4.223-3.221
				c-0.578-0.458-1.34-1.18-0.36-1.902c1.011-0.744,1.463,0.24,2.151,0.424C-25.56-408.924-24.072-407.104-21.042-407.421z
				 M-11.512-370.893c-0.836-1.321-2.29-2.007-3.43-2.904c-4.548-3.58-4.527-3.632-9.886-0.885
				c-9.85,5.046-17.25,11.352-19.88,20.151c-0.387,1.291-0.569,2.4,1.149,3.009c3.172,1.125,6.245,2.446,9.739,3.024
				c0.529,0.086,1.506,0.781,1.838-0.492c1.039-3.992,3.632-7.569,6.331-11.094C-22.262-364.519-17.843-368.25-11.512-370.893z
				 M-3.377-363.997c-0.129-0.163-0.194-0.369-0.369-0.449c-2.502-1.152-4.428-2.695-6.085-4.471
				c-0.532-0.569-1.561-0.335-2.32,0.04c-9.684,4.797-14.29,11.967-17.652,19.708c-0.455,1.048-0.218,2.074,1.429,2.372
				c3.15,0.569,6.156,1.451,9.401,1.872c1.822,0.237,1.497-0.375,1.647-0.962c1.632-6.401,5.664-11.869,12.182-16.398
				C-4.447-362.771-3.964-363.422-3.377-363.997z M28.743-369.003c-3.983,0.885-5.658,2.852-7.803,4.376
				c-8.033,5.71-13.113,12.643-16.251,20.378c-0.274,0.673-0.23,1.254,0.864,1.49c2.397,0.513,8.906-1.884,9.88-3.765
				c1.739-3.365,4.226-6.371,7.262-9.226C26.737-359.553,25.922-364.452,28.743-369.003z M10.378-377.872
				c-1.128-0.639-2.846-0.191-3.254-1.343c0.464-0.089,0.811-0.178,1.171-0.221c1.162-0.141,2.646,0.077,2.416-1.398
				c-0.194-1.238-1.908-0.403-2.517-1.03c-1.497,0.83-2.797,0.003-4.1-0.28c-1.918-0.415-3.288-0.071-4.475,1.109
				c-2.474,2.455-5.44,4.625-7.259,7.456c-1.795,2.794-1.005,5.058,2.929,6.149c1.257,0.347,2.935,1.77,4.152,0.126
				C2.326-371.194,6.312-374.476,10.378-377.872z M107.245-398.967c-1.331,0.123-2.053,0.243-2.772,0.246
				c-3.122,0.015-4.515,0.882-4.109,3.371c0.495,3.046-0.691,6.023-2.133,8.891c-1.884,3.749-4.896,7.237-4.862,11.414
				c0.006,0.771-0.286,1.491,1.02,1.663c1.678,0.221,7.56-3.774,7.6-5.046C102.205-385.374,102.902-392.261,107.245-398.967z
				 M116.36-399.397c-6.263-0.197-6.487-0.043-8.694,3.577c-1.411,2.317-2.575,4.662-2.637,7.191
				c-0.089,3.642-1.752,7.28-0.495,11.18c1.856-0.86,3.424-1.558,4.945-2.305c0.756-0.372,1.675-0.529,1.567-1.567
				C110.386-387.58,112.355-393.509,116.36-399.397z M-73.839-432.354c4.751-1.466,9.026-2.016,13.095-1.838
				c5.065,0.221,7.182-2.658,10.559-3.749C-60.118-441.782-66.952-438.07-73.839-432.354z M-86.559-426.192
				c-8.082,3.829-12.065,9.539-15.32,15.661c1.976-1.491,4.223-2.738,6.595-3.737c1.521-0.639,1.865-0.977,1.134-2.087
				c-1.076-1.629,0.23-2.336,2.305-2.397c0.848-0.025,1.804,0.381,1.924-0.612C-89.635-421.797-87.168-423.699-86.559-426.192z
				 M-13.719-439.677c-5.35,0.363-15.581,3.703-16.571,5.741c1.438-2.339,3.107-1.38,4.963-0.768
				c1.853,0.612,4.057,1.232,5.83-0.052C-17.456-436.232-15.732-437.938-13.719-439.677z M-26.884-344.448
				c1.62,3.51,1.623,3.657,3.872,3.599c4.923-0.126,9.84-0.418,15.741-0.685C-14.493-342.607-20.713-343.529-26.884-344.448z
				 M-30.037-421.309c-0.341,5.111,11.869,8.531,19.659,5.593C-18.322-415.405-24.693-417.037-30.037-421.309z M-24.472-424.121
				c4.834,5.135,8.184,5.43,18.092,2.17C-12.367-421.407-18.15-421.825-24.472-424.121z"/>
			<path fill="#FFFFFF" d="M-23.949-270.686c3.992-0.676,5.901,1.976,8.817,2.972c6.623,2.259,12.963,4.957,19.447,7.434
				c4.853,1.853,9.865,3.331,14.917,4.779c1.89,0.541,4.035,0.645,6.076,0.9c0.919,0.114,1.822,0.24,1.592,1.091
				c-0.234,0.86-1.364,0.753-2.096,0.63c-2.953-0.504-5.87-1.116-9.702-1.865c3.651,3.841,9.115,5.403,13.095,8.261
				c-1.558,0.738-2.514-0.086-3.593-0.292c-0.667-0.126-1.408-0.704-1.93-0.101c-0.332,0.381-0.347,1.131-0.049,1.537
				c4.241,5.753,8.377,11.331,16.958,14.727c6.211,2.459,12.566,3.503,19.309,4.232c2.941,0.317,5.409,1.466,7.892,2.637
				c11.992,5.648,23.796,11.389,37.88,14.432c11.601,2.508,22.603,1.039,33.796-0.817c7.683-1.272,14.613-3.967,21.328-6.924
				c10.009-4.407,14.684-15.089,7.139-22.072c-0.747-0.691-1.472-1.444-1.186-2.437c1.232-0.569,1.724,0.098,2.29,0.685
				c6.146,6.377,6.776,13.215,3.15,20.55c-3.291,6.66-10.08,10.762-18.199,14.112c-12.969,5.347-27.047,6.189-41.233,5.412
				c-7.492-0.412-14.705-2.505-21.435-5.043c-5.818-2.194-12.062-3.792-17.542-6.451c-1.3-0.63-2.591-1.294-3.762-2.044
				c-1.156-0.741-2.099-2.133-3.439-0.092c-0.083,0.126-0.725,0.2-0.962,0.108c-0.642-0.252-0.71-0.811-0.421-1.177
				c1.343-1.706-0.513-2.053-1.951-2.425c-4.542-1.177-9.376-1.53-14.124-1.81c-4.733-0.277-8.54-1.801-11.165-4.21
				c-4.358-3.998-7.302-8.743-10.894-13.113c-3.894-4.736-4.748-10.578-10.354-14.579c-0.99-0.707-1.444-1.933-3.448-1.389
				c-1.226,0.335-1.195-0.482-1.054-0.922c0.605-1.896-1.051-2.329-2.963-3.018c-10.446-3.768-20.686-7.815-30.75-12.087
				C-23.433-269.438-24.195-269.801-23.949-270.686z"/>
			<path fill="#FFFFFF" d="M159.664-244.14c-5.304-0.836-10.784-0.532-16.162-1.073c-2.88-0.289-6.909-0.602-8.931,1.862
				c-2.173,2.646-6.285,2.52-9.321,3.881c-4.582,2.056-8.611,4.619-13.159,6.653c-1.051,0.47-2.505,1.534-3.46,0.292
				c-0.943-1.223,1.045-1.669,2.12-2.068c2.575-0.956,3.94-3.058,6.057-3.946c2.987-1.254,5.891-3.021,9.561-3.341
				c1.156-0.101,2.575-0.335,2.738-1.14c0.526-2.634,3.482-2.575,6.859-3.273c-3.967-1.051-7.216-1.838-10.375-2.778
				c-1.832-0.544-4.385-0.363-5.022-2.299c2.154-0.59,4.219,0.227,5.836,0.753c8.39,2.723,17.093,4.195,26.319,4.278
				C155.417-246.312,158.118-246.107,159.664-244.14z"/>
			<path fill="#FFFFFF" d="M39.506-393.653c-1.162,1.189-1.976,2.382-2.803,3.543c-1.377,1.939-0.774,3.789,1.521,5.258
				c0.396,0.255,1.272,0.387,0.854,0.977c-0.476,0.676-1.251,0.313-1.939,0.212c-3.125-0.452-3.399-3.039-5.876-4.127
				c-1.328-0.584,0.154-2.13,0.688-3.205c2.468-4.954,6.902-8.387,14.22-9.395c6.048-0.836,8.789,0.974,8.983,5.513
				c0.04,0.925,0.86,1.819,1.303,2.729c1.275,2.621,0.67,5.231-1.506,7.357c-2.532,2.474-8.995,1.463-11.905-1.515
				C40.901-388.499,39.905-390.939,39.506-393.653z M42.256-389.661c4.219,4.06,7.64,5.602,10.209,4.382
				c2.717-1.288,3.712-3.227,1.97-5.483C52.785-388.816,47.385-388.244,42.256-389.661z"/>
			<path fill="#FFFFFF" d="M92.927-424.111c0.415,2.176-0.28,4.259-1.112,6.337c-0.178,0.446-0.406,0.947-1.079,0.993
				c-0.888,0.061-1.152-0.565-1.392-1.02c-0.403-0.759-0.264-1.561-0.074-2.376c1.635-6.961-1.801-12.508-8.762-17.056
				c-0.547-0.356-1.912-0.396-1.109-1.309c0.784-0.894,1.998-0.492,2.514-0.018c1.862,1.709,5.003,2.219,6.829,3.845
				c2.803,2.495,3.128,5.713,4.047,8.734C92.979-425.381,92.893-424.735,92.927-424.111z"/>
			<path fill="#FFFFFF" d="M87.241-424.053c0.08,2.674-0.679,5.28-2.028,7.812c-0.277,0.519-0.569,1.088-1.494,0.913
				c-0.999-0.191-0.575-0.827-0.562-1.34c0.049-1.755,0.879-3.405,0.805-5.237c-0.197-4.994-3.036-8.817-8.122-11.896
				c-0.713-0.433-2.127-0.713-1.349-1.534c0.805-0.851,1.779,0.049,2.505,0.372C82.616-432.452,87.118-429.342,87.241-424.053z"/>
			<path fill="#FFFFFF" d="M-233.654-348.228c5.652-1.315,11.017-2.594,16.42-3.78c0.747-0.163,1.678,0.221,2.514,0.181
				c2.72-0.132,5.716,0.962,7.637-1.881c0.993-1.466,3.393,0.031,4.699,0.55c1.214,0.482-0.224,1.285-1.008,1.85
				c-0.845,0.608-1.893,0.922-2.959,1.033c-4.785,0.507-9.573,1.011-14.379,1.355c-3.291,0.237-5.934,2.105-9.441,1.832
				C-231.401-347.187-232.572-346.99-233.654-348.228z"/>
		</g>
	</g>
	<path fill="#FFFFFF" d="M138.877-247.311c4.041,0.661,8.079,1.321,12.121,1.982c0.04,0.117,0.08,0.23,0.12,0.347
		c-3.31,0.151-6.626,0.234-9.923,0.489c-1.069,0.083-2.047,0.771-3.125,0.913c-1.641,0.212-3.334,0.187-5.003,0.264
		c-0.028-0.326-0.055-0.655-0.086-0.98c2.588-0.43,5.172-0.864,7.471-1.248c-0.476-0.541-1.03-1.168-1.583-1.795L138.877-247.311z"
		/>
	<path fill="#FFFFFF" d="M107.371-257.428c-0.086,0.526-0.203,1.245-0.372,2.286c-5.652-2.336-10.984-4.536-16.316-6.74
		C96.796-261.537,100.705-257.404,107.371-257.428z"/>
	<path fill="#FFFFFF" d="M67.487-376.022c3.755-0.452,7.511-0.91,11.266-1.352c1.094-0.129,2.197-0.218,3.298-0.326
		c-1.094,0.452-2.133,1.152-3.294,1.309c-3.688,0.492-7.425,0.781-11.14,1.146C67.57-375.503,67.53-375.764,67.487-376.022z"/>
	<path fill="#FFFFFF" d="M81.86-384.138c-1.524-2.437-3.122-4.994-4.936-7.895C81.71-389.593,83.326-386.333,81.86-384.138z"/>
	<path fill="#FFFFFF" d="M83.624-367.651c0.403-0.541,0.805-1.079,1.447-1.939c-1.294-0.206-2.606-0.415-3.918-0.624
		c3.583-3.353,7.363-6.61,10.701-10.086c4.662-4.856,7.901-10.111,6.657-16.214c-0.166-0.817-0.787-1.583-1.364-2.698
		c-1.023,0.996-1.727,1.684-2.434,2.369c-0.089-0.135-0.181-0.274-0.27-0.409c-1.282,0.36-2.545,0.768-3.854,1.06
		c-0.522,0.117-1.149-0.034-1.736-0.068c2.034-2.468,2.096-4.951,0.24-7.582c0.35,2.216-0.031,3.98-4.588,3.931
		c1.835,1.53,3.119,2.6,4.404,3.672c-4.631,0.581-5.077-2.348-6.1-4.253c-1.875-3.494-1.623-7.161,0.983-10.575
		c0.569-0.744,1.847-1.841,2.572-1.764c1.635,0.175,3.562,0.719,4.567,1.601c1.309,1.143,1.838,2.763,3.239,5.052
		c0.802-1.303,1.718-2.077,1.626-2.766c-0.344-2.548-1.023-5.065-1.644-7.904c-0.931,1.073-1.736,2.001-2.538,2.929
		c3.168-4.899,4.554-9.819,2.913-15.135c-1.638-5.314-4.862-9.724-11.54-12.446c1.982-0.771,1.982-0.771,5.058,0.851
		c5.999,3.165,11.232,13.685,9.213,18.682c-0.532,1.315-1.616,2.535-1.958,3.86c-0.2,0.774,0.575,1.672,0.91,2.511
		c0.046,0.369,0.092,0.738,0.141,1.109c0.111,0.962-0.286,2.246,0.415,2.827c3.024,2.514,2.929,5.249,1.795,8.239
		c-0.178,0.467,0.507,1.094,0.793,1.647l-0.098-0.058c-0.734,1.967,0.138,2.425,2.932,2.114c5.928-0.658,11.896-1.282,17.91-0.861
		c0.516,0.037,1.002,0.283,1.5,0.43c-2.83,0.101-3.897,1.386-5.003,3.181c-3.245,5.255-4.014,10.698-4.143,16.767
		c2.563-1.908,6.469-2.025,6.386-5.138c-0.108-4.097,1.54-7.87,4.853-11.306c0.774-0.802,0.682-2.038,0.99-3.076
		c3.924-1.116,4.696,1.312,5.363,2.92c0.854,2.059,0.999,4.266,3.279,5.876l0.098-0.077c-0.636,0.04-1.325,0.212-1.896,0.095
		c-2.732-0.553-5.43-1.186-8.457-1.862c-0.753,2.947-1.457,5.701-2.231,8.737c4.287-0.897,8.049-1.687,11.81-2.477
		c-4.007,1.856-8.353,2.858-12.36,4.355c-8.205,3.064-16.214,6.408-24.333,9.598c-1.979,0.777-4.066,1.411-6.097,2.105
		c3.319-2.271,1.534-5.117,1.681-7.806c-2.597,2.428-5.197,4.856-8.285,7.744c3.073-0.006,4.883-0.009,6.69-0.012
		c-2.12,0.943-4.241,1.884-6.365,2.827L83.624-367.651z M92.828-372.35c3.817-1.721,6.912-3.116,9.558-4.309
		c0.003-7.941,0.458-15.501,5.67-22.911c-3.267,0.452-5.784,0.802-8.476,1.174c0.071,1.137-0.006,2.124,0.215,3.07
		c0.974,4.149-0.784,8.129-3.384,11.524C93.652-380.186,93.262-376.609,92.828-372.35z M117.282-399.95
		c-1.752,0.08-2.87,0.227-3.961,0.16c-2.926-0.181-4.825,0.458-5.544,2.775c-1.076,3.467-2.815,6.85-3.577,10.341
		c-0.664,3.049-0.369,6.199-0.519,9.791c3.135-1.451,5.562-2.569,7.735-3.574C110.859-387.255,112.34-393.601,117.282-399.95z
		 M90.607-406.327c0.412,2.243,0.87,4.736,1.343,7.326c4.518-1.389,3.104-4.65,4.1-6.872
		C93.919-406.05,92.066-406.204,90.607-406.327z M129.092-392.63c-0.728-1.918-1.245-3.276-2.084-5.483
		c-1.487,1.859-2.397,2.996-3.424,4.278C125.324-393.453,126.79-393.134,129.092-392.63z"/>
</g>
<path fill="none" stroke="#562704" stroke-width="11.7896" stroke-linecap="round" stroke-linejoin="round" stroke-miterlimit="10" d="
	M260.927-40.304c-3.173,6.349-8.616,11.774-14.923,16.791c-11.519,9.168-25.555,15.349-40.94,19.849
	c-1.812,0.531-3.65,0.987-5.921,1.597c1.065,0.323,1.626,0.504,2.202,0.664c14.381,3.982,28.83,7.863,43.131,11.96
	c32.389,9.283,65.32,17.659,99.172,24.535c1.96,0.398,2.164,0.336,2.107-1.155c-0.133-3.504-0.197-7.026-0.625-10.491
	c-0.887-7.172-1.994-14.314-3.002-21.468c-0.049-0.354-0.36-0.805,0.121-1.066c0.652-0.354,1.046,0.142,1.44,0.367
	c3.506,2.018,6.921,4.115,10.162,6.349c19.702,13.592,36.968,28.773,53.471,44.45c7.334,6.969,14.062,14.274,20.677,21.636
	c0.049,0.274,0.099,0.549,0.148,0.827c-0.678-0.088-1.38-0.137-2.035-0.274c-0.5-0.102-1.001-0.208-1.501-0.31
	c0.095,0.035,0.186,0.075,0.284,0.106c-0.337,0.168-0.671,0.336-1.008,0.5c-12.171,2.58-24.342,5.079-36.505,7.137
	c-27.367,4.628-54.646,8.65-81.622,10.739c-4.435,0.345-8.824,0.531-13.179,0.633c-0.489,0.013-1.277,0.204-1.274-0.27
	c0-0.35,0.686-0.54,1.111-0.761c8.562-4.442,17.167-8.836,25.672-13.331c4.109-2.172,8.062-4.513,12.038-6.814
	c1.694-0.982,1.641-1.097,0.015-1.526c-28.034-7.469-57.182-13.601-87.012-18.929c-13.172-2.354-26.192-4.907-39.28-7.367
	c-0.523-0.097-1.061-0.177-2.062-0.341c0.69,1.217,1.289,2.181,1.789,3.186c4.268,8.509,5.849,17.668,2.596,27.928
	c-1.781,5.619-4.533,11.199-9.681,16.592"/>
<path fill="none" stroke="#562704" stroke-width="5" stroke-linecap="round" stroke-linejoin="round" stroke-miterlimit="10" d="
	M106.002-42.951c-0.686-2.553-1.509-5.082-2.642-7.587c-1.357-2.992-4.048-5.642-9.635-7.65c-2.088-0.751-4.124-1.521-6.311-2.229
	c-2.657-0.86-5.511-1.642-7.399-2.817c-2.316-1.439-1.622-1.991,2.839-2.173c14.108-0.577,26.821,0.468,37.529,3.677"/>
<path fill="none" stroke="#562704" stroke-width="5" stroke-linecap="round" stroke-linejoin="round" stroke-miterlimit="10" d="
	M118.124-12.573c9.393,7.568,22.924,13.602,41.565,17.694c4.033,0.884,8.301,1.606,12.952,2.054c0.004-0.082,0.03-0.119,0-0.126
	c-0.349-0.097-0.701-0.194-1.058-0.286c-12.296-3.244-22.905-7.219-31.244-12.028"/>
<path fill="none" stroke="#562704" stroke-width="5" stroke-linecap="round" stroke-linejoin="round" stroke-miterlimit="10" d="
	M60.457,41.816c8.68-0.993,17.167-1.667,25.49-2.074c-3.84-0.717-7.634-1.47-11.379-2.265
	c-20.832-4.426-38.738-10.145-51.807-18.021C12.205,13.095,5.159,6.084,2.43-1.752C1.539-4.31,0.728-6.876-0.102-9.441
	c-1.111-3.437-0.936-6.931,0.334-10.467c1.66-4.622,4.92-9.171,7.948-13.728c4.806-7.231,6.679-14.394,3.597-21.461
	c-0.227-0.521-0.387-1.051-0.523-1.582c-0.061-0.24-0.447-0.545,0.273-0.715c0.671-0.16,1.171,0.107,1.645,0.242
	c2.297,0.659,4.351,1.422,6.201,2.272c5.416,2.488,9.374,5.368,12.641,8.42c4.336,4.048,7.679,8.263,9.844,12.672
	c1.808,3.68,3.571,7.364,3.938,11.184c0.076,0.799,0.534,1.621-0.406,2.51c-0.773-0.25-0.929-0.552-1.202-0.821
	c-2.358-2.311-4.404-4.687-7.558-6.831c-2.593-1.761-6.728-2.544-11.974-2.667c-1.672-0.039-2.672,0.203-3.521,0.814
	c-2.733,1.96-4.135,4.021-4.761,6.136c-1.41,4.78,0.588,9.263,4.188,13.554c10.878,12.963,30.084,23.222,59.16,30.295
	c17.622,4.288,37.377,6.071,59.001,5.821c1.213-0.015,2.46,0.036,4.01-0.189c-5.053-0.836-9.688-1.713-14.032-2.791
	c-16.591-4.113-28.67-9.927-38.241-16.608C79.049-1.345,70.824-9.969,64.028-18.881c-6.72-8.815-12.133-17.822-18.327-26.712
	c-2.96-4.249-7.217-8.183-14.222-11.504c-2.1-0.996-3.597-2.161-4.272-3.488c-0.455-0.889,0.121-1.194,2.365-1.524
	c4.715-0.69,9.506-1.073,14.347-1.211c15.203-0.436,27.17,1.5,35.061,6.378c6.887,4.256,10.829,9.104,14.241,14.045"/>
<path fill="none" stroke="#562704" stroke-width="3.0302" stroke-linecap="round" stroke-linejoin="round" stroke-miterlimit="10" d="
	M75.171,63.657c19.331-2.611,38.416-4.155,56.761-3.672c4.802,0.126,9.374,0.443,14.115,0.87c-0.474-0.453-1.327-0.664-2.028-0.911
	c-12.523-4.392-28.038-7.054-47.361-7.621"/>
</svg>
