<?xml version="1.0" encoding="utf-8"?>
<!-- Generator: Adobe Illustrator 17.0.0, SVG Export Plug-In . SVG Version: 6.00 Build 0)  -->
<!DOCTYPE svg PUBLIC "-//W3C//DTD SVG 1.1//EN" "http://www.w3.org/Graphics/SVG/1.1/DTD/svg11.dtd">
<svg version="1.1" id="Layer_1" xmlns="http://www.w3.org/2000/svg" xmlns:xlink="http://www.w3.org/1999/xlink" x="0px" y="0px"
	 width="977.951px" height="1336.5px" viewBox="0 0 977.951 1336.5" enable-background="new 0 0 977.951 1336.5"
	 xml:space="preserve">
<image overflow="visible" width="1200" height="1600" xlink:href="../../../../Desktop/tree-colorjpg"  transform="matrix(0.8003 0 0 0.8003 0 0)">
</image>
<path fill="none" stroke="#562704" stroke-width="4" stroke-miterlimit="10" d="M96.359,157.463
	c-7.4,8.813-13.259,23.175-18.501,42.432v-0.327c-6.167,22.848-16.343,34.598-30.836,34.598
	c-8.326-4.896-10.793-9.139-10.793-15.667c0-1.305,0.309-2.937,0.617-4.569l4.625-15.667c8.943-23.827,22.818-52.55,38.545-80.62
	c12.951-30.354,29.91-62.341,41.936-87.8l-0.308,0.327c3.392-7.507,8.326-11.097,14.493-11.097c8.017,0,14.801,7.181,14.801,21.868
	L96.359,157.463z"/>
<path fill="none" stroke="#562704" stroke-width="4" stroke-miterlimit="10" d="M343.662,215.912
	c-2.234,5.788-4.549,9.272-7.75,10.157c-7.315,2.023-11.84-3.447-14.169-12.884c-1.792-7.259-0.98-17.823-3.07-26.292
	c-1.818,1.537-5.227,4.547-9.431,8.294c-24.982,23.451-45.011,55.097-55.318,90.517l-0.179-0.726
	c-0.356,4.493-0.484,8.922-0.563,12.563l0.109-0.547c0.457-0.126,6.502,2.597,11.303,1.269c8.001-2.212,44.753-23.49,44.296-23.363
	c3.658-1.011,5.279,0.608,5.816,2.786c0.478,1.936,0.389,4.545,0.121,6.429l0.179,0.725c-9.346,22.488-27.722,36.1-59.04,44.76
	c-15.716-1.341-21.9-6.61-24.349-16.532c-0.239-0.968-0.478-1.935-0.488-2.967l-0.288-0.178c-0.925-0.779-1.512-2.167-1.93-3.861
	c-0.358-1.452-0.547-3.209-0.508-5.029l-0.229,0.063c-0.314-20.076,14.463-61.126,30.292-83.08
	c18.431-25.259,53.45-59.499,63.737-62.343c8.23-2.276,15.14,0.984,17.648,11.147c1.015,4.114,1.643,9.627,2.292,17.202
	c0.22,4.85-0.703,10.017,0.492,14.857c0.657,2.661,2.964,4.092,3.74,7.238L343.662,215.912z"/>
<path fill="none" stroke="#562704" stroke-width="4" stroke-miterlimit="10" d="M422.903,237.169
	c-2.066,5.483-6.625,13.723-13.56,25.205c-7.919,10.461-30.555,33.522-41.3,36.493c-3.658,1.011-8.022,0.151-12.814-3.436
	l0.06,0.242c-4.614-2.861-7.636-7.194-8.95-12.518c-0.418-1.694-0.667-3.692-0.688-5.755l-0.228,0.063
	c-0.434-20.56,3.686-38.5,21.637-71.64c10.918-20.079,23.508-33.384,47.908-46.334l-0.229,0.063c1.024-0.8,1.938-1.053,3.539-1.495
	c7.772-2.149,13.221,4.099,16.028,15.472c1.135,4.597,1.882,10.594,2.183,17.749l0.228-0.063
	c0.482,13.825-0.726,30.703-5.983,32.156c-1.601,0.443-2.803,0.516-3.777,0.528L422.903,237.169z M385.771,248.988
	c15.57-19.039,18.521-21.924,25.442-46.326c0.616-1.463,3.038-11.439,2.381-14.1c-0.06-0.242-0.06-0.242-0.06-0.242
	c-2.575,0.454-3.985,2.653-9.361,9.568l-4.64,5.936l-11.525,16.629c-4.859,7.03-11.323,25.361-14.44,40.44
	c4.263-3.506,8.347-7.737,12.143-12.147L385.771,248.988z"/>
<path fill="none" stroke="#562704" stroke-width="4" stroke-miterlimit="10" d="M489.578,164.967l20.736-29.773l0.06,0.242
	c5.763-8.314,11.676-13.051,17.391-14.631c5.715-1.58,9.115,0.323,10.31,5.162c1.732,7.017,3.464,14.035-5.253,47.981
	c6.378-9.777,16.901-23.543,30.136-41.161c8.732-15.081,15.568-24.984,21.741-26.691c4.8-1.327,14.325,5.603,15.699,11.169
	c0.547,3.209-0.652,15.173-7.383,41.332c-9.829,37.356-6.531,28.947-9.053,40.501l-0.436,2.189
	c-3.782,17.33-6.134,28.579-7.275,34.84l0.169-0.305c-0.426,3.22-2.235,5.788-5.207,6.61c-5.029,1.391-11.9-3.689-13.572-10.464
	c-0.299-1.21-0.309-2.241-0.319-3.272c3.88-18.909-1.153-29.408,6.514-53.758c1.38-5.293,1.38-5.293,1.609-5.356
	c0.06,0.242-0.169,0.305-0.169,0.305s0.169-0.305,0.437-2.188c-2.315,3.483-5.137,7.882-8.067,12.829l0.229-0.063l-24.47,40.37
	c-9.359,15.513-17.358,23.669-21.184,24.986c-7.315,2.023-11.134-1.574-12.806-8.349c-0.597-2.42-0.966-4.903-0.887-8.543
	l-0.169,0.305c-0.152-9.522,2.448-24.716,6.25-39.985l2.641-11.069l-0.675,1.22c-4.57,7.209-7.73,12.218-9.538,14.786l0.228-0.063
	c-4.521,6.42-9.041,12.84-12.877,19.07c-1.132,1.347-11.434,19.964-11.643,22.09c-2.274,7.608-4.379,14.911-5.66,18.625l-0.06-0.242
	c-4.568,13.154-8.91,20.3-12.567,21.311c-6.401,1.77-13.479-1.184-15.39-8.927c-0.179-0.726-0.418-1.694-0.429-2.725l4.914-18.678
	c13.601-55.718,26.391-94.926,35.764-97.518c5.029-1.391,8.689,3.543,10.003,8.866c0.239,0.968,0.538,2.178,0.548,3.209
	C489.935,160.474,489.726,162.6,489.578,164.967z"/>
<path fill="none" stroke="#562704" stroke-width="4" stroke-miterlimit="10" d="M725.8,141.525
	c-14.603,29.887-44.041,77.835-76.274,86.747c-17.602,4.867-40.498-3.794-43.962-17.829c-0.299-1.21-0.368-2.483-0.439-3.756
	C604.805,197.47,639,103.488,641.453,96.606c8.52-24.844,12.651-41.754,11.991-50.361c0,0,0.348,0.421,1.561,1.378
	c-2.257-2.22-3.719-5.176-4.496-8.321c-0.239-0.968-0.478-1.936-0.548-3.209l-0.229,0.063c-0.151-9.522,2.807-17.32,9.705-21.036
	l8.438-4.401c0.229-0.063,0.458-0.127,0.914-0.253c4.343-1.201,8.779,6.878,9.914,11.476c1.194,4.839-4.407,17.762-2.675,24.779
	c0.239,0.968,0.537,2.178,1.064,3.325l-15.319,55.676c14.767-13.389,28.749-25.01,40.179-28.17c4.116-1.138,9.046-0.95,14.911,1.047
	l-0.229,0.063c7.128,2.165,10.778,6.067,12.271,12.117l1.643,9.627c1.823,10.353,2.659,13.74-0.149,31.06L725.8,141.525z
	 M707.42,108.609c-0.07-1.273-0.08-2.304-0.319-3.272c-0.657-2.661-2.109-4.587-3.48-4.208c-0.458,0.127-6.142,4.8-16.824,13.958
	l-16.537,14.137c-1.689,3.052-3.448,4.831-5.266,6.367l0.169-0.305c-3.071,2.4-6.132,5.832-8.228,8.221l-5.165,10.734
	c-3.258,6.588-5.732,11.408-6.746,13.239l-2.315,3.484c-0.665,2.252-0.934,4.136-1.886,6.208l-2.066,5.482
	c-2.067,5.483-3.844,11.144-6.385,20.636l0.169-0.305l-0.606,2.494c0.457-0.126,0.914-0.253,1.659-0.2l-0.287-0.179
	c3.27,0.388,5.506,0.545,6.878,0.166c14.173-3.919,29.229-17.129,44.649-39.746c15.817-22.985,23.257-41.327,22.416-56.604
	L707.42,108.609z"/>
<path fill="none" stroke="#562704" stroke-width="4" stroke-miterlimit="10" d="M747.172,244.478l24.914-21.326v0.229
	c6.933-5.962,13.215-8.713,18.631-8.713c5.416,0,8.015,2.522,8.015,7.108c0,6.65,0,13.3-15.165,41.276
	c7.799-7.108,20.147-16.739,35.746-29.122c11.049-11.236,19.281-18.345,25.129-18.345c4.55,0,11.483,8.485,11.483,13.759
	c-0.217,2.981-3.9,13.3-15.599,34.855c-16.897,30.728-12.131,24.077-16.897,33.708l-0.866,1.835
	c-7.149,14.446-11.698,23.848-14.082,29.122l0.217-0.229c-1.083,2.752-3.25,4.586-6.065,4.586c-4.766,0-9.749-6.191-9.749-12.612
	c0-1.147,0.216-2.064,0.433-2.981c7.582-15.822,5.416-26.371,17.548-46.091c2.383-4.357,2.383-4.357,2.599-4.357
	c0,0.229-0.216,0.229-0.216,0.229s0.216-0.229,0.866-1.834c-2.817,2.522-6.282,5.732-9.966,9.402h0.217l-30.545,29.81
	c-11.698,11.466-20.581,16.739-24.264,16.969c-6.932,0-9.532-4.128-9.532-10.548c0-2.293,0.217-4.586,1.083-7.796l-0.217,0.229
	c1.95-8.484,7.582-21.326,14.298-33.938l4.766-9.172l-0.867,0.917c-5.633,5.274-9.532,8.943-11.698,10.778h0.217
	c-5.416,4.586-10.832,9.173-15.599,13.758c-1.299,0.918-14.514,14.905-15.164,16.74c-3.683,6.191-7.15,12.153-9.099,15.134v-0.23
	c-6.932,10.549-12.348,15.822-15.814,15.822c-6.065,0-11.698-4.357-11.698-11.695c0-0.688,0-1.605,0.217-2.522l8.449-15.364
	c24.263-46.092,44.193-77.737,53.076-77.737c4.766,0,6.933,5.274,6.933,10.319c0,0.918,0,2.064-0.217,2.981
	C748.472,240.58,747.823,242.414,747.172,244.478z"/>
<path fill="none" stroke="#562704" stroke-width="4" stroke-miterlimit="10" d="M908.466,284.604l0.208-0.06
	c-10.594,13.005-16.87,23.588-34.278,58.256l-7.311,14.441c-7.769,15.285-12.959,24.845-15.678,25.622
	c-3.556,1.017-6.737-3.537-7.703-4.686l0.266,0.162c-1.233-1.311-1.99-2.519-2.272-3.626c-1.921-7.527,14.448-44.511,39.291-89.618
	c-0.057-0.222-0.322-0.383-0.435-0.825l-1.91-3.967c-1.306-2.477-2.193-5.074-2.814-7.508c-0.734-2.878-1.05-5.876-1.101-8.712
	c0.778-24.213,0.871-39.679,0.347-51.405l-0.209,0.06c-0.157-5.893,5.508-15.352,10.318-16.727
	c3.765-1.076,11.694,4.495,13.502,11.579c0.113,0.443,0.259,2.776-0.77,4.02l-0.248,0.784c-3.501,10.027-0.775,39.177-1.003,47.08
	l0.153-0.281l0.051,2.836l1.583-2.591c10.601-15.619,18.555-29.295,24.243-40.422l9.707-15.602
	c6.846-10.984,11.194-17.69,12.246-20.603l-0.152,0.281c0.898-2.632,1.855-5.043,3.285-7.352l0.248-0.783l-0.208,0.06
	c2.844-5.564,5.472-8.453,8.61-9.35c3.555-1.016,6.534,0.982,8.613,5.614l-0.113-0.443c1.514,2.417,2.232,4.35,2.628,5.9
	c0.791,3.099-4.292,15.716-14.785,34.393l-15.621,25.844C926.484,257.6,912.774,278.622,908.466,284.604z"/>
<path fill="none" stroke="#562704" stroke-width="4" stroke-miterlimit="10" d="M138.697,525.247
	c-18.697,23.273-33.916,46.358-43.945,45.28c-4.751-0.51-9.247-10.544-8.764-16.392c0.115-1.392,5.878-13.133,24.655-40.611
	c13.934-20.413,23.575-33.985,28.35-40.213l-0.31,0.528c12.993-21.919,20.008-45.605,21.684-46.548
	c-6.644-0.152-33.91,14.053-64.734,32.651l-19.406,12.522l0.574-0.5c-23.171,19.422-27.349,24.872-41.03,42.222l0.31-0.529
	l-10.985,20.169c-4.729,5.672-10.283,8.446-16.617,7.765c-5.014-0.539-8.019-9.289-7.398-16.806
	c0.805-9.745,7.049-20.873,13.465-30.858l19.271-23.772l-0.551,0.221c6.106-9.456,14.599-22.027,24.883-36.934l31.185-45.528
	c4.867-7.342,9.113-13.627,14.531-21.192c1.803-5.705,6.382-12.797,14.91-22.556c11.179-12.844,17.066-16.425,22.08-15.886
	c3.167,0.34,5.117,2.516,5.61,6.221l-0.241-0.307c-0.046,0.557,0.172,1.142,0.103,1.977c-0.138,1.671-0.85,3.841-1.584,6.291
	l0.287-0.25l-1.091,3.535c-0.207,2.506-3.398,8.905-9.906,20.003l0.023-0.278c-11.272,20.419-26.71,42.918-40.402,63.639
	c33.75-18.565,59.249-30.714,76.932-28.814c10.82,1.163,20.066,18.168,19.238,28.192c-0.943,11.416-34.081,74.151-50.862,96.786
	L138.697,525.247z"/>
<path fill="none" stroke="#562704" stroke-width="4" stroke-miterlimit="10" d="M235.736,539.889
	c-20.277,10.181-38.799,15.214-43.813,14.675l-8.709-0.936c-13.987-1.503-20.985-13.492-19.927-26.3
	c1.219-14.757,12.628-30.386,31.667-44.914l-0.264-0.028c3.73-3.251,13.61-10.055,29.161-21.025
	c27.13-18.995,59.985-33.163,79.778-31.036c13.196,1.418,16.971,4.071,16.327,11.868c-0.874,10.58-6.661,29.061-21.176,27.501
	c-2.639-0.284-4.567-2.738-4.291-6.079c0.161-1.949,0.253-3.063,0.345-4.177c0.138-1.671,0.184-2.228-0.608-2.313
	c-2.111-0.227-8.434,2.184-18.659,6.704l-39.144,19.39c-1.893,0.358-9.904,7.082-22.838,18.614
	c-13.795,12.282-21.106,20.205-23.608,24.711c0.264,0.028,0.287-0.25,0.551-0.222c0.963,1.227,2.811,1.425,3.58,1.789l27.713-9.943
	l-0.264-0.028l9.651-4.02l-0.264-0.028c6.323-2.411,12.83-7.049,19.36-11.965c14.207-10.833,23.377-15.466,25.488-15.239
	c5.014,0.539,11.14,10.186,10.473,18.261c-0.483,5.848-3.421,9.183-6.244,11.127c-1.159,4.37-25.761,66.898-33.886,68.553
	l0.815-0.194c-2.467,0.858-4.097,1.246-5.944,1.047c-7.653-0.822-10.555-7.595-9.383-21.796c0.207-2.506,0.793-6.375,1.333-9.689
	C233.542,550.327,234.197,545.623,235.736,539.889z"/>
<path fill="none" stroke="#562704" stroke-width="4" stroke-miterlimit="10" d="M409.19,461.052
	c-0.758,2.728-4.672,8.207-11.593,17.857c-3.03,4.45-5.176,7.871-5.98,11.156c-1.642,3.756-10.054,12.122-11.616,18.135
	l-13.555,19.05l0.287-0.25c-1.262,2.394-3.627,5.229-4.912,7.9l-2.272,1.723c-3.73,3.25-21.74,37.553-38.103,35.794
	c-6.597-0.709-8.72-4.027-8.283-9.318c0.138-1.671,0.586-3.87,1.298-6.04l1.16-4.37c1.918-7.098,8.287-16.525,17.917-26.727
	c3.776-3.808,5.945-7.507,7.415-12.407l10.674-13.179l-0.264-0.028c6.921-9.65,11.764-16.714,13.957-20.692
	c3.478-6.649,32.09-40.374,37.369-39.807c4.223,0.454,6.276,4.607,6.998,11.989l-0.218-0.585c0.344,2.284,0.16,4.511-0.001,6.46
	c-0.115,1.392-0.23,2.784-0.586,3.87L409.19,461.052z M466.084,381.488c-7.139,9.065-13.887,13.396-24.972,12.205
	c-0.791-0.085-2.811-1.426-3.292-2.04l-1.951-2.176c-2.191-2.483-3.04-5.102-2.879-7.051c0.069-0.835,0.138-1.671,0.735-2.45
	l3.386-5.535c6.588-8.843,13.026-12.646,18.568-12.05c7.653,0.822,8.031,5.92,10.429,12.357L466.084,381.488z"/>
<path fill="none" stroke="#562704" stroke-width="4" stroke-miterlimit="10" d="M558.45,473.522
	c-8.664,4.968-15.182,6.515-19.187,6.647c-16.479,6.095-32.35,14.502-48.106,21.517l0.287-0.25
	c-34.909,16.474-41.485,21.948-53.661,30.752l-15.849,14.589c-9.927,7.361-16.093,33.665-30.081,32.162
	c-0.792-0.085-2.306-1.09-3.052-1.732l-0.264-0.028c-2.375-0.255-3.545,1.024-5.393,0.825c-2.903-0.312-4.807-3.044-4.531-6.385
	l1.918-7.098c0.781-3.006,1.401-4.063,2.067-5.677l-0.023,0.279c4.592-10.462,8.54-19.588,13.051-25.845l18.663-26.087l-0.023,0.279
	l6.083-9.178c4.557-6.814,11.053-14.543,19.075-24.636c5.017-12.383,13.532-18.772,18.282-18.261l6.919,3.271
	c4.567,2.738,6.666,6.335,6.344,10.233c-0.138,1.67-1.895,6.819-5.682,13.996c23.869-11.761,36.436-18.838,60.729-26.059
	l11.739-3.515l-0.264-0.028c3.282-1.051,0.666-1.614,8.985-2.405l-0.263-0.028c6.518-1.546,12.92-1.701,20.046-0.936
	c4.486,0.482,6.689,6.056,6.229,11.625c-0.115,1.392-0.517,3.035-0.896,4.399L558.45,473.522z M389.787,578.156
	c-0.264-0.028-0.505-0.335-0.986-0.95L389.787,578.156z"/>
<path fill="none" stroke="#562704" stroke-width="4" stroke-miterlimit="10" d="M507.259,685.292
	c0.277,1.063,0.624,2.393,0.719,3.796c4.713,1.485,8.853,2.85,9.823,6.573c1.178,4.52-1.221,12.946-2.606,15.926
	c0.859,12.626,2.012,24.306,3.537,30.156c2.218,8.508,5.017,11.982,8.533,10.955c9.293-2.715,41.035-52.046,51.078-88.171
	l0.069,0.266c4.365-16.44,9.161-24.994,13.432-26.242c7.787-2.275,11.547,1.777,13.072,7.627
	c3.327,12.762-1.566,28.212-13.411,57.425l-9.742,21.73c-2.339,5.548-9.848,17.184-21.895,32.148
	c-13.64,17.147-24.831,28.141-30.859,29.902c-18.838,5.503-28.169-12.658-37.275-32.03c-4.278,6.4-10.15,14.982-18.759,25.508
	c-14.94,18.385-26.45,29.187-33.734,31.315c-10.299,3.009-16.484-2.052-19.118-12.155c-0.693-2.659-1.136-5.391-1.396-8.463
	c0.094-15.192,23.56-89.003,25.422-93.267l0.069,0.266c2.312-6.684,6.209-10.398,10.479-11.645c1.759-0.514,7.615,1.209,7.866,1.136
	l-0.251,0.073c4.53,1.824,7.441,4.694,8.619,9.214c0.139,0.532,0.347,1.329,0.485,1.861c0.313,5.345-18.861,45.855-22.618,66.695
	c5.24-5.823,10.749-13.726,16.663-23.18c7.986-12.92,30.961-58.546,35.23-59.793C505.214,681.597,506.566,682.633,507.259,685.292z"
	/>
<path fill="none" stroke="#562704" stroke-width="4" stroke-miterlimit="10" d="M637.582,740.765
	c0.19,2.806-1.619,9.343-4.831,20.869c-1.333,5.254-2.191,9.224-1.861,12.561c-0.286,4.089-5.282,14.991-4.763,21.134l-6.243,22.711
	l0.182-0.34c-0.38,2.687-1.627,6.198-1.938,9.15l-1.525,2.449c-2.364,4.41-7.74,42.892-23.313,47.441
	c-6.28,1.834-9.303-0.43-10.62-5.482c-0.416-1.596-0.719-3.796-0.772-6.069l-0.355-4.475c-0.547-7.28,2.232-18.392,7.749-31.449
	c2.225-4.942,3.013-9.178,2.77-14.258l5.506-16.201l-0.25,0.073c3.212-11.525,5.359-19.878,6.077-24.38
	c1.03-7.454,16.314-49.403,21.337-50.87c4.019-1.174,7.25,1.888,10.309,8.434l-0.39-0.458c1.057,1.98,1.612,4.107,2.097,5.968
	c0.347,1.329,0.693,2.659,0.719,3.796L637.582,740.765z M663.913,645.802c-3.602,11.067-8.384,17.615-18.933,20.696
	c-0.753,0.22-3.041-0.257-3.681-0.642l-2.495-1.274c-2.815-1.467-4.443-3.566-4.929-5.427c-0.208-0.798-0.416-1.596-0.122-2.54
	l1.308-6.39c3.17-10.654,7.837-16.596,13.113-18.137c7.284-2.128,9.286,2.438,13.574,7.48L663.913,645.802z"/>
<path fill="none" stroke="#562704" stroke-width="4" stroke-miterlimit="10" d="M762.631,593.281
	c-0.034,4.016-3.246,15.541-8.849,30.34l-17.06,44.469c-6.736,17.705-8.426,18.485-9.005,23.519c8.081-3.219,14.291-5.32,17.305-6.2
	c5.527-1.615,14.301-2.174,15.618,2.877c2.773,10.635-20.578,28.902-41.989,38.018c-2.443,1-26.482,58.096-20.659,80.43
	c2.219,8.509,14.52,18.363,22.558,16.015l33.156-9.686c2.763-0.807,5.145,1.072,5.769,3.465c0.277,1.063,0.485,1.862,0.192,2.805
	c-2.978,13.46-11.345,20.769-30.686,26.419c-9.295,2.715-13.66,2.56-16.423,3.367c-15.557,2.541-33.306-10.586-38.505-30.526
	c-0.693-2.659-1.483-6.72-1.586-11.268l-0.251,0.073c-0.869-15.77,0.213-29.247,3.495-40.507
	c5.092-17.797,6.451-21.914,7.083-24.674l-2.469-0.137c-4.253-0.76-7.094-3.364-8.273-7.885c-0.416-1.595-0.512-2.997-0.495-5.005
	l0.069,0.266c-0.538-12.432,3.264-17.549,10.296-19.603c3.015-0.881,7.814-1.138,8.819-1.432c4.089-0.908,5.577-7.638,8.616-15.679
	l3.698-9.665l-0.364,0.679c7.283-18.723,9.179-18.705,20.956-56.481c8.65-27.993,12.763-44.359,20.55-46.634
	c7.033-2.055,15.937,3.07,17.878,10.514c0.208,0.798,0.416,1.596,0.373,2.467L762.631,593.281z"/>
<path fill="none" stroke="#562704" stroke-width="4" stroke-miterlimit="10" d="M899.89,729.106
	c-9.585,28.553-16.044,55.619-25.589,58.407c-4.521,1.321-11.902-6.252-13.358-11.835c-0.347-1.329,1.124-14.349,9.418-46.816
	c6.148-24.114,10.582-40.288,12.936-47.843l-0.112,0.605c4.795-25.15,3.537-49.676,4.767-51.179
	c-6.141,2.366-26.529,25.776-48.752,54.586l-13.727,18.889l0.364-0.679c-14.939,26.683-17,33.294-23.909,54.483l0.111-0.605
	l-3.523,22.776c-2.493,7.024-6.685,11.681-12.713,13.442c-4.772,1.394-10.37-5.555-12.241-12.733
	c-2.426-9.306-0.314-21.941,2.327-33.586l9.95-29.23l-0.434,0.412c2.528-11.039,6.234-25.856,10.824-43.506l13.81-53.822
	c2.077-8.618,3.931-16.027,6.441-25.058c-0.2-5.95,1.696-14.23,6.346-26.461c6.079-16.082,10.314-21.611,15.086-23.005
	c3.015-0.881,5.509,0.393,7.163,3.63l-0.32-0.193c0.139,0.532,0.527,0.99,0.735,1.788c0.416,1.596,0.469,3.869,0.59,6.409
	l0.182-0.34l0.148,3.677c0.624,2.393-0.224,9.508-2.588,22.216l-0.069-0.266c-3.705,23.115-10.553,49.723-16.38,74.029
	c24.917-29.883,44.352-50.727,61.181-55.643c10.299-3.009,24.297,9.212,26.792,18.783c2.842,10.902-7.171,81.355-15.207,108.595
	L899.89,729.106z"/>
<path fill="none" stroke="#562704" stroke-width="4" stroke-miterlimit="10" d="M119.503,938.669
	c-23.693,15.117-45.765,23.706-51.931,23.706H56.86c-17.202,0-26.939-13.743-26.939-29.545c0-18.21,12.334-38.822,34.08-59.092
	h-0.324c4.22-4.467,15.579-14.086,33.431-29.547c31.159-26.797,69.783-48.441,94.125-48.441c16.229,0,21.097,2.748,21.097,12.367
	c0,13.056-5.194,36.418-23.044,36.418c-3.246,0-5.843-2.748-5.843-6.871c0-2.406,0-3.78,0-5.153c0-2.062,0-2.748-0.974-2.748
	c-2.597,0-10.061,3.778-22.071,10.649l-45.765,28.859c-2.272,0.688-11.36,9.963-25.965,25.767
	c-15.58,16.834-23.694,27.485-26.29,33.325c0.324,0,0.324-0.342,0.649-0.342c1.298,1.374,3.57,1.374,4.544,1.718l32.782-15.804
	h-0.325l11.36-6.185h-0.324c7.465-3.778,14.93-10.305,22.395-17.177c16.228-15.117,26.939-21.988,29.536-21.988
	c6.167,0,14.605,10.993,14.605,20.956c0,7.215-3.246,11.681-6.492,14.43c-0.973,5.496-24.667,85.202-34.405,88.295l0.974-0.344
	c-2.921,1.374-4.869,2.062-7.141,2.062c-9.412,0-13.632-7.903-13.632-25.423c0-3.093,0.325-7.903,0.649-12.025
	C117.88,951.724,118.205,945.884,119.503,938.669z"/>
<path fill="none" stroke="#562704" stroke-width="4" stroke-miterlimit="10" d="M482.235,1050.997
	c-0.587,2.794-2.934,4.658-5.574,4.658h-8.214c-2.346,0-4.987-2.173-5.574-4.969c-4.693-29.187-14.667-49.06-30.509-49.06
	c-8.8,0-39.896,20.804-42.537,33.845c-12.908,22.978-14.667,25.774-16.134,33.847c-25.816,52.478-34.323,75.146-36.376,84.151
	l-0.294,0.932l6.747-0.622c9.681-0.931,17.602-2.174,22.002-1.863c11.147,0,16.721,3.416,16.721,9.005
	c0,9.937-9.974,17.079-23.762,19.564h0.294c-15.255,3.105-23.762,4.658-24.935,4.658c-21.122,10.557-17.602,5.278-21.708,22.977
	l-2.641,13.974c-2.053,10.557-5.28,16.148-7.334,19.873c-1.467,4.658-4.693,10.248-9.68,16.459h0.293
	c-7.333,9.314-13.787,13.663-19.948,13.663c-5.281,0-10.561-6.832-10.561-15.837c0-1.553,0.293-3.105,0.587-4.658l9.68-20.804v0.309
	c5.574-13.352,10.268-24.22,13.788-33.225l-7.627,2.174c-3.814,1.242-7.04,1.863-9.681,1.863c-10.561,0-17.895-9.937-17.895-18.321
	c0-1.243,0-2.485,0.294-3.416h-0.294c2.053-12.732,40.777-6.21,54.271-26.705c1.173-2.484,5.574-12.421,11.441-28.567v0.311
	c6.454-17.39,10.561-27.636,11.441-31.674c1.174-5.9,3.227,3.416,6.454-14.594l1.174-2.174
	c30.508-50.613,14.374-45.335,43.417-75.766c17.895-18.942,36.962-28.567,56.324-28.567c20.828,0,34.616,9.936,41.07,29.189
	c3.227,19.562,5.867,32.603,7.627,37.883L482.235,1050.997z"/>
<path fill="none" stroke="#562704" stroke-width="4" stroke-miterlimit="10" d="M504.53,1163.405
	c-4.107,5.9-12.027,14.283-23.762,25.773c-12.614,9.936-46.643,30.12-60.431,30.12c-4.694,0-9.681-2.484-14.374-8.383v0.309
	c-4.694-4.967-7.04-11.178-7.04-18.01c0-2.173,0.293-4.658,0.88-7.141h-0.293c5.574-24.842,15.841-45.026,47.23-78.871
	c19.068-20.495,38.137-32.294,71.286-39.746h-0.294c1.467-0.622,2.64-0.622,4.694-0.622c9.974,0,14.667,9.316,14.667,23.909
	c0,5.9-0.88,13.353-2.64,22.047h0.293c-3.52,16.768-9.974,36.641-16.721,36.641c-2.054,0-3.52-0.311-4.694-0.622L504.53,1163.405z
	 M456.419,1165.269c24.348-17.7,28.749-20.184,44.297-47.2c1.173-1.553,7.04-12.73,7.04-16.146c0-0.311,0-0.311,0-0.311
	c-3.227-0.311-5.574,1.864-14.081,8.385l-7.334,5.589l-18.775,16.146c-7.921,6.832-21.121,26.705-29.335,43.784
	c6.161-2.794,12.321-6.521,18.188-10.557V1165.269z"/>
<path fill="none" stroke="#562704" stroke-width="4" stroke-miterlimit="10" d="M695.247,1082.36
	c-9.093,6.52-16.133,9.005-20.534,9.625c-17.602,8.696-34.324,19.873-51.045,29.5l0.294-0.311
	c-36.963,22.358-43.71,29.189-56.324,40.368l-16.135,18.01c-10.268,9.316-14.667,39.126-30.216,39.126
	c-0.88,0-2.64-0.932-3.52-1.553h-0.294c-2.64,0-3.813,1.553-5.867,1.553c-3.227,0-5.574-2.796-5.574-6.521l1.467-8.074
	c0.587-3.416,1.174-4.658,1.76-6.521v0.311c4.107-12.11,7.627-22.668,12.027-30.12l18.188-31.052v0.311l5.867-10.868
	c4.4-8.074,10.854-17.39,18.775-29.5c4.4-14.283,13.201-22.357,18.481-22.357l7.921,2.794c5.281,2.485,7.921,6.211,7.921,10.557
	c0,1.864-1.467,7.763-4.987,16.148c25.229-15.837,38.43-25.153,64.539-36.021l12.614-5.278h-0.292
	c3.519-1.553,0.586-1.863,9.68-3.727h-0.294c7.04-2.484,14.081-3.416,22.002-3.416c4.986,0,7.92,5.901,7.92,12.112
	c0,1.551-0.292,3.414-0.586,4.967L695.247,1082.36z M518.94,1218.056c-0.293,0-0.587-0.311-1.173-0.931L518.94,1218.056z"/>
<path fill="none" stroke="#562704" stroke-width="4" stroke-miterlimit="10" d="M915.907,1052.691
	c-3.177,13.874-12.708,20.18-23.034,26.065l-4.369,2.521c-30.58,28.588-19.858,24.384-53.217,56.753
	c-16.681,16.395-42.894,35.313-44.085,41.198c-0.398,2.523,23.034,23.542,62.353,47.924l17.475,10.931
	c0.795,1.26,2.781,2.521,2.781,2.942c3.972,0.421,7.546,3.364,7.546,7.568c0,11.349-13.901,23.961-19.858,23.961
	c-11.517,0-24.623-4.625-39.716-13.451h0.398c-9.531-5.466-16.68-8.829-21.844-10.51h0.398
	c-21.049-6.727-34.552-24.384-47.657-41.619c-0.795-0.842-0.795-1.262-0.795-1.681c0,0,0-0.421-0.795-1.262
	c-20.254,42.879-40.907,80.294-54.41,80.294c-11.517,0-17.872-8.827-17.872-20.178c0-6.306,4.767-20.178,28.199-62.638
	c16.284-29.426,24.227-45.402,25.02-49.185c1.193-4.625,9.531-23.122,17.872-42.039l1.986-4.204
	c5.56-11.77,14.694-29.846,27.006-53.389v0.421c12.71-24.382,21.844-43.3,35.744-65.58c11.517-24.382,19.063-39.096,35.744-39.096
	c3.574,0,7.148,0.84,9.531,3.783v-0.421c3.972,3.783,5.56,8.408,5.56,13.453c0,5.885-4.369,14.293-5.162,15.133
	c-1.986,8.408-15.491,23.122-17.872,35.313l-25.815,52.97c-8.738,17.655-14.298,33.211-19.46,44.139l4.369-4.204
	c22.637-21.859,38.523-38.675,49.643-46.241c16.681-12.193,32.568-33.211,48.057-33.211c9.134,0,16.282,9.247,16.282,19.757
	c0,1.26,0,2.943-0.398,4.204L915.907,1052.691z"/>
<path fill="none" stroke="#562704" stroke-miterlimit="10" d="M275.475,688.5c9.497-50.438,13.035-101.951,35.633-149.476
	c57.445-120.811,148.11-200.963,258.003-273.573c47.097-31.119,99.663-62.338,154.859-77.036c26.477-7.051,53.258-8.484,78.227-21.1
	c7.823-3.953,48.393-32.875,54.341-30.007c12.285,5.925-3.057,40.138-5.248,49.111c-10.698,43.813-20.09,87.908-34.427,130.739
	c-30.158,90.094-95.044,166.217-175.467,216.525c-50.906,31.844-109.276,48.801-165.975,66.856
	c-59.482,18.94-158.923,36.302-195.946,85.961"/>
<path fill="none" stroke="#562704" stroke-width="0.5" stroke-miterlimit="10" d="M623.475,298.5
	c-25.056,5.762-58.454,8.512-80.724,22.025c-15.217,9.234-23.873,26.664-34.206,40.79c-16.445,22.482-54.015,75.941-5.697,86.658
	c32.261,7.156,65.426-41.949,72.778-67.268c7.574-26.084-7.516-56.278-36.342-55.812c-26.356,0.426-55.448,22.649-73.454,39.175
	c-36.479,33.48-90.414,149.825-9.054,168.297c93.435,21.214,228.289-101.645,177.952-196.357
	c-16.407-30.871-54.426-51.476-81.254-21.509"/>
<path fill="none" stroke="#562704" stroke-width="0.25" stroke-miterlimit="10" d="M285.475,492.5
	c-4.478-124.302,108.876-198.083,205.505-253.975c57.143-33.053,122.296-60.02,174.798-100.266
	c28.016-21.476,45.855-49.871,63.434-79.083c-31.956,46.051-58.264,79.965-105.31,111.324
	c-73.151,48.76-159.618,75.246-233.872,122.953c-47.135,30.283-62.473,60.939-74.189,110.997
	c17.708-10.35,36.16-25.909,54.15-37.911c34.521-23.031,78.777-39.522,107.414-69.524
	c-66.026,97.178-230.073,115.583-249.93,245.485"/>
<path fill="none" stroke="#562704" stroke-width="4" stroke-miterlimit="10" d="M105.475,1230.5
	c4.322-20.762,7.226-41.678,13.373-62.267c10.412-34.874,26.763-67.293,52.474-93.392c27.677-28.095,66.917-42.763,91.352-73.977
	c21.819-27.872,15.025-57.052,26.939-87.561c15.663-40.109,64.957-49.892,89.938-82.447c17.537-22.854,20.311-46.723,10.014-74.402
	c-3.811-10.245-16.385-47.172-29.691-34.605c-3.838-34.829-34.121-11.615-31.947,12.039c1.189-23.986,23.975-5.054,29.541,6.914
	c17.658,37.967-14.271,99.129-41.737,125.214c0.699-23.54-12.938-100.659-38.74-109.784c-28.741-10.164-34.754,52.102-33.509,69.752
	c1.404-9.758,9.728-24.233,20.193-25.318c23.852,46.919-7.484,126.261-34.662,162.468c-35.213,46.91-75.873,88.197-105.21,139.444
	c-14.752,25.77-35.136,56.701-32.327,87.922"/>
<path fill="none" stroke="#562704" stroke-width="4" stroke-miterlimit="10" d="M221.475,1196.5c-1.333,0-2.667,0-4,0"/>
<path fill="none" stroke="#562704" stroke-width="4" stroke-miterlimit="10" d="M155.475,1212.5
	c-3.919-64.011,69.386-107.39,111.669-143.669c59.493-51.044,126.399-91.338,184.267-144.021
	c16.757-15.255,58.477-63.126,28.05-82.787c-20.734-13.398-53.234,3.467-61.794,22.232c18.702-4.976,29.726-4.534,26.396,14.69
	c-4.399,25.401-34.972,36.641-54.645,45.502c-33.133,14.923-68.026,30.393-87.943,60.053"/>
</svg>
