<?xml version="1.0" encoding="utf-8"?>
<!-- Generator: Adobe Illustrator 16.0.0, SVG Export Plug-In . SVG Version: 6.00 Build 0)  -->
<!DOCTYPE svg PUBLIC "-//W3C//DTD SVG 1.1//EN" "http://www.w3.org/Graphics/SVG/1.1/DTD/svg11.dtd">
<svg version="1.1" id="Layer_1" xmlns="http://www.w3.org/2000/svg" xmlns:xlink="http://www.w3.org/1999/xlink" x="0px" y="0px"
	 width="977.951px" height="800px" viewBox="0 0 977.951 800" enable-background="new 0 0 977.951 800" xml:space="preserve">
<path fill="none" stroke="#000000" stroke-miterlimit="10" d="M188.221,41.771c18.951,63.249-9.238,155.518-21.721,218.737
	c-8.903,45.108-17.71,94.193-30.827,137.671"/>
<path fill="none" stroke="#000000" stroke-miterlimit="10" d="M348.149,130.872c-56.672,1.02-69.379,32.756-68.403,88.756
	c41.674,6.18,71.509-31.845,109.526-38.494"/>
<path fill="none" stroke="#000000" stroke-miterlimit="10" d="M434.965,110.311c-20.459,6.479-34.744,57.09-5.291,59.43
	c38.289,3.042,62.045-94.335,26.191-93.407c-1.702,9.212-7.339,25.105-9.46,29.75c2.121-20.723,37.107-36.018,56.746-27.75
	c15.459,6.509,14.453,19.708,18.006,34.19c3.526-11.058,0.521-64.118,11.887-66.508c13.129-2.761,29.502,39.038,38.549,45.373
	c1.577-21.014,2.777-49.293,15.883-65.581c6.172,18.928,2.979,60.577,20.507,73.7c8.857,6.63,28.717,6.924,34.889-0.619"/>
<path fill="none" stroke="#000000" stroke-miterlimit="10" d="M656.58-1.638c0,39.414-1.552,79.34,0.31,118.627
	c22.988-9.595,74.277-1.931,75.077-33.469c0.717-28.24-46.214-21.819-64.342-21.188c21.807,0,79.268,4.944,62.271-37.165
	c-7.017-17.388-60.728-25.418-71.03-8.528"/>
<path fill="none" stroke="#000000" stroke-miterlimit="10" d="M668.005,219.975c0.828,30.827-22.421,61.835-20.548,95.303
	c2.856-26.748,18.102-92.463,38.25-111.113c10.771,25.848,5.979,60.872,12.449,88.884c7.917-9.567,19.434-113.153,50.429-85.367
	c14.978,13.427,10.114,79.267,12.581,98.566c1.891,14.768,1.188,30.832,7.362,43.953"/>
<path fill="none" stroke="#000000" stroke-miterlimit="10" d="M777.667,201.697c7.83,46.894,26.623,104.41,66.257,134.796"/>
<path fill="none" stroke="#000000" stroke-miterlimit="10" d="M875.907,251.959c-40.492,62.463-111.066,125.594-114.232,205.623"/>
<path fill="none" stroke="#000000" stroke-miterlimit="10" d="M96.834,603.8c26.188-26.826,52.427-59.269,61.731-96.197
	c7.825-31.054-7.874-73.839-48.748-56.927c-45.442,18.8,22.267,156.312,35.048,197.898c-0.098-14.895-11.804-88.063,13.138-83.606
	c5.065,15.164,5.474,42.345,18.631,53.162c18.333,15.072,44.47,7.631,54.478-10.066c10.27-18.159,15.177-77.12,2.846-95.239
	c-16.305-23.961-29.966-10.124-32.149,12.798c-4.249,44.649,36.786,61.667,47.7,11.918c4.549-20.749-4.345-76.595,28.146-77.72
	c-23.095,7.238-21.811,43.689-20.497,66.021c35.882,24.637,43.291-39.723,28.737-61.17c-13.057,14.9,59.335,56.294,77.842,59.079
	c5.985-18.309,11.503-56.02,2.379-73.938c-8.832-17.341-33.77-20.036-47.542-28.27c27.746-2.084,63.417,3.69,84.222-18.502
	c-12.135,5.145-23.009,18.63-26.651,31.812c-6.408,23.181,2.806,25.685,25.756,34.77c18.974,7.511,52.616,25.673,73.716,19.973
	c13.493-3.645,17.614-16.715,27.886-25.159"/>
<path fill="none" stroke="#000000" stroke-miterlimit="10" d="M581.186,473.574c6.95,24.172-12.592,120.72,9.544,128.014
	c28.234,9.302,52.315-81.529,61.898-100.75c7.591,31.509-3.129,64.646-7.237,95.416c24.758-17.146,40.768-72.158,67.906-79.022
	c1.471,22.59-13.967,120.089,23.194,88.612c36.084-30.562,35.227-102.152,73.495-128.83
	c-15.093,49.219-33.742,104.74-43.734,150.129c-0.045-38.519,0.62-76.366-8.501-112.593c28.784-1.182,61.669,25.305,87.765,36.767
	c-15.691,2.912-23.633,18.844-31.442,30.877c0.43-38.746,70.447-71.863,93.891-97.566c19.773-21.684,29.982-53.236,31.542-81.744
	c-47.131,28.725-75.964,126.879-89.502,177.429c-9.113,34.023-17.974,63.915-31.25,95.554
	c-3.121-19.703,14.016-40.855,25.241-55.675c5.021-6.629,23.113-34.363,31.912-35.322c25.545-2.791,12.977,86.266,43.408,69.194"/>
<path fill="none" stroke="#000000" stroke-miterlimit="10" d="M281.892,665.485c-21.617,0.431-56.003,19.357-69.885,35.678
	c-7.684,9.031-26.36,56.736-14.354,67.347c22.274,19.687,74.445-100.142,77.326-125.226c2.35,49.482,76.346,76.599,102.87,111.304"
	/>
<path fill="none" stroke="#000000" stroke-miterlimit="10" d="M505.789,649.494c-0.048,50.843-17.945,97.533-18.277,147.812
	c0.5-38.672,22.751-88.295,34.272-124.968"/>
<path fill="none" stroke="#000000" stroke-miterlimit="10" d="M469.234,665.485c49.298-1.281,90.158,33.708,137.082,36.553"/>
<path fill="none" stroke="#000000" stroke-miterlimit="10" d="M462.381,711.179c26.094,6.266,58.412,9.374,79.965,25.131"/>
<path fill="none" stroke="#000000" stroke-miterlimit="10" d="M661.149,713.463c-19.275,7.081-32.86-3.82-44.197,20.116
	c-6.114,12.903-4.121,29.739-3.482,43.509c31.778,1.928,59.042,5.912,68.287-29.989c5.351-20.79,7.26-51.191-22.192-45.008
	c19.545-5.928,44.595-5.699,61.147-17.459c-1.928,27.651,12.999,58.189,18.167,85.25c3.274-32.253-21.983-64.885-20.259-99.474
	c19.389-1.091,39.345-6.533,45.332,11.032c10.465,30.71-25.671,47.815-49.66,45.729c35.711,0.154,68.507,8.84,95.472,31.187
	c2.168-32.495-12.651-68.294-16.103-101.06c-1.201,40.271,13.75,75.562,25.248,112.585c-3.874-32.162-4.631-50.44,7.525-76.679
	c-7.516,11.021-18.562,17.849-25.223,29.062c34.724,0.078,60.237,28.051,92.975,30.036"/>
</svg>
